# Blender 4.1.1
# www.blender.org
mtllib stone_red.mtl
o Sphere
v 0.000000 0.923880 -0.382683
v 0.000000 0.382683 -0.923880
v 0.000000 0.000000 -1.000000
v 0.000000 -0.382683 -0.923880
v 0.000000 -0.923880 -0.382683
v 0.000000 1.000000 0.000000
v 0.166040 0.923880 -0.344786
v 0.306802 0.707107 -0.637081
v 0.400856 0.382683 -0.832387
v 0.433884 0.000000 -0.900969
v 0.400856 -0.382683 -0.832387
v 0.306802 -0.707107 -0.637081
v 0.166040 -0.923880 -0.344786
v 0.299194 0.923880 -0.238599
v 0.552838 0.707107 -0.440874
v 0.722318 0.382683 -0.576029
v 0.781832 0.000000 -0.623490
v 0.722318 -0.382683 -0.576029
v 0.552838 -0.707107 -0.440874
v 0.299194 -0.923880 -0.238599
v 0.373089 0.923880 -0.085155
v 0.689378 0.707107 -0.157346
v 0.900716 0.382683 -0.205582
v 0.974928 0.000000 -0.222521
v 0.900716 -0.382683 -0.205582
v 0.689378 -0.707107 -0.157346
v 0.373089 -0.923880 -0.085155
v 0.373089 0.923880 0.085155
v 0.689378 0.707107 0.157346
v 0.900716 0.382683 0.205583
v 0.974928 0.000000 0.222521
v 0.900716 -0.382683 0.205583
v 0.689378 -0.707107 0.157346
v 0.373089 -0.923880 0.085155
v 0.299194 0.923880 0.238599
v 0.552838 0.707107 0.440874
v 0.722318 0.382683 0.576030
v 0.781831 0.000000 0.623490
v 0.722318 -0.382683 0.576030
v 0.552838 -0.707107 0.440874
v 0.299194 -0.923880 0.238599
v 0.166040 0.923880 0.344786
v 0.306802 0.707107 0.637081
v 0.400856 0.382683 0.832387
v 0.433884 0.000000 0.900969
v 0.400856 -0.382683 0.832387
v 0.306802 -0.707107 0.637081
v 0.166040 -0.923880 0.344786
v -0.000000 0.923880 0.382683
v -0.000000 0.707107 0.707107
v -0.000000 0.382683 0.923880
v -0.000000 0.000000 1.000000
v -0.000000 -0.382683 0.923880
v -0.000000 -0.707107 0.707107
v -0.000000 -0.923880 0.382683
v -0.166040 0.923880 0.344786
v -0.306802 0.707107 0.637081
v -0.400856 0.382683 0.832387
v -0.433884 0.000000 0.900969
v -0.400856 -0.382683 0.832387
v -0.306802 -0.707107 0.637081
v -0.166040 -0.923880 0.344786
v -0.299194 0.923880 0.238599
v -0.552838 0.707107 0.440874
v -0.722318 0.382683 0.576029
v -0.781832 0.000000 0.623490
v -0.722318 -0.382683 0.576029
v -0.552838 -0.707107 0.440874
v -0.299194 -0.923880 0.238599
v -0.373089 0.923880 0.085155
v -0.689378 0.707107 0.157346
v -0.900716 0.382683 0.205582
v -0.974928 0.000000 0.222521
v -0.900716 -0.382683 0.205582
v -0.689378 -0.707107 0.157346
v -0.373089 -0.923880 0.085155
v -0.373089 0.923880 -0.085155
v -0.689378 0.707107 -0.157346
v -0.900716 0.382683 -0.205583
v -0.974928 0.000000 -0.222521
v -0.900716 -0.382683 -0.205583
v -0.689378 -0.707107 -0.157346
v -0.373089 -0.923880 -0.085155
v -0.299194 0.923880 -0.238599
v -0.552838 0.707107 -0.440874
v -0.722318 0.382683 -0.576030
v -0.781831 0.000000 -0.623490
v -0.722318 -0.382683 -0.576030
v -0.552838 -0.707107 -0.440874
v -0.299194 -0.923880 -0.238599
v -0.166040 0.923880 -0.344786
v -0.306802 0.707107 -0.637081
v -0.400856 0.382683 -0.832387
v -0.433883 0.000000 -0.900969
v -0.400856 -0.382683 -0.832387
v -0.306802 -0.707107 -0.637081
v -0.166040 -0.923880 -0.344786
v 0.000000 0.707107 -0.707107
v 0.000000 -0.707107 -0.707107
v 0.000000 -1.000000 0.000000
vn 0.1258 0.8249 -0.5512
vn 0.1258 -0.8249 -0.5512
vn 0.2185 -0.1904 -0.9571
vn 0.1864 0.5458 -0.8169
vn 0.0445 0.9798 -0.1949
vn 0.0445 -0.9798 -0.1949
vn 0.1864 -0.5458 -0.8169
vn 0.2185 0.1904 -0.9571
vn 0.6121 -0.1904 -0.7675
vn 0.5224 0.5458 -0.6551
vn 0.1246 0.9798 -0.1563
vn 0.1246 -0.9798 -0.1563
vn 0.5224 -0.5458 -0.6551
vn 0.6121 0.1904 -0.7675
vn 0.3525 0.8249 -0.4420
vn 0.3525 -0.8249 -0.4420
vn 0.1801 -0.9798 -0.0867
vn 0.7549 -0.5458 -0.3635
vn 0.8845 0.1904 -0.4259
vn 0.5093 0.8249 -0.2453
vn 0.5093 -0.8249 -0.2453
vn 0.8845 -0.1904 -0.4259
vn 0.7549 0.5458 -0.3635
vn 0.1801 0.9798 -0.0867
vn 0.9817 0.1904 -0.0000
vn 0.5653 0.8249 -0.0000
vn 0.5653 -0.8249 -0.0000
vn 0.9817 -0.1904 -0.0000
vn 0.8379 0.5458 -0.0000
vn 0.1999 0.9798 -0.0000
vn 0.1999 -0.9798 -0.0000
vn 0.8379 -0.5458 -0.0000
vn 0.5093 -0.8249 0.2453
vn 0.8845 -0.1904 0.4259
vn 0.7549 0.5458 0.3635
vn 0.1801 0.9798 0.0867
vn 0.1801 -0.9798 0.0867
vn 0.7549 -0.5458 0.3635
vn 0.8845 0.1904 0.4259
vn 0.5093 0.8249 0.2453
vn 0.5224 0.5458 0.6551
vn 0.1246 0.9798 0.1563
vn 0.1246 -0.9798 0.1563
vn 0.5224 -0.5458 0.6551
vn 0.6121 0.1904 0.7675
vn 0.3525 0.8249 0.4420
vn 0.3525 -0.8249 0.4420
vn 0.6121 -0.1904 0.7675
vn 0.0445 -0.9798 0.1949
vn 0.1864 -0.5458 0.8169
vn 0.2185 0.1904 0.9571
vn 0.1258 0.8249 0.5512
vn 0.1258 -0.8249 0.5512
vn 0.2185 -0.1904 0.9571
vn 0.1864 0.5458 0.8169
vn 0.0445 0.9798 0.1949
vn -0.1258 0.8249 0.5512
vn -0.1258 -0.8249 0.5512
vn -0.2185 -0.1904 0.9571
vn -0.1864 0.5458 0.8169
vn -0.0445 0.9798 0.1949
vn -0.0445 -0.9798 0.1949
vn -0.1864 -0.5458 0.8169
vn -0.2185 0.1904 0.9571
vn -0.3525 -0.8249 0.4420
vn -0.6121 -0.1904 0.7675
vn -0.5224 0.5458 0.6551
vn -0.1246 0.9798 0.1563
vn -0.1246 -0.9798 0.1563
vn -0.5224 -0.5458 0.6551
vn -0.6121 0.1904 0.7675
vn -0.3525 0.8249 0.4420
vn -0.1801 0.9798 0.0867
vn -0.1801 -0.9798 0.0867
vn -0.7549 -0.5458 0.3635
vn -0.8845 0.1904 0.4259
vn -0.5093 0.8249 0.2453
vn -0.5093 -0.8249 0.2453
vn -0.8845 -0.1904 0.4259
vn -0.7549 0.5458 0.3635
vn -0.8379 -0.5458 -0.0000
vn -0.9817 0.1904 -0.0000
vn -0.5653 0.8249 -0.0000
vn -0.5653 -0.8249 -0.0000
vn -0.9817 -0.1904 -0.0000
vn -0.8379 0.5458 -0.0000
vn -0.1999 0.9798 -0.0000
vn -0.1999 -0.9798 -0.0000
vn -0.5093 -0.8249 -0.2453
vn -0.8845 -0.1904 -0.4259
vn -0.7549 0.5458 -0.3636
vn -0.1801 0.9798 -0.0867
vn -0.1801 -0.9798 -0.0867
vn -0.7549 -0.5458 -0.3636
vn -0.8845 0.1904 -0.4259
vn -0.5093 0.8249 -0.2453
vn -0.6121 -0.1904 -0.7675
vn -0.5224 0.5458 -0.6551
vn -0.1246 0.9798 -0.1563
vn -0.1246 -0.9798 -0.1563
vn -0.5224 -0.5458 -0.6551
vn -0.6121 0.1904 -0.7675
vn -0.3525 0.8249 -0.4420
vn -0.3525 -0.8249 -0.4420
vn -0.0445 -0.9798 -0.1949
vn -0.1864 -0.5458 -0.8169
vn -0.2185 0.1904 -0.9571
vn -0.1258 0.8249 -0.5512
vn -0.1258 -0.8249 -0.5512
vn -0.2185 -0.1904 -0.9571
vn -0.1864 0.5458 -0.8169
vn -0.0445 0.9798 -0.1949
vt 0.714286 0.750000
vt 0.714286 0.875000
vt 0.642857 0.875000
vt 0.642857 0.750000
vt 0.714286 0.125000
vt 0.714286 0.250000
vt 0.642857 0.250000
vt 0.642857 0.125000
vt 0.714286 0.375000
vt 0.714286 0.500000
vt 0.642857 0.500000
vt 0.642857 0.375000
vt 0.714286 0.625000
vt 0.642857 0.625000
vt 0.678571 1.000000
vt 0.678571 0.000000
vt 0.571429 0.500000
vt 0.571429 0.375000
vt 0.571429 0.750000
vt 0.571429 0.625000
vt 0.607143 1.000000
vt 0.571429 0.875000
vt 0.607143 0.000000
vt 0.571429 0.125000
vt 0.571429 0.250000
vt 0.535714 0.000000
vt 0.500000 0.125000
vt 0.500000 0.375000
vt 0.500000 0.250000
vt 0.500000 0.625000
vt 0.500000 0.500000
vt 0.500000 0.875000
vt 0.500000 0.750000
vt 0.535714 1.000000
vt 0.428571 0.625000
vt 0.428571 0.500000
vt 0.428571 0.875000
vt 0.428571 0.750000
vt 0.428571 0.250000
vt 0.428571 0.125000
vt 0.428571 0.375000
vt 0.464286 1.000000
vt 0.464286 0.000000
vt 0.357143 0.250000
vt 0.357143 0.125000
vt 0.357143 0.500000
vt 0.357143 0.375000
vt 0.357143 0.750000
vt 0.357143 0.625000
vt 0.392857 1.000000
vt 0.357143 0.875000
vt 0.392857 0.000000
vt 0.285714 0.750000
vt 0.285714 0.625000
vt 0.321429 1.000000
vt 0.285714 0.875000
vt 0.321429 0.000000
vt 0.285714 0.125000
vt 0.285714 0.375000
vt 0.285714 0.250000
vt 0.285714 0.500000
vt 0.250000 0.000000
vt 0.214286 0.125000
vt 0.214286 0.375000
vt 0.214286 0.250000
vt 0.214286 0.625000
vt 0.214286 0.500000
vt 0.214286 0.875000
vt 0.214286 0.750000
vt 0.250000 1.000000
vt 0.142857 0.875000
vt 0.142857 0.750000
vt 0.142857 0.250000
vt 0.142857 0.125000
vt 0.142857 0.500000
vt 0.142857 0.375000
vt 0.142857 0.625000
vt 0.178571 1.000000
vt 0.178571 0.000000
vt 0.071429 0.250000
vt 0.071429 0.125000
vt 0.071429 0.500000
vt 0.071429 0.375000
vt 0.071429 0.750000
vt 0.071429 0.625000
vt 0.107143 1.000000
vt 0.071429 0.875000
vt 0.107143 0.000000
vt 0.035714 1.000000
vt 0.000000 0.875000
vt 0.035714 0.000000
vt 0.000000 0.125000
vt 0.000000 0.375000
vt 0.000000 0.250000
vt 0.000000 0.625000
vt 0.000000 0.500000
vt 0.000000 0.750000
vt 1.000000 0.250000
vt 1.000000 0.375000
vt 0.928571 0.375000
vt 0.928571 0.250000
vt 1.000000 0.500000
vt 1.000000 0.625000
vt 0.928571 0.625000
vt 0.928571 0.500000
vt 1.000000 0.750000
vt 1.000000 0.875000
vt 0.928571 0.875000
vt 0.928571 0.750000
vt 1.000000 0.125000
vt 0.928571 0.125000
vt 0.964286 1.000000
vt 0.964286 0.000000
vt 0.857143 0.250000
vt 0.857143 0.125000
vt 0.857143 0.500000
vt 0.857143 0.375000
vt 0.857143 0.750000
vt 0.857143 0.625000
vt 0.892857 1.000000
vt 0.857143 0.875000
vt 0.892857 0.000000
vt 0.785714 0.500000
vt 0.785714 0.375000
vt 0.785714 0.750000
vt 0.785714 0.625000
vt 0.821429 1.000000
vt 0.785714 0.875000
vt 0.821429 0.000000
vt 0.785714 0.125000
vt 0.785714 0.250000
vt 0.750000 0.000000
vt 0.750000 1.000000
s 0
usemtl Material.001
f 98/1/1 1/2/1 7/3/1 8/4/1
f 5/5/2 99/6/2 12/7/2 13/8/2
f 4/9/3 3/10/3 10/11/3 11/12/3
f 2/13/4 98/1/4 8/4/4 9/14/4
f 1/2/5 6/15/5 7/3/5
f 100/16/6 5/5/6 13/8/6
f 99/6/7 4/9/7 11/12/7 12/7/7
f 3/10/8 2/13/8 9/14/8 10/11/8
f 11/12/9 10/11/9 17/17/9 18/18/9
f 9/14/10 8/4/10 15/19/10 16/20/10
f 7/3/11 6/21/11 14/22/11
f 100/23/12 13/8/12 20/24/12
f 12/7/13 11/12/13 18/18/13 19/25/13
f 10/11/14 9/14/14 16/20/14 17/17/14
f 8/4/15 7/3/15 14/22/15 15/19/15
f 13/8/16 12/7/16 19/25/16 20/24/16
f 100/26/17 20/24/17 27/27/17
f 19/25/18 18/18/18 25/28/18 26/29/18
f 17/17/19 16/20/19 23/30/19 24/31/19
f 15/19/20 14/22/20 21/32/20 22/33/20
f 20/24/21 19/25/21 26/29/21 27/27/21
f 18/18/22 17/17/22 24/31/22 25/28/22
f 16/20/23 15/19/23 22/33/23 23/30/23
f 14/22/24 6/34/24 21/32/24
f 24/31/25 23/30/25 30/35/25 31/36/25
f 22/33/26 21/32/26 28/37/26 29/38/26
f 27/27/27 26/29/27 33/39/27 34/40/27
f 25/28/28 24/31/28 31/36/28 32/41/28
f 23/30/29 22/33/29 29/38/29 30/35/29
f 21/32/30 6/42/30 28/37/30
f 100/43/31 27/27/31 34/40/31
f 26/29/32 25/28/32 32/41/32 33/39/32
f 34/40/33 33/39/33 40/44/33 41/45/33
f 32/41/34 31/36/34 38/46/34 39/47/34
f 30/35/35 29/38/35 36/48/35 37/49/35
f 28/37/36 6/50/36 35/51/36
f 100/52/37 34/40/37 41/45/37
f 33/39/38 32/41/38 39/47/38 40/44/38
f 31/36/39 30/35/39 37/49/39 38/46/39
f 29/38/40 28/37/40 35/51/40 36/48/40
f 37/49/41 36/48/41 43/53/41 44/54/41
f 35/51/42 6/55/42 42/56/42
f 100/57/43 41/45/43 48/58/43
f 40/44/44 39/47/44 46/59/44 47/60/44
f 38/46/45 37/49/45 44/54/45 45/61/45
f 36/48/46 35/51/46 42/56/46 43/53/46
f 41/45/47 40/44/47 47/60/47 48/58/47
f 39/47/48 38/46/48 45/61/48 46/59/48
f 100/62/49 48/58/49 55/63/49
f 47/60/50 46/59/50 53/64/50 54/65/50
f 45/61/51 44/54/51 51/66/51 52/67/51
f 43/53/52 42/56/52 49/68/52 50/69/52
f 48/58/53 47/60/53 54/65/53 55/63/53
f 46/59/54 45/61/54 52/67/54 53/64/54
f 44/54/55 43/53/55 50/69/55 51/66/55
f 42/56/56 6/70/56 49/68/56
f 50/69/57 49/68/57 56/71/57 57/72/57
f 55/63/58 54/65/58 61/73/58 62/74/58
f 53/64/59 52/67/59 59/75/59 60/76/59
f 51/66/60 50/69/60 57/72/60 58/77/60
f 49/68/61 6/78/61 56/71/61
f 100/79/62 55/63/62 62/74/62
f 54/65/63 53/64/63 60/76/63 61/73/63
f 52/67/64 51/66/64 58/77/64 59/75/64
f 62/74/65 61/73/65 68/80/65 69/81/65
f 60/76/66 59/75/66 66/82/66 67/83/66
f 58/77/67 57/72/67 64/84/67 65/85/67
f 56/71/68 6/86/68 63/87/68
f 100/88/69 62/74/69 69/81/69
f 61/73/70 60/76/70 67/83/70 68/80/70
f 59/75/71 58/77/71 65/85/71 66/82/71
f 57/72/72 56/71/72 63/87/72 64/84/72
f 63/87/73 6/89/73 70/90/73
f 100/91/74 69/81/74 76/92/74
f 68/80/75 67/83/75 74/93/75 75/94/75
f 66/82/76 65/85/76 72/95/76 73/96/76
f 64/84/77 63/87/77 70/90/77 71/97/77
f 69/81/78 68/80/78 75/94/78 76/92/78
f 67/83/79 66/82/79 73/96/79 74/93/79
f 65/85/80 64/84/80 71/97/80 72/95/80
f 75/98/81 74/99/81 81/100/81 82/101/81
f 73/102/82 72/103/82 79/104/82 80/105/82
f 71/106/83 70/107/83 77/108/83 78/109/83
f 76/110/84 75/98/84 82/101/84 83/111/84
f 74/99/85 73/102/85 80/105/85 81/100/85
f 72/103/86 71/106/86 78/109/86 79/104/86
f 70/107/87 6/112/87 77/108/87
f 100/113/88 76/110/88 83/111/88
f 83/111/89 82/101/89 89/114/89 90/115/89
f 81/100/90 80/105/90 87/116/90 88/117/90
f 79/104/91 78/109/91 85/118/91 86/119/91
f 77/108/92 6/120/92 84/121/92
f 100/122/93 83/111/93 90/115/93
f 82/101/94 81/100/94 88/117/94 89/114/94
f 80/105/95 79/104/95 86/119/95 87/116/95
f 78/109/96 77/108/96 84/121/96 85/118/96
f 88/117/97 87/116/97 94/123/97 95/124/97
f 86/119/98 85/118/98 92/125/98 93/126/98
f 84/121/99 6/127/99 91/128/99
f 100/129/100 90/115/100 97/130/100
f 89/114/101 88/117/101 95/124/101 96/131/101
f 87/116/102 86/119/102 93/126/102 94/123/102
f 85/118/103 84/121/103 91/128/103 92/125/103
f 90/115/104 89/114/104 96/131/104 97/130/104
f 100/132/105 97/130/105 5/5/105
f 96/131/106 95/124/106 4/9/106 99/6/106
f 94/123/107 93/126/107 2/13/107 3/10/107
f 92/125/108 91/128/108 1/2/108 98/1/108
f 97/130/109 96/131/109 99/6/109 5/5/109
f 95/124/110 94/123/110 3/10/110 4/9/110
f 93/126/111 92/125/111 98/1/111 2/13/111
f 91/128/112 6/133/112 1/2/112
