# Blender 4.1.1
# www.blender.org
mtllib tile_wideCorner.mtl
o tile_wideCorner
v 0.875000 -1.000000 -0.150000
v 0.875000 -1.000000 -0.200000
v 0.858959 -0.755263 -0.150000
v 0.858959 -0.755263 -0.200000
v 0.811111 -0.514714 -0.150000
v 0.811111 -0.514714 -0.200000
v 0.732274 -0.282469 -0.150000
v 0.732274 -0.282469 -0.200000
v -0.514714 0.811111 -0.150000
v -0.282469 0.732274 -0.150000
v -0.514714 0.811111 -0.200000
v -0.282469 0.732274 -0.200000
v 0.141428 0.487538 -0.150000
v 0.141428 0.487538 -0.200000
v -0.062500 0.623798 -0.150000
v -0.062500 0.623798 -0.200000
v 0.487538 0.141428 -0.150000
v 0.487538 0.141428 -0.200000
v 0.325825 0.325825 -0.150000
v 0.325825 0.325825 -0.200000
v 0.623798 -0.062500 -0.150000
v 0.623798 -0.062500 -0.200000
v -0.755263 0.858959 -0.150000
v -0.755263 0.858959 -0.200000
v -1.000000 0.875000 -0.150000
v -1.000000 0.875000 -0.200000
v -0.884515 -0.952164 -0.200000
v -0.884515 -0.952164 -0.150000
v -0.891747 -0.937500 -0.200000
v -0.891747 -0.937500 -0.150000
v -0.876069 -0.983684 -0.200000
v -0.876069 -0.983684 -0.150000
v -0.879259 -0.967648 -0.200000
v -0.879259 -0.967648 -0.150000
v -0.875000 -1.000000 -0.200000
v -0.875000 -1.000000 -0.150000
v -0.923905 -0.900831 -0.150000
v -0.937500 -0.891747 -0.150000
v -0.923905 -0.900831 -0.200000
v -0.937500 -0.891747 -0.200000
v -0.900831 -0.923905 -0.200000
v -0.900831 -0.923905 -0.150000
v -0.911612 -0.911612 -0.200000
v -0.911612 -0.911612 -0.150000
v -0.952164 -0.884515 -0.150000
v -0.952164 -0.884515 -0.200000
v -0.967648 -0.879259 -0.150000
v -0.967648 -0.879259 -0.200000
v -0.983684 -0.876069 -0.150000
v -0.983684 -0.876069 -0.200000
v -1.000000 -0.875000 -0.150000
v -1.000000 -0.875000 -0.200000
v -0.781250 -1.000000 -0.150000
v -0.783121 -0.971447 -0.150000
v -0.788704 -0.943383 -0.150000
v -0.797901 -0.916288 -0.150000
v -0.810557 -0.890625 -0.150000
v -0.826454 -0.866833 -0.150000
v -0.845320 -0.845320 -0.150000
v -0.866833 -0.826454 -0.150000
v -0.890625 -0.810557 -0.150000
v -0.916288 -0.797901 -0.150000
v -0.943383 -0.788704 -0.150000
v -0.971447 -0.783121 -0.150000
v -1.000000 -0.781250 -0.150000
v 0.781250 -1.000000 -0.150000
v 0.766011 -0.767500 -0.150000
v 0.720555 -0.538979 -0.150000
v 0.645660 -0.318345 -0.150000
v 0.542608 -0.109375 -0.150000
v 0.413161 0.084356 -0.150000
v 0.259534 0.259534 -0.150000
v 0.084356 0.413161 -0.150000
v -0.109375 0.542608 -0.150000
v -0.318345 0.645660 -0.150000
v -0.538979 0.720555 -0.150000
v -0.767500 0.766011 -0.150000
v -1.000000 0.781250 -0.150000
v 1.000000 -1.000000 -0.200000
v 1.000000 1.000000 -0.200000
v -1.000000 1.000000 -0.200000
v -1.000000 -1.000000 -0.200000
v -1.000000 -1.000000 -0.100000
v -1.000000 1.000000 -0.100000
v 1.000000 1.000000 -0.100000
v 1.000000 -1.000000 -0.100000
v 1.000000 1.000000 0.000000
v 1.000000 -1.000000 0.000000
v -1.000000 1.000000 0.000000
v -1.000000 -1.000000 0.000000
vn -0.9914 -0.1305 -0.0000
vn -0.9979 -0.0654 -0.0000
vn -0.9659 -0.2588 -0.0000
vn -0.9239 -0.3827 -0.0000
vn -0.2588 -0.9659 -0.0000
vn -0.3827 -0.9239 -0.0000
vn -0.5000 -0.8660 -0.0000
vn -0.6088 -0.7934 -0.0000
vn -0.7071 -0.7071 -0.0000
vn -0.7933 -0.6088 -0.0000
vn -0.7934 -0.6088 -0.0000
vn -0.8660 -0.5000 -0.0000
vn -0.6088 -0.7933 -0.0000
vn -0.1305 -0.9914 -0.0000
vn -0.0654 -0.9979 -0.0000
vn 0.8660 0.5000 -0.0000
vn 0.9239 0.3827 -0.0000
vn 0.9659 0.2588 -0.0000
vn 0.9914 0.1305 -0.0000
vn 0.9979 0.0654 -0.0000
vn 0.6087 0.7934 -0.0000
vn 0.5000 0.8660 -0.0000
vn 0.6088 0.7934 -0.0000
vn 0.7071 0.7071 -0.0000
vn 0.7933 0.6088 -0.0000
vn 0.7934 0.6088 -0.0000
vn 0.3827 0.9239 -0.0000
vn 0.2588 0.9659 -0.0000
vn 0.7934 0.6087 -0.0000
vn 0.1306 0.9914 -0.0000
vn 0.1305 0.9914 -0.0000
vn 0.0654 0.9979 -0.0000
vn 0.6088 0.7933 -0.0000
vn -0.0000 -0.0000 -1.0000
vn -1.0000 -0.0000 -0.0000
vn -0.0000 1.0000 -0.0000
vn 1.0000 -0.0000 -0.0000
vn -0.0000 -1.0000 -0.0000
vn -0.0000 -0.0000 1.0000
vt -31.882870 5.905512
vt -41.538849 7.874016
vt -41.538849 5.905512
vt -31.882870 7.874016
vt -26.104891 5.905512
vt -35.760860 7.874016
vt -35.760860 5.905512
vt -26.104891 7.874016
vt -19.797630 5.905512
vt -29.453600 7.874016
vt -29.453600 5.905512
vt -19.797630 7.874016
vt 29.453600 7.874016
vt 19.797630 5.905512
vt 29.453600 5.905512
vt 19.797630 7.874016
vt 15.690170 5.905512
vt 6.034194 7.874016
vt 6.034194 5.905512
vt 15.690170 7.874016
vt 1.186491 5.905512
vt -8.469482 7.874016
vt -8.469482 5.905512
vt 1.186491 7.874016
vt -6.034194 5.905512
vt -15.690170 7.874016
vt -15.690170 5.905512
vt -6.034194 7.874016
vt 8.469482 7.874016
vt -1.186491 5.905512
vt 8.469482 5.905512
vt -1.186491 7.874016
vt 35.760860 7.874016
vt 26.104891 5.905512
vt 35.760860 5.905512
vt 26.104891 7.874016
vt -13.069020 5.905512
vt -22.725000 7.874016
vt -22.725000 5.905512
vt -13.069020 7.874016
vt 22.725000 7.874016
vt 13.069020 5.905512
vt 22.725000 5.905512
vt 13.069020 7.874016
vt 41.538849 7.874016
vt 31.882870 5.905512
vt 41.538849 5.905512
vt 31.882870 7.874016
vt 17.575140 7.874016
vt 18.218880 5.905512
vt 18.218880 7.874016
vt 17.575140 5.905512
vt 30.611010 7.874016
vt 31.254740 5.905512
vt 31.254740 7.874016
vt 30.611010 5.905512
vt 24.303749 7.874016
vt 24.947479 5.905512
vt 24.947479 7.874016
vt 24.303749 5.905512
vt 36.388988 7.874016
vt 37.032719 5.905512
vt 37.032719 7.874016
vt 36.388988 5.905512
vt -10.540310 7.874016
vt -11.184050 5.905512
vt -10.540310 5.905512
vt -11.184050 7.874016
vt 3.319630 7.874016
vt 3.963362 5.905512
vt 3.963362 7.874016
vt 3.319630 5.905512
vt -17.575140 7.874016
vt -18.218880 5.905512
vt -17.575140 5.905512
vt -18.218880 7.874016
vt -24.303749 7.874016
vt -24.947479 5.905512
vt -24.303749 5.905512
vt -24.947479 7.874016
vt 10.540310 7.874016
vt 11.184050 5.905512
vt 11.184050 7.874016
vt 10.540310 5.905512
vt -30.611010 7.874016
vt -31.254740 5.905512
vt -30.611010 5.905512
vt -31.254740 7.874016
vt -36.388988 7.874016
vt -37.032719 5.905512
vt -36.388988 5.905512
vt -37.032719 7.874016
vt -3.319630 7.874016
vt -3.963362 5.905512
vt -3.319630 5.905512
vt -3.963362 7.874016
vt 34.448818 -39.370079
vt 30.831551 -38.245960
vt 30.757870 -39.370079
vt 31.051331 -37.141079
vt 31.413441 -36.074329
vt 31.911690 -35.063980
vt 32.537560 -34.127300
vt 33.280331 -33.280331
vt 34.127300 -32.537560
vt 34.490921 -38.727730
vt 35.063980 -31.911690
vt 34.616508 -38.096359
vt 34.823429 -37.486790
vt 35.108139 -36.909451
vt 36.074329 -31.413441
vt 35.465778 -36.374210
vt 35.890221 -35.890221
vt 36.374210 -35.465778
vt 37.141079 -31.051331
vt 36.909451 -35.108139
vt 37.486790 -34.823429
vt 38.245960 -30.831551
vt 38.096359 -34.616508
vt 38.727730 -34.490921
vt 39.370079 -30.757870
vt 39.370079 -34.448818
vt -30.757870 -39.370079
vt -33.817291 -29.734779
vt -34.448818 -39.370079
vt -31.933500 -20.264339
vt -30.157921 -30.216539
vt -28.829691 -11.120810
vt -28.368320 -21.219629
vt -24.558960 -2.460630
vt -25.419701 -12.533270
vt -21.362511 -4.306102
vt -19.194389 5.568019
vt -16.266171 3.321114
vt -12.827760 12.827760
vt -10.217870 10.217870
vt -5.568019 19.194389
vt -3.321114 16.266171
vt 2.460630 24.558960
vt 4.306102 21.362511
vt 11.120810 28.829691
vt 12.533270 25.419701
vt 20.264339 31.933500
vt 21.219629 28.368320
vt 29.734779 33.817291
vt 30.216539 30.157921
vt 39.370079 34.448818
vt 39.370079 30.757870
vt -39.370079 39.370079
vt -39.370079 -39.370079
vt 39.370079 39.370079
vt 39.370079 -39.370079
vt -39.370079 3.937008
vt -34.448818 5.905512
vt -39.370079 7.874016
vt 39.370079 3.937008
vt -30.757870 5.905512
vt 30.757870 5.905512
vt 34.448818 5.905512
vt 34.448818 7.874016
vt 39.370079 7.874016
vt -34.448818 7.874016
vt -39.370079 0.000000
vt 39.370079 0.000000
s 0
usemtl dirtDark.012
f 3/1/1 2/2/2 1/3/2
f 2/2/2 3/1/1 4/4/1
f 5/5/3 4/6/1 3/7/1
f 4/6/1 5/5/3 6/8/3
f 7/9/4 6/10/3 5/11/3
f 6/10/3 7/9/4 8/12/4
f 11/13/5 10/14/6 9/15/5
f 10/14/6 11/13/5 12/16/6
f 15/17/7 14/18/8 13/19/8
f 14/18/8 15/17/7 16/20/7
f 19/21/9 18/22/10 17/23/10
f 18/22/10 19/21/9 20/24/9
f 17/25/11 22/26/12 21/27/12
f 22/26/12 17/25/11 18/28/11
f 14/29/13 19/30/9 13/31/13
f 19/30/9 14/29/13 20/32/9
f 24/33/14 9/34/5 23/35/14
f 9/34/5 24/33/14 11/36/5
f 21/37/12 8/38/4 7/39/4
f 8/38/4 21/37/12 22/40/12
f 12/41/6 15/42/7 10/43/6
f 15/42/7 12/41/6 16/44/7
f 26/45/15 23/46/14 25/47/15
f 23/46/14 26/45/15 24/48/14
f 29/49/16 28/50/17 27/51/17
f 28/50/17 29/49/16 30/52/16
f 33/53/18 32/54/19 31/55/19
f 32/54/19 33/53/18 34/56/18
f 27/57/17 34/58/18 33/59/18
f 34/58/18 27/57/17 28/60/17
f 31/61/19 36/62/20 35/63/20
f 36/62/20 31/61/19 32/64/19
f 39/65/21 38/66/22 37/67/21
f 38/66/22 39/65/23 40/68/22
f 43/69/24 42/70/25 41/71/25
f 42/70/26 43/69/24 44/72/24
f 40/73/22 45/74/27 38/75/22
f 45/74/27 40/73/22 46/76/27
f 46/77/27 47/78/28 45/79/27
f 47/78/28 46/77/27 48/80/28
f 41/81/29 30/82/16 29/83/16
f 30/82/16 41/81/29 42/84/29
f 48/85/28 49/86/30 47/87/28
f 49/86/31 48/85/28 50/88/31
f 50/89/31 51/90/32 49/91/31
f 51/90/32 50/89/31 52/92/32
f 43/93/24 37/94/33 44/95/24
f 37/94/33 43/93/24 39/96/33
f 36/97/34 54/98/34 53/99/34
f 54/98/34 36/97/34 55/100/34
f 55/100/34 36/97/34 56/101/34
f 56/101/34 36/97/34 57/102/34
f 57/102/34 36/97/34 58/103/34
f 58/103/34 36/97/34 59/104/34
f 59/104/34 36/97/34 60/105/34
f 60/105/34 36/97/34 32/106/34
f 60/105/34 32/106/34 61/107/34
f 61/107/34 32/106/34 34/108/34
f 61/107/34 34/108/34 28/109/34
f 61/107/34 28/109/34 30/110/34
f 61/107/34 30/110/34 62/111/34
f 62/111/34 30/110/34 42/112/34
f 62/111/34 42/112/34 44/113/34
f 62/111/34 44/113/34 37/114/34
f 62/111/34 37/114/34 63/115/34
f 63/115/34 37/114/34 38/116/34
f 63/115/34 38/116/34 45/117/34
f 63/115/34 45/117/34 64/118/34
f 64/118/34 45/117/34 47/119/34
f 64/118/34 47/119/34 49/120/34
f 64/118/34 49/120/34 65/121/34
f 65/121/34 49/120/34 51/122/34
f 66/123/34 3/124/34 1/125/34
f 3/124/34 66/123/34 5/126/34
f 5/126/34 66/123/34 67/127/34
f 5/126/34 67/127/34 7/128/34
f 7/128/34 67/127/34 68/129/34
f 7/128/34 68/129/34 21/130/34
f 21/130/34 68/129/34 69/131/34
f 21/130/34 69/131/34 70/132/34
f 21/130/34 70/132/34 17/133/34
f 17/133/34 70/132/34 71/134/34
f 17/133/34 71/134/34 19/135/34
f 19/135/34 71/134/34 72/136/34
f 19/135/34 72/136/34 13/137/34
f 13/137/34 72/136/34 73/138/34
f 13/137/34 73/138/34 15/139/34
f 15/139/34 73/138/34 74/140/34
f 15/139/34 74/140/34 10/141/34
f 10/141/34 74/140/34 75/142/34
f 10/141/34 75/142/34 9/143/34
f 9/143/34 75/142/34 76/144/34
f 9/143/34 76/144/34 23/145/34
f 23/145/34 76/144/34 77/146/34
f 23/145/34 77/146/34 25/147/34
f 25/147/34 77/146/34 78/148/34
usemtl foliage.028
f 2/125/34 80/149/34 79/150/34
f 80/149/34 2/125/34 4/124/34
f 80/149/34 4/124/34 6/126/34
f 80/149/34 6/126/34 8/128/34
f 80/149/34 8/128/34 22/130/34
f 80/149/34 22/130/34 18/133/34
f 80/149/34 18/133/34 20/135/34
f 80/149/34 20/135/34 14/137/34
f 80/149/34 14/137/34 16/139/34
f 80/149/34 16/139/34 12/141/34
f 80/149/34 12/141/34 81/151/34
f 81/151/34 12/141/34 11/143/34
f 81/151/34 11/143/34 24/145/34
f 81/151/34 24/145/34 26/147/34
f 82/152/34 31/106/34 35/97/34
f 31/106/34 82/152/34 33/108/34
f 33/108/34 82/152/34 27/109/34
f 27/109/34 82/152/34 29/110/34
f 29/110/34 82/152/34 41/112/34
f 41/112/34 82/152/34 43/113/34
f 43/113/34 82/152/34 39/114/34
f 39/114/34 82/152/34 40/116/34
f 40/116/34 82/152/34 46/117/34
f 46/117/34 82/152/34 48/119/34
f 48/119/34 82/152/34 50/120/34
f 50/120/34 82/152/34 52/122/34
f 83/153/35 51/154/35 82/155/35
f 51/154/35 83/153/35 84/156/35
f 51/154/35 84/156/35 65/157/35
f 65/157/35 84/156/35 78/158/35
f 78/158/35 84/156/35 25/159/35
f 25/159/35 84/156/35 26/160/35
f 26/160/35 84/156/35 81/161/35
f 52/162/35 82/155/35 51/154/35
f 80/161/36 84/153/36 85/156/36
f 84/153/36 80/161/36 81/155/36
f 80/155/37 86/156/37 79/161/37
f 86/156/37 80/155/37 85/153/37
f 83/156/38 36/159/38 86/153/38
f 36/159/38 83/156/38 82/161/38
f 36/159/38 82/161/38 35/160/38
f 1/154/38 86/153/38 36/159/38
f 86/153/38 1/154/38 79/155/38
f 1/154/38 36/159/38 53/158/38
f 1/154/38 53/158/38 66/157/38
f 79/155/38 1/154/38 2/162/38
usemtl dirt.029
f 89/149/39 88/152/39 87/151/39
f 88/152/39 89/149/39 90/150/39
f 83/156/38 88/163/38 90/164/38
f 88/163/38 83/156/38 86/153/38
f 89/164/35 83/153/35 90/163/35
f 83/153/35 89/164/35 84/156/35
f 85/156/36 89/163/36 87/164/36
f 89/163/36 85/156/36 84/153/36
f 85/153/37 88/164/37 86/156/37
f 88/164/37 85/153/37 87/163/37
f 53/99/34 67/127/34 66/123/34
f 67/127/34 53/99/34 68/129/34
f 68/129/34 53/99/34 69/131/34
f 69/131/34 53/99/34 70/132/34
f 70/132/34 53/99/34 71/134/34
f 71/134/34 53/99/34 72/136/34
f 72/136/34 53/99/34 73/138/34
f 73/138/34 53/99/34 74/140/34
f 74/140/34 53/99/34 75/142/34
f 75/142/34 53/99/34 76/144/34
f 76/144/34 53/99/34 77/146/34
f 77/146/34 53/99/34 54/98/34
f 77/146/34 54/98/34 78/148/34
f 78/148/34 54/98/34 55/100/34
f 78/148/34 55/100/34 56/101/34
f 78/148/34 56/101/34 57/102/34
f 78/148/34 57/102/34 58/103/34
f 78/148/34 58/103/34 59/104/34
f 78/148/34 59/104/34 60/105/34
f 78/148/34 60/105/34 61/107/34
f 78/148/34 61/107/34 62/111/34
f 78/148/34 62/111/34 63/115/34
f 78/148/34 63/115/34 64/118/34
f 78/148/34 64/118/34 65/121/34
