# Blender 4.1.1
# www.blender.org
mtllib tile.mtl
o tile
v 0.500000 0.500000 0.000000
v 0.500000 -0.500000 0.000000
v -0.500000 0.500000 0.000000
v -0.500000 -0.500000 0.000000
v 0.500000 -0.500000 -0.100000
v 0.500000 0.500000 -0.100000
v -0.500000 0.500000 -0.100000
v -0.500000 -0.500000 -0.100000
v 0.500000 -0.500000 -0.200000
v 0.500000 0.500000 -0.200000
v -0.500000 -0.500000 -0.200000
v -0.500000 0.500000 -0.200000
vn -0.0000 -0.0000 1.0000
vn 1.0000 -0.0000 -0.0000
vn -0.0000 1.0000 -0.0000
vn -1.0000 -0.0000 -0.0000
vn -0.0000 -1.0000 -0.0000
vn -0.0000 -0.0000 -1.0000
vt -19.685040 19.685040
vt 19.685040 -19.685040
vt 19.685040 19.685040
vt -19.685040 -19.685040
vt -19.685040 3.937008
vt 19.685040 0.000000
vt 19.685040 3.937008
vt -19.685040 0.000000
vt -19.685040 7.874016
vt 19.685040 7.874016
s 0
usemtl dirt.033
f 3/1/1 2/2/1 1/3/1
f 2/2/1 3/1/1 4/4/1
f 6/5/2 2/6/2 5/7/2
f 2/6/2 6/5/2 1/8/2
f 6/7/3 3/8/3 1/6/3
f 3/8/3 6/7/3 7/5/3
f 3/6/4 8/5/4 4/8/4
f 8/5/4 3/6/4 7/7/4
f 8/7/5 2/8/5 4/6/5
f 2/8/5 8/7/5 5/5/5
usemtl foliage.032
f 11/2/6 10/1/6 9/4/6
f 10/1/6 11/2/6 12/3/6
f 10/9/2 5/7/2 9/10/2
f 5/7/2 10/9/2 6/5/2
f 11/10/5 5/5/5 8/7/5
f 5/5/5 11/10/5 9/9/5
f 7/7/4 11/9/4 8/5/4
f 11/9/4 7/7/4 12/10/4
f 10/10/3 7/5/3 6/7/3
f 7/5/3 10/10/3 12/9/3
