# Blender 4.1.1
# www.blender.org
mtllib tile_bump.mtl
o tile_bump
v -0.375000 -0.085476 -0.297187
v -0.500000 -0.085476 -0.297187
v -0.375000 -0.170583 -0.288760
v -0.500000 -0.170583 -0.288760
v -0.375000 -0.254951 -0.274755
v -0.500000 -0.254951 -0.274755
v -0.375000 -0.338216 -0.255233
v -0.500000 -0.338216 -0.255233
v -0.375000 -0.420017 -0.230279
v -0.500000 -0.420017 -0.230279
v -0.375000 0.254951 -0.274755
v -0.500000 0.254951 -0.274755
v -0.375000 0.170583 -0.288760
v -0.500000 0.170583 -0.288760
v -0.375000 0.338216 -0.255233
v -0.500000 0.338216 -0.255233
v -0.375000 0.085476 -0.297187
v -0.500000 0.085476 -0.297187
v -0.375000 0.420017 -0.230279
v -0.500000 0.420017 -0.230279
v -0.375000 0.000000 -0.300000
v -0.500000 0.000000 -0.300000
v -0.375000 -0.500000 -0.200000
v -0.500000 -0.500000 -0.200000
v -0.375000 0.500000 -0.200000
v -0.500000 0.500000 -0.200000
v -0.500000 0.500000 -0.100000
v 0.375000 0.500000 -0.150000
v 0.500000 0.500000 -0.100000
v 0.500000 0.500000 -0.200000
v 0.375000 0.500000 -0.200000
v -0.375000 0.500000 -0.150000
v 0.281250 0.500000 -0.150000
v -0.281250 0.500000 -0.150000
v 0.500000 -0.500000 -0.100000
v -0.375000 -0.500000 -0.150000
v -0.500000 -0.500000 -0.100000
v 0.375000 -0.500000 -0.150000
v 0.500000 -0.500000 -0.200000
v -0.281250 -0.500000 -0.150000
v 0.281250 -0.500000 -0.150000
v 0.375000 -0.500000 -0.200000
v 0.500000 0.338216 -0.255233
v 0.375000 0.338216 -0.255233
v 0.500000 0.254951 -0.274755
v 0.375000 0.254951 -0.274755
v 0.500000 0.420017 -0.230279
v 0.375000 0.420017 -0.230279
v 0.500000 0.170583 -0.288760
v 0.375000 0.170583 -0.288760
v 0.500000 0.085476 -0.297187
v 0.375000 0.085476 -0.297187
v 0.500000 -0.000000 -0.300000
v 0.375000 -0.000000 -0.300000
v 0.500000 -0.085476 -0.297187
v 0.375000 -0.085476 -0.297187
v 0.500000 -0.420017 -0.230279
v 0.375000 -0.420017 -0.230279
v 0.500000 -0.420017 -0.130279
v 0.500000 -0.338216 -0.255233
v 0.500000 -0.338216 -0.155233
v 0.500000 -0.254951 -0.274755
v 0.500000 -0.254951 -0.174755
v 0.500000 -0.170583 -0.288760
v 0.500000 -0.170583 -0.188760
v 0.500000 -0.085476 -0.197187
v 0.500000 -0.000000 -0.200000
v 0.500000 0.085476 -0.197187
v 0.500000 0.170583 -0.188760
v 0.500000 0.254951 -0.174755
v 0.500000 0.338216 -0.155233
v 0.500000 0.420017 -0.130279
v 0.375000 -0.170583 -0.288760
v 0.375000 -0.254951 -0.274755
v 0.375000 -0.338216 -0.255233
v -0.500000 -0.420017 -0.130279
v -0.500000 -0.338216 -0.155233
v -0.500000 -0.254951 -0.174755
v -0.500000 -0.170583 -0.188760
v -0.500000 -0.085476 -0.197187
v -0.500000 0.000000 -0.200000
v -0.500000 0.085476 -0.197187
v -0.500000 0.170583 -0.188760
v -0.500000 0.254951 -0.174755
v -0.500000 0.338216 -0.155233
v -0.500000 0.420017 -0.130279
v -0.281250 0.170583 -0.238760
v -0.375000 0.170583 -0.238760
v -0.281250 0.085476 -0.247187
v -0.375000 0.085476 -0.247187
v -0.281250 0.000000 -0.250000
v -0.375000 0.000000 -0.250000
v -0.281250 -0.085476 -0.247187
v -0.375000 -0.085476 -0.247187
v -0.281250 0.254951 -0.224755
v -0.375000 0.254951 -0.224755
v -0.281250 -0.170583 -0.238760
v -0.375000 -0.170583 -0.238760
v -0.281250 -0.254951 -0.224755
v -0.375000 -0.254951 -0.224755
v -0.281250 -0.338216 -0.205233
v -0.375000 -0.338216 -0.205233
v -0.375000 -0.420017 -0.180279
v -0.375000 -0.355370 -0.200000
v -0.375000 0.338216 -0.205233
v -0.375000 0.355370 -0.200000
v -0.375000 0.420017 -0.180279
v -0.281250 -0.420017 -0.180279
v -0.281250 0.420017 -0.180279
v 0.375000 -0.420017 -0.180279
v 0.375000 -0.355370 -0.200000
v 0.375000 -0.338216 -0.205233
v 0.375000 -0.254951 -0.224755
v 0.375000 -0.170583 -0.238760
v 0.375000 -0.085476 -0.247187
v 0.375000 -0.000000 -0.250000
v 0.375000 0.085476 -0.247187
v 0.375000 0.170583 -0.238760
v 0.375000 0.254951 -0.224755
v 0.375000 0.338216 -0.205233
v 0.375000 0.355370 -0.200000
v 0.375000 0.420017 -0.180279
v -0.281250 -0.355370 -0.200000
v -0.281250 0.355370 -0.200000
v -0.281250 0.338216 -0.205233
v 0.281250 0.420017 -0.180279
v 0.281250 0.355370 -0.200000
v 0.281250 0.338216 -0.205233
v 0.281250 0.170583 -0.238760
v 0.281250 0.085476 -0.247187
v 0.281250 0.254951 -0.224755
v 0.281250 0.000000 -0.250000
v 0.281250 -0.085476 -0.247187
v 0.281250 -0.170583 -0.238760
v 0.281250 -0.338216 -0.205233
v 0.281250 -0.420017 -0.180279
v 0.281250 -0.355370 -0.200000
v 0.281250 -0.254951 -0.224755
v 0.500000 0.500000 0.000000
v 0.500000 -0.500000 0.000000
v -0.500000 0.500000 0.000000
v -0.500000 -0.500000 0.000000
vn -0.0000 -0.1312 -0.9914
vn -0.0000 -0.0658 -0.9978
vn -0.0000 -0.1961 -0.9806
vn -0.0000 -0.2602 -0.9656
vn -0.0000 -0.3231 -0.9464
vn -0.0000 0.1312 -0.9914
vn -0.0000 0.1961 -0.9806
vn -0.0000 0.2602 -0.9656
vn -0.0000 0.0658 -0.9978
vn -0.0000 0.3231 -0.9464
vn -0.0000 -0.0000 -1.0000
vn -0.0000 0.0657 -0.9978
vn -0.0000 -0.0657 -0.9978
vn -0.0000 -0.3540 -0.9352
vn -0.0000 0.3540 -0.9352
vn -0.0000 1.0000 -0.0000
vn -0.0000 -1.0000 -0.0000
vn 1.0000 -0.0000 -0.0000
vn -1.0000 -0.0000 -0.0000
vn -0.0000 -0.2918 -0.9565
vn -0.0000 -0.2602 -0.9655
vn -0.0000 -0.3230 -0.9464
vn -0.0000 0.2918 -0.9565
vn -0.0000 -0.2917 -0.9565
vn 0.0001 -0.2602 -0.9656
vn 0.0001 -0.3231 -0.9464
vn -0.0000 -0.0000 1.0000
vt 14.763780 -5.562951
vt 19.685040 -2.195917
vt 14.763780 -2.195917
vt 19.685040 -5.562951
vt 14.763780 -8.130582
vt 19.685040 -4.763548
vt 14.763780 -4.763548
vt 19.685040 -8.130582
vt 14.763780 -10.670310
vt 19.685040 -7.303277
vt 14.763780 -7.303277
vt 19.685040 -10.670310
vt 14.763780 -13.171150
vt 19.685040 -9.804112
vt 14.763780 -9.804112
vt 19.685040 -13.171150
vt -14.763780 -4.763548
vt -19.685040 -8.130582
vt -14.763780 -8.130582
vt -19.685040 -4.763548
vt -14.763780 -7.303277
vt -19.685040 -10.670310
vt -14.763780 -10.670310
vt -19.685040 -7.303277
vt -14.763780 -2.195917
vt -19.685040 -5.562951
vt -14.763780 -5.562951
vt -19.685040 -2.195917
vt -14.763780 -9.804112
vt -19.685040 -13.171150
vt -14.763780 -13.171150
vt -19.685040 -9.804112
vt -14.763780 0.388504
vt -19.685040 -2.978529
vt -14.763780 -2.978529
vt -19.685040 0.388504
vt 14.763780 -2.978529
vt 19.685040 0.388504
vt 14.763780 0.388504
vt 19.685040 -2.978529
vt 14.763780 -15.622260
vt 19.685040 -12.255230
vt 14.763780 -12.255230
vt 19.685040 -15.622260
vt -14.763780 -12.255230
vt -19.685040 -15.622260
vt -14.763780 -15.622260
vt -19.685040 -12.255230
vt 19.685040 3.937008
vt 14.763780 5.905512
vt -19.685040 3.937008
vt 19.685040 7.874016
vt 14.763780 7.874016
vt -14.763780 5.905512
vt -19.685040 7.874016
vt 11.072830 5.905512
vt -11.072830 5.905512
vt -14.763780 7.874016
vt 16.536091 9.066094
vt 16.536091 5.129086
vt 13.315580 10.048550
vt 13.315580 6.111539
vt 10.037440 10.817120
vt 10.037440 6.880113
vt 6.715858 11.368490
vt 6.715858 7.431483
vt 3.365211 11.700270
vt 3.365211 7.763263
vt 0.000000 11.811020
vt 0.000000 7.874016
vt -3.365211 11.700270
vt -3.365211 7.763263
vt -6.715858 11.368490
vt -6.715858 7.431483
vt -10.037440 10.817120
vt -10.037440 6.880113
vt -13.315580 10.048550
vt -13.315580 6.111539
vt -16.536091 9.066094
vt -16.536091 5.129086
vt -0.000000 7.874016
vt -0.000000 11.811020
vt -11.072830 -2.389889
vt -14.763780 -5.756922
vt -11.072830 -5.756922
vt -14.763780 -2.389889
vt 11.072830 -3.043280
vt 14.763780 0.323753
vt 11.072830 0.323753
vt 14.763780 -3.043280
vt -11.072830 -5.085902
vt -14.763780 -8.452935
vt -11.072830 -8.452935
vt -14.763780 -5.085902
vt 11.072830 -8.452935
vt 14.763780 -5.085902
vt 11.072830 -5.085902
vt 14.763780 -8.452935
vt 11.072830 -11.119650
vt 14.763780 -7.752617
vt 11.072830 -7.752617
vt 14.763780 -11.119650
vt -11.072830 0.323753
vt -14.763780 -3.043280
vt -11.072830 -3.043280
vt -14.763780 0.323753
vt 11.072830 -5.756922
vt 14.763780 -2.389889
vt 11.072830 -2.389889
vt 14.763780 -5.756922
vt 19.685040 5.905512
vt 16.536091 7.097590
vt 13.990940 7.874016
vt 13.315580 8.080043
vt 10.037440 8.848618
vt 6.715858 9.399987
vt 3.365211 9.731767
vt 0.000000 11.811020
vt 0.000000 9.842520
vt -3.365211 9.731767
vt -6.715858 9.399987
vt -10.037440 8.848618
vt -13.315580 8.080043
vt -13.990940 7.874016
vt -16.536091 7.097590
vt -19.685040 5.905512
vt 11.072830 -16.319201
vt 14.763780 -12.952170
vt 11.072830 -12.952170
vt 14.763780 -16.319201
vt -11.072830 -12.952170
vt -14.763780 -16.319201
vt -11.072830 -16.319201
vt -14.763780 -12.952170
vt -0.000000 9.842520
vt -0.000000 11.811020
vt 11.072830 -11.084580
vt 14.763780 -10.378490
vt 11.072830 -10.378490
vt 11.072830 -13.745530
vt 14.763780 -13.745530
vt 14.763780 -11.084580
vt -11.072830 -11.084580
vt -14.763780 -13.745530
vt -11.072830 -13.745530
vt -11.072830 -10.378490
vt -14.763780 -11.084580
vt -14.763780 -10.378490
vt -11.072830 -7.752617
vt -14.763780 -11.119650
vt -11.072830 -11.119650
vt -14.763780 -7.752617
vt -19.685040 19.685040
vt 19.685040 -19.685040
vt 19.685040 19.685040
vt -19.685040 -19.685040
vt -19.685040 0.000000
vt 19.685040 0.000000
s 0
usemtl foliage.033
f 3/1/1 2/2/2 1/3/2
f 2/2/2 3/1/1 4/4/1
f 5/5/3 4/6/1 3/7/1
f 4/6/1 5/5/3 6/8/3
f 7/9/4 6/10/3 5/11/3
f 6/10/3 7/9/4 8/12/4
f 9/13/5 8/14/4 7/15/4
f 8/14/4 9/13/5 10/16/5
f 13/17/6 12/18/7 11/19/7
f 12/18/7 13/17/6 14/20/6
f 11/21/7 16/22/8 15/23/8
f 16/22/8 11/21/7 12/24/7
f 17/25/9 14/26/6 13/27/6
f 14/26/6 17/25/9 18/28/9
f 15/29/8 20/30/10 19/31/10
f 20/30/10 15/29/8 16/32/8
f 21/33/11 18/34/12 17/35/12
f 18/34/12 21/33/11 22/36/11
f 1/37/13 22/38/11 21/39/11
f 22/38/11 1/37/13 2/40/13
f 23/41/14 10/42/5 9/43/5
f 10/42/5 23/41/14 24/44/14
f 19/45/10 26/46/15 25/47/15
f 26/46/15 19/45/10 20/48/10
f 29/49/16 28/50/16 27/51/16
f 28/50/16 29/49/16 30/52/16
f 28/50/16 30/52/16 31/53/16
f 32/54/16 27/51/16 28/50/16
f 27/51/16 32/54/16 26/55/16
f 32/54/16 28/50/16 33/56/16
f 32/54/16 33/56/16 34/57/16
f 26/55/16 32/54/16 25/58/16
f 37/49/17 36/50/17 35/51/17
f 36/50/17 37/49/17 24/52/17
f 36/50/17 24/52/17 23/53/17
f 38/54/17 35/51/17 36/50/17
f 35/51/17 38/54/17 39/55/17
f 38/54/17 36/50/17 40/56/17
f 38/54/17 40/56/17 41/57/17
f 39/55/17 38/54/17 42/58/17
f 45/10/7 44/9/8 43/12/8
f 44/9/8 45/10/7 46/11/7
f 47/42/10 31/41/15 30/44/15
f 31/41/15 47/42/10 48/43/10
f 43/14/8 48/13/10 47/16/10
f 48/13/10 43/14/8 44/15/8
f 49/6/6 46/5/7 45/8/7
f 46/5/7 49/6/6 50/7/6
f 51/2/9 50/1/6 49/4/6
f 50/1/6 51/2/9 52/3/9
f 55/34/13 54/33/11 53/36/11
f 54/33/11 55/34/13 56/35/13
f 39/46/14 58/45/5 57/48/5
f 58/45/5 39/46/14 42/47/14
f 57/59/18 35/49/18 39/52/18
f 35/49/18 57/59/18 59/60/18
f 59/60/18 57/59/18 60/61/18
f 59/60/18 60/61/18 61/62/18
f 61/62/18 60/61/18 62/63/18
f 61/62/18 62/63/18 63/64/18
f 63/64/18 62/63/18 64/65/18
f 63/64/18 64/65/18 65/66/18
f 65/66/18 64/65/18 55/67/18
f 65/66/18 55/67/18 66/68/18
f 66/68/18 55/67/18 53/69/18
f 66/68/18 53/69/18 67/70/18
f 67/70/18 53/69/18 51/71/18
f 67/70/18 51/71/18 68/72/18
f 68/72/18 51/71/18 49/73/18
f 68/72/18 49/73/18 69/74/18
f 69/74/18 49/73/18 45/75/18
f 69/74/18 45/75/18 70/76/18
f 70/76/18 45/75/18 43/77/18
f 70/76/18 43/77/18 71/78/18
f 71/78/18 43/77/18 47/79/18
f 71/78/18 47/79/18 72/80/18
f 72/80/18 47/79/18 30/55/18
f 72/80/18 30/55/18 29/51/18
f 62/18/3 73/17/1 64/20/1
f 73/17/1 62/18/3 74/19/3
f 57/30/5 75/29/4 60/32/4
f 75/29/4 57/30/5 58/31/5
f 76/80/19 24/55/19 37/51/19
f 24/55/19 76/80/19 10/79/19
f 10/79/19 76/80/19 77/78/19
f 10/79/19 77/78/19 8/77/19
f 8/77/19 77/78/19 78/76/19
f 8/77/19 78/76/19 6/75/19
f 6/75/19 78/76/19 79/74/19
f 6/75/19 79/74/19 4/73/19
f 4/73/19 79/74/19 80/72/19
f 4/73/19 80/72/19 2/71/19
f 2/71/19 80/72/19 81/81/19
f 2/71/19 81/81/19 22/82/19
f 22/82/19 81/81/19 82/68/19
f 22/82/19 82/68/19 18/67/19
f 18/67/19 82/68/19 83/66/19
f 18/67/19 83/66/19 14/65/19
f 14/65/19 83/66/19 84/64/19
f 14/65/19 84/64/19 12/63/19
f 12/63/19 84/64/19 85/62/19
f 12/63/19 85/62/19 16/61/19
f 16/61/19 85/62/19 86/60/19
f 16/61/19 86/60/19 20/59/19
f 20/59/19 86/60/19 27/49/19
f 20/59/19 27/49/19 26/52/19
f 60/22/4 74/21/3 62/24/3
f 74/21/3 60/22/4 75/23/4
f 53/38/11 52/37/12 51/40/12
f 52/37/12 53/38/11 54/39/11
f 64/26/1 56/25/2 55/28/2
f 56/25/2 64/26/1 73/27/1
usemtl dirtDark.016
f 89/83/9 88/84/6 87/85/6
f 88/84/6 89/83/9 90/86/9
f 93/87/13 92/88/11 91/89/11
f 92/88/11 93/87/13 94/90/13
f 87/91/6 96/92/7 95/93/7
f 96/92/7 87/91/6 88/94/6
f 99/95/3 98/96/1 97/97/1
f 98/96/1 99/95/3 100/98/3
f 101/99/4 100/100/3 99/101/3
f 100/100/3 101/99/4 102/102/4
f 91/103/11 90/104/12 89/105/12
f 90/104/12 91/103/11 92/106/11
f 97/107/1 94/108/2 93/109/2
f 94/108/2 97/107/1 98/110/1
f 9/59/18 36/111/18 23/52/18
f 36/111/18 9/59/18 103/112/18
f 103/112/18 9/59/18 7/61/18
f 103/112/18 7/61/18 104/113/18
f 104/113/18 7/61/18 102/114/18
f 102/114/18 7/61/18 5/63/18
f 102/114/18 5/63/18 100/115/18
f 100/115/18 5/63/18 3/65/18
f 100/115/18 3/65/18 98/116/18
f 98/116/18 3/65/18 1/67/18
f 98/116/18 1/67/18 94/117/18
f 94/117/18 1/67/18 21/118/18
f 94/117/18 21/118/18 92/119/18
f 92/119/18 21/118/18 17/71/18
f 92/119/18 17/71/18 90/120/18
f 90/120/18 17/71/18 13/73/18
f 90/120/18 13/73/18 88/121/18
f 88/121/18 13/73/18 11/75/18
f 88/121/18 11/75/18 96/122/18
f 96/122/18 11/75/18 15/77/18
f 96/122/18 15/77/18 105/123/18
f 105/123/18 15/77/18 19/79/18
f 105/123/18 19/79/18 106/124/18
f 106/124/18 19/79/18 107/125/18
f 107/125/18 19/79/18 25/55/18
f 107/125/18 25/55/18 32/126/18
f 40/127/14 103/128/5 108/129/5
f 103/128/5 40/127/14 36/130/14
f 109/131/10 32/132/15 34/133/15
f 32/132/15 109/131/10 107/134/10
f 110/125/19 42/55/19 38/126/19
f 42/55/19 110/125/19 58/79/19
f 58/79/19 110/125/19 111/124/19
f 58/79/19 111/124/19 75/77/19
f 75/77/19 111/124/19 112/123/19
f 75/77/19 112/123/19 113/122/19
f 75/77/19 113/122/19 74/75/19
f 74/75/19 113/122/19 114/121/19
f 74/75/19 114/121/19 73/73/19
f 73/73/19 114/121/19 115/120/19
f 73/73/19 115/120/19 56/71/19
f 56/71/19 115/120/19 116/135/19
f 56/71/19 116/135/19 54/136/19
f 54/136/19 116/135/19 117/117/19
f 54/136/19 117/117/19 52/67/19
f 52/67/19 117/117/19 118/116/19
f 52/67/19 118/116/19 50/65/19
f 50/65/19 118/116/19 119/115/19
f 50/65/19 119/115/19 46/63/19
f 46/63/19 119/115/19 120/114/19
f 46/63/19 120/114/19 44/61/19
f 44/61/19 120/114/19 121/113/19
f 44/61/19 121/113/19 48/59/19
f 48/59/19 121/113/19 122/112/19
f 48/59/19 122/112/19 28/111/19
f 48/59/19 28/111/19 31/52/19
f 123/137/20 102/138/4 101/139/4
f 102/138/4 123/137/20 108/140/5
f 102/138/4 108/140/5 103/141/5
f 102/138/21 103/141/22 104/142/20
f 124/143/23 107/144/10 109/145/10
f 107/144/10 124/143/23 125/146/8
f 107/144/10 125/146/8 106/147/23
f 106/147/23 125/146/8 105/148/8
f 95/149/7 105/150/8 125/151/8
f 105/150/8 95/149/7 96/152/7
f 121/142/23 126/140/10 122/141/10
f 126/140/10 121/142/23 120/138/8
f 126/140/10 120/138/8 127/137/23
f 127/137/23 120/138/8 128/139/8
f 122/128/10 33/127/15 28/130/15
f 33/127/15 122/128/10 126/129/10
f 117/108/9 129/107/6 118/110/6
f 129/107/6 117/108/9 130/109/9
f 118/96/6 131/95/7 119/98/7
f 131/95/7 118/96/6 129/97/6
f 115/104/13 132/103/11 116/106/11
f 132/103/11 115/104/13 133/105/13
f 114/84/1 133/83/2 115/86/2
f 133/83/2 114/84/1 134/85/1
f 110/144/22 112/148/21 111/147/24
f 112/148/4 110/144/5 135/146/4
f 135/146/4 110/144/5 136/145/5
f 135/146/25 136/145/26 137/143/20
f 38/132/14 136/131/5 110/134/5
f 136/131/5 38/132/14 41/133/14
f 119/100/7 128/99/8 120/102/8
f 128/99/8 119/100/7 131/101/7
f 116/88/11 130/87/12 117/90/12
f 130/87/12 116/88/11 132/89/11
f 113/92/3 134/91/1 114/94/1
f 134/91/1 113/92/3 138/93/3
f 112/150/4 138/149/3 113/152/3
f 138/149/3 112/150/4 135/151/4
usemtl dirt.034
f 141/153/27 140/154/27 139/155/27
f 140/154/27 141/153/27 142/156/27
f 29/49/16 141/157/16 139/158/16
f 141/157/16 29/49/16 27/51/16
f 141/158/19 37/51/19 142/157/19
f 37/51/19 141/158/19 76/80/19
f 76/80/19 141/158/19 77/78/19
f 77/78/19 141/158/19 78/76/19
f 78/76/19 141/158/19 79/74/19
f 79/74/19 141/158/19 80/72/19
f 80/72/19 141/158/19 81/81/19
f 81/81/19 141/158/19 82/68/19
f 82/68/19 141/158/19 83/66/19
f 83/66/19 141/158/19 84/64/19
f 84/64/19 141/158/19 85/62/19
f 85/62/19 141/158/19 86/60/19
f 86/60/19 141/158/19 27/49/19
f 37/49/17 140/157/17 142/158/17
f 140/157/17 37/49/17 35/51/17
f 59/60/18 140/158/18 35/49/18
f 140/158/18 59/60/18 139/157/18
f 139/157/18 59/60/18 61/62/18
f 139/157/18 61/62/18 63/64/18
f 139/157/18 63/64/18 65/66/18
f 139/157/18 65/66/18 66/68/18
f 139/157/18 66/68/18 67/70/18
f 139/157/18 67/70/18 68/72/18
f 139/157/18 68/72/18 69/74/18
f 139/157/18 69/74/18 70/76/18
f 139/157/18 70/76/18 71/78/18
f 139/157/18 71/78/18 72/80/18
f 139/157/18 72/80/18 29/51/18
f 130/109/9 87/85/6 129/107/6
f 87/85/6 130/109/9 89/83/9
f 133/105/13 91/89/11 132/103/11
f 91/89/11 133/105/13 93/87/13
f 138/93/3 97/97/1 134/91/1
f 97/97/1 138/93/3 99/95/3
f 135/151/4 99/101/3 138/149/3
f 99/101/3 135/151/4 101/99/4
f 131/101/7 125/151/8 128/99/8
f 125/151/8 131/101/7 95/149/7
f 129/97/6 95/93/7 131/95/7
f 95/93/7 129/97/6 87/91/6
f 127/137/23 109/145/10 126/140/10
f 109/145/10 127/137/23 128/139/8
f 109/145/10 128/139/8 124/143/23
f 124/143/23 128/139/8 125/146/8
f 126/129/10 34/133/15 33/127/15
f 34/133/15 126/129/10 109/131/10
f 134/85/1 93/109/2 133/83/2
f 93/109/2 134/85/1 97/107/1
f 41/133/14 108/129/5 136/131/5
f 108/129/5 41/133/14 40/127/14
f 137/143/20 101/139/4 135/146/4
f 101/139/4 137/143/20 136/145/5
f 101/139/4 136/145/5 108/140/5
f 101/139/4 108/140/5 123/137/20
f 132/89/11 89/105/12 130/87/12
f 89/105/12 132/89/11 91/103/11
