# Blender 4.1.1
# www.blender.org
mtllib tile_rock.mtl
o tile_rock
v 0.500000 0.500000 0.000000
v 0.500000 -0.500000 0.000000
v -0.500000 0.500000 0.000000
v -0.500000 -0.500000 0.000000
v 0.500000 -0.500000 -0.100000
v 0.500000 0.500000 -0.100000
v -0.500000 0.500000 -0.100000
v -0.500000 -0.500000 -0.100000
v 0.500000 -0.500000 -0.200000
v 0.500000 0.500000 -0.200000
v -0.500000 -0.500000 -0.200000
v -0.500000 0.500000 -0.200000
v -0.368399 0.162009 -0.299166
v -0.288572 0.313556 -0.299166
v -0.444641 0.246582 -0.249583
v 0.297336 0.268426 -0.200000
v 0.068912 0.451414 -0.200000
v 0.282057 0.264643 -0.249583
v 0.068912 0.362786 -0.474272
v 0.174288 0.278370 -0.474272
v 0.118901 -0.249960 -0.356305
v 0.201534 0.030453 -0.356305
v 0.082933 -0.188933 -0.618608
v 0.143337 0.016046 -0.618608
v -0.223830 0.028644 -0.389248
v -0.134716 -0.113673 -0.618608
v -0.134716 0.046669 -0.618608
v -0.221339 -0.088752 -0.233164
v -0.230535 -0.011478 -0.299166
v -0.289195 -0.127580 -0.200000
v -0.317275 -0.011478 -0.299166
v -0.385702 -0.127580 -0.200000
v 0.168701 0.042563 -0.417301
v 0.186182 0.042752 -0.356305
v 0.157851 0.060973 -0.474272
v 0.204894 0.106251 -0.356305
v 0.198102 0.197560 -0.474272
v 0.271742 0.181573 -0.200000
v -0.143989 -0.242295 -0.389248
v -0.112538 -0.188933 -0.618608
v -0.177940 -0.127082 -0.389248
v -0.243816 0.033591 -0.299166
v -0.014892 -0.500000 -0.200000
v 0.005202 -0.431812 -0.200000
v -0.067126 -0.411372 -0.389248
v -0.005898 -0.378307 -0.264894
v -0.017302 -0.242295 -0.389248
v 0.003981 -0.256629 -0.327640
v -0.297239 -0.500000 -0.200000
v -0.288572 -0.485294 -0.231401
v -0.169817 -0.411372 -0.389248
v 0.129175 0.060973 -0.474272
v -0.014802 0.176311 -0.474272
v -0.014802 0.142730 -0.618608
v 0.500000 -0.001282 -0.200000
v 0.377104 -0.031704 -0.356305
v 0.022910 -0.249960 -0.356305
v 0.349035 -0.390931 -0.249583
v 0.335927 -0.171439 -0.356305
v 0.242619 -0.302939 -0.356305
v -0.035601 0.367689 -0.200000
v -0.088066 0.293616 -0.299166
v -0.074995 0.247504 -0.474272
v -0.128954 0.260861 -0.299166
v -0.384490 -0.203919 -0.200000
v -0.299973 -0.224842 -0.389248
v -0.046527 0.150897 -0.474272
v -0.096709 0.151437 -0.299166
v 0.038522 -0.302939 -0.356305
v 0.373129 -0.431812 -0.200000
v -0.268239 -0.332527 -0.389248
v -0.200765 0.500000 -0.200000
v -0.200765 0.383898 -0.299166
v -0.500000 0.260286 -0.200000
vn -0.0000 -0.0000 1.0000
vn 1.0000 -0.0000 -0.0000
vn -0.0000 1.0000 -0.0000
vn -1.0000 -0.0000 -0.0000
vn -0.0000 -1.0000 -0.0000
vn -0.0000 -0.0000 -1.0000
vn -0.3761 0.2225 -0.8995
vn 0.5659 0.7934 -0.2241
vn 0.9324 -0.3086 -0.1883
vn -0.9343 -0.0000 -0.3564
vn -0.9461 -0.2091 -0.2475
vn -0.9411 -0.2573 -0.2194
vn -0.0000 -0.6989 -0.7152
vn 0.9174 -0.3037 -0.2573
vn -0.9324 -0.3086 -0.1883
vn -0.9461 -0.2092 -0.2474
vn -0.9411 -0.2574 -0.2194
vn 0.8857 -0.2932 -0.3600
vn -0.0000 -0.9255 -0.3788
vn 0.5728 0.8032 -0.1633
vn 0.5014 0.7021 -0.5055
vn 0.5008 0.7022 -0.5060
vn 0.5008 0.7022 -0.5061
vn -0.0000 -0.9799 -0.1993
vn 0.4970 -0.3962 -0.7720
vn -0.5659 0.7934 -0.2241
vn -0.5509 0.7724 -0.3162
vn -0.9174 -0.3037 -0.2573
vn -0.7853 -0.2600 -0.5619
vn -0.0000 -0.9624 -0.2718
vn -0.0000 -0.8113 -0.5847
vn 0.7853 -0.2600 -0.5619
vn -0.4618 -0.6475 -0.6062
vn 0.8720 0.2887 -0.3952
vn 0.4461 0.6255 -0.6401
vn -0.8857 -0.2932 -0.3600
vn -0.6832 -0.2262 -0.6943
vn -0.5728 0.8032 -0.1633
vn -0.4461 0.6255 -0.6401
vt -19.685040 19.685040
vt 19.685040 -19.685040
vt 19.685040 19.685040
vt -19.685040 -19.685040
vt -19.685040 3.937008
vt 19.685040 0.000000
vt 19.685040 3.937008
vt -19.685040 0.000000
vt -19.685040 7.874016
vt 19.685040 7.874016
vt -0.530702 -16.843050
vt 4.589383 -12.289180
vt -1.798827 -12.289180
vt 2.904380 -1.477203
vt -7.873757 -3.485173
vt 3.295923 -3.485173
vt -5.906827 7.622085
vt -0.754049 7.622085
vt 5.673161 15.191830
vt -3.413653 4.671364
vt 7.398901 4.671364
vt -2.230709 15.191830
vt 1.717700 13.492230
vt -4.183861 13.492230
vt 1.054257 3.816266
vt 11.281350 -3.466705
vt 8.993060 2.321496
vt 8.634325 -1.530983
vt 12.376750 2.321496
vt 15.046050 -3.466705
vt -3.977879 9.065750
vt -3.667189 4.254854
vt -3.457292 6.742376
vt -6.115696 4.254854
vt -9.244613 9.065750
vt -9.539366 -2.119542
vt -12.888350 -2.119542
vt -12.577780 -0.097465
vt -2.395324 5.782131
vt -5.328867 14.981340
vt -6.837872 5.782131
vt -2.426911 14.981340
vt -0.543980 -0.478105
vt 3.609381 5.782131
vt 2.277810 2.169118
vt 4.015635 2.169118
vt 15.233130 6.203302
vt 15.110090 -1.798227
vt 17.739361 -1.798227
vt 13.359410 0.945549
vt 8.713622 6.203302
vt 8.969686 3.598487
vt 11.257060 -6.031182
vt 0.580920 -7.380744
vt 11.595160 -7.380744
vt 2.618554 0.752749
vt 6.624491 0.752749
vt 4.104563 15.581030
vt 4.845210 5.099831
vt 5.595924 5.099831
vt 4.305398 7.537130
vt 2.666760 9.813596
vt -4.373564 9.813596
vt -3.628292 15.581030
vt 12.439160 1.083348
vt 4.426965 -6.140738
vt 15.588520 -6.140738
vt 4.018283 1.083348
vt 0.674935 5.385073
vt -0.893688 4.057797
vt -0.155290 2.902865
vt -4.638262 4.057797
vt -3.235188 14.626140
vt 5.616919 5.385073
vt 4.390057 14.626140
vt 3.222696 -7.311046
vt -2.833240 -7.311046
vt 3.315994 -14.046550
vt 10.195930 8.381621
vt 7.052287 -2.725637
vt 12.162860 -2.725637
vt 3.775650 1.290303
vt 3.159030 8.381621
vt 1.776264 1.290303
vt -8.857803 0.375205
vt -16.490999 -1.007794
vt -11.831200 -1.007794
vt -14.325150 6.884284
vt -8.357882 6.884284
vt 6.445037 3.263184
vt 9.567557 10.404320
vt 5.842469 10.404320
vt 10.664360 3.263184
vt -9.062277 2.623199
vt -11.090950 3.993928
vt -13.222230 -0.377232
vt -9.048106 3.993928
vt -6.157706 10.985720
vt -6.580957 8.642659
vt -5.039045 10.985720
vt 0.230079 -6.476958
vt -14.555590 -9.702742
vt -0.202929 -9.702742
vt -13.615700 -7.238060
vt -9.464443 -1.933079
vt -1.502708 -1.933079
vt 9.675178 -8.204110
vt -5.769804 -10.575110
vt 10.831220 -10.575110
vt 2.116333 -3.100778
vt -3.271737 -3.100778
vt -1.789804 -12.163440
vt 0.967811 -4.209889
vt -3.844915 -4.209889
vt -7.752898 6.077084
vt -6.017327 -3.575323
vt -4.636908 6.077084
vt -9.256909 -1.367136
vt -17.344410 -6.550186
vt -9.268114 -6.550186
vt -14.767740 -1.367136
vt -2.692686 -6.035913
vt -13.693540 -4.708247
vt -14.109390 -6.035913
vt -8.562946 1.965616
vt -4.410633 1.965616
vt 0.003403 -11.025930
vt 9.976110 -5.562480
vt 3.286567 -5.562480
vt 13.834030 -8.294205
vt 14.959280 -11.025930
vt 2.706985 15.461980
vt 1.900967 9.694544
vt 3.452258 9.694544
vt -3.156647 15.461980
vt -6.329931 6.297111
vt -6.842104 2.697585
vt 0.351283 2.697585
vt -2.021620 -7.579168
vt 4.848766 -12.762220
vt 2.272088 -7.579168
vt -9.783514 -12.762220
vt -8.364882 -10.170690
vt -3.235188 -6.953857
vt 0.577434 5.253335
vt -5.591518 0.590602
vt 4.390057 -6.953857
vt 5.255198 1.717700
vt 5.255198 -4.183861
vt -6.157706 2.244170
vt -6.798893 10.245710
vt -7.727844 7.271411
vt -2.688220 13.352710
vt -5.039045 2.244170
vt 0.577434 6.489322
vt 2.925527 9.109629
vt 1.814990 5.553930
vt 12.376750 -0.422443
vt 9.511147 1.236359
vt 8.993060 -0.422443
vt 11.257060 11.540740
vt 14.371060 5.962908
vt 7.831721 14.129750
vt 5.030440 9.601266
vt 3.772559 5.573805
vt 3.435412 10.806850
vt 2.618554 -15.140980
vt 5.616919 -8.917931
vt 0.674935 -8.917931
vt 6.624491 -15.140980
vt 6.941347 -4.677398
vt 10.463890 -12.239020
vt 11.701790 -8.275522
vt -13.104330 -6.309974
vt -7.992808 3.910681
vt -14.710640 -1.166914
vt -9.464443 -11.149980
vt -7.861739 1.120851
vt -4.638262 -9.200027
vt -1.502708 -11.149980
vt -0.893688 -9.200027
vt -7.262851 1.573514
s 0
usemtl dirt.017
f 3/1/1 2/2/1 1/3/1
f 2/2/1 3/1/1 4/4/1
f 6/5/2 2/6/2 5/7/2
f 2/6/2 6/5/2 1/8/2
f 6/7/3 3/8/3 1/6/3
f 3/8/3 6/7/3 7/5/3
f 3/6/4 8/5/4 4/8/4
f 8/5/4 3/6/4 7/7/4
f 8/7/5 2/8/5 4/6/5
f 2/8/5 8/7/5 5/5/5
f 15/11/7 14/12/7 13/13/7
f 18/14/8 17/15/8 16/16/8
f 17/15/8 18/14/8 19/17/8
f 19/17/8 18/14/8 20/18/8
f 23/19/9 22/20/9 21/21/9
f 22/20/9 23/19/9 24/22/9
f 27/23/10 26/24/11 25/25/12
f 30/26/13 29/27/13 28/28/13
f 29/27/13 30/26/13 31/29/13
f 31/29/13 30/26/13 32/30/13
f 35/31/14 34/32/14 33/33/14
f 34/32/14 35/31/14 36/34/14
f 36/34/14 35/31/14 37/35/14
f 36/34/14 37/35/14 38/36/14
f 38/36/14 37/35/14 16/37/14
f 16/37/14 37/35/14 18/38/14
f 41/39/15 40/40/15 39/41/15
f 40/40/15 41/39/15 26/42/16
f 26/42/16 41/39/15 28/43/15
f 26/42/16 28/43/15 25/44/17
f 25/44/17 28/43/15 29/45/15
f 25/44/17 29/45/15 42/46/15
f 45/47/18 44/48/18 43/49/18
f 44/48/18 45/47/18 46/50/18
f 46/50/18 45/47/18 47/51/18
f 46/50/18 47/51/18 48/52/18
f 50/53/19 43/54/19 49/55/19
f 43/54/19 50/53/19 45/56/19
f 45/56/19 50/53/19 51/57/19
f 24/58/20 34/59/20 22/60/20
f 34/59/20 24/58/20 33/61/20
f 33/61/20 24/58/20 52/62/20
f 52/62/20 24/58/20 53/63/20
f 53/63/20 24/58/20 54/64/20
f 56/65/21 38/66/22 55/67/22
f 38/66/22 56/65/22 36/68/23
f 47/69/24 57/70/24 48/71/24
f 57/70/24 47/69/24 21/72/24
f 21/72/24 47/69/24 23/73/24
f 23/73/24 47/69/24 39/74/24
f 23/73/24 39/74/24 40/75/24
f 60/76/25 59/77/25 58/78/25
f 19/79/26 61/80/26 17/81/26
f 61/80/26 19/79/26 62/82/26
f 63/83/26 62/82/26 19/79/26
f 62/82/26 63/83/26 64/84/26
f 28/85/27 65/86/27 30/87/27
f 65/86/27 28/85/27 66/88/27
f 66/88/27 28/85/27 41/89/27
f 68/90/28 63/91/28 67/92/28
f 63/91/28 68/90/28 64/93/28
f 48/94/29 69/95/29 46/96/29
f 69/95/29 48/94/29 57/97/29
f 35/98/30 33/99/30 52/100/30
f 46/101/31 70/102/31 44/103/31
f 70/102/31 46/101/31 58/104/31
f 58/104/31 46/101/31 60/105/31
f 60/105/31 46/101/31 69/106/31
f 58/107/32 55/108/32 70/109/32
f 55/108/32 58/107/32 59/110/32
f 55/108/32 59/110/32 56/111/32
f 50/112/33 71/113/33 51/114/33
f 20/115/34 18/116/34 37/117/34
f 62/118/35 72/119/35 61/120/35
f 72/119/35 62/118/35 73/121/35
f 65/122/36 50/123/36 49/124/36
f 50/123/36 65/122/36 71/125/36
f 71/125/36 65/122/36 66/126/36
f 32/127/37 13/128/37 31/129/37
f 13/128/37 32/127/37 15/130/37
f 15/130/37 32/127/37 74/131/37
f 54/132/38 67/133/38 53/134/38
f 27/135/38 67/133/38 54/132/38
f 25/136/38 67/133/38 27/135/38
f 42/137/38 67/133/38 25/136/38
f 67/133/38 42/137/38 68/138/38
f 14/139/39 72/140/39 73/141/39
f 72/140/39 14/139/39 74/142/39
f 74/142/39 14/139/39 15/143/39
usemtl foliage.016
f 11/2/6 10/1/6 9/4/6
f 10/1/6 11/2/6 12/3/6
f 10/9/2 5/7/2 9/10/2
f 5/7/2 10/9/2 6/5/2
f 11/10/5 5/5/5 8/7/5
f 5/5/5 11/10/5 9/9/5
f 7/7/4 11/9/4 8/5/4
f 11/9/4 7/7/4 12/10/4
f 10/10/3 7/5/3 6/7/3
f 7/5/3 10/10/3 12/9/3
f 23/144/6 54/145/6 24/146/6
f 54/145/6 23/144/6 40/147/6
f 54/145/6 40/147/6 27/148/6
f 27/148/6 40/147/6 26/149/6
f 35/150/6 20/151/6 37/152/6
f 20/151/6 35/150/6 19/153/6
f 19/153/6 35/150/6 52/154/6
f 19/153/6 52/154/6 53/155/6
f 19/153/6 53/155/6 63/156/6
f 63/156/6 53/155/6 67/157/6
f 31/158/6 42/159/6 29/160/6
f 42/159/6 31/158/6 14/161/6
f 14/161/6 31/158/6 13/162/6
f 73/163/6 42/159/6 14/161/6
f 64/164/6 42/159/6 73/163/6
f 42/159/6 64/164/6 68/165/6
f 73/163/6 62/166/6 64/164/6
f 45/167/6 39/168/6 47/169/6
f 39/168/6 45/167/6 51/170/6
f 39/168/6 51/170/6 41/171/6
f 41/171/6 51/170/6 71/172/6
f 41/171/6 71/172/6 66/173/6
f 59/174/6 36/175/6 56/176/6
f 36/175/6 59/174/6 60/177/6
f 36/175/6 60/177/6 22/178/6
f 22/178/6 60/177/6 21/179/6
f 21/179/6 60/177/6 69/180/6
f 21/179/6 69/180/6 57/181/6
f 34/182/6 36/175/6 22/178/6
