# Blender 4.1.1
# www.blender.org
mtllib tile_treeQuad.mtl
o tile_treeQuad
v 0.500000 0.500000 0.000000
v 0.500000 -0.500000 0.000000
v -0.500000 0.500000 0.000000
v -0.500000 -0.500000 0.000000
v 0.500000 -0.500000 -0.100000
v 0.500000 0.500000 -0.100000
v -0.500000 0.500000 -0.100000
v -0.500000 -0.500000 -0.100000
v 0.500000 -0.500000 -0.200000
v 0.500000 0.500000 -0.200000
v -0.500000 -0.500000 -0.200000
v -0.500000 0.500000 -0.200000
v 0.325000 0.465000 -0.480000
v 0.226005 0.423995 -0.480000
v 0.325000 0.347400 -0.732000
v 0.309161 0.340839 -0.732000
v 0.185000 0.325000 -0.480000
v 0.302600 0.325000 -0.732000
v 0.347400 0.325000 -0.732000
v 0.340839 0.340839 -0.732000
v 0.340839 0.309161 -0.732000
v 0.325000 0.302600 -0.732000
v 0.309161 0.309161 -0.732000
v 0.201256 0.201256 -0.340000
v 0.241564 0.241564 -0.445000
v 0.150000 0.325000 -0.340000
v 0.207004 0.325000 -0.445000
v 0.465000 0.325000 -0.480000
v 0.465000 0.325000 -0.445000
v 0.423995 0.423995 -0.480000
v 0.423995 0.423995 -0.445000
v 0.442996 0.325000 -0.445000
v 0.500000 0.325000 -0.340000
v 0.408436 0.408436 -0.445000
v 0.448744 0.448744 -0.340000
v 0.325000 0.500000 -0.340000
v 0.201256 0.448744 -0.340000
v 0.325000 0.442996 -0.445000
v 0.241564 0.408436 -0.445000
v 0.185000 0.325000 -0.445000
v 0.226005 0.423995 -0.445000
v 0.226005 0.226005 -0.445000
v 0.325000 0.185000 -0.445000
v 0.226005 0.226005 -0.480000
v 0.325000 0.185000 -0.480000
v 0.500000 0.325000 -0.305000
v 0.448744 0.201256 -0.305000
v 0.448744 0.448744 -0.305000
v 0.325000 0.500000 -0.305000
v 0.362188 0.362188 -0.305000
v 0.362188 0.287813 -0.305000
v 0.287813 0.362188 -0.305000
v 0.201256 0.448744 -0.305000
v 0.325000 0.150000 -0.305000
v 0.287813 0.287813 -0.305000
v 0.201256 0.201256 -0.305000
v 0.150000 0.325000 -0.305000
v 0.448744 0.201256 -0.340000
v 0.325000 0.150000 -0.340000
v 0.408436 0.241564 -0.445000
v 0.325000 0.465000 -0.445000
v 0.423995 0.226005 -0.445000
v 0.325000 0.207004 -0.445000
v 0.423995 0.226005 -0.480000
v 0.281250 0.281250 -0.200000
v 0.368750 0.281250 -0.200000
v 0.368750 0.368750 -0.200000
v 0.281250 0.368750 -0.200000
v -0.325000 -0.185000 -0.480000
v -0.423995 -0.226005 -0.480000
v -0.325000 -0.302600 -0.732000
v -0.340839 -0.309161 -0.732000
v -0.465000 -0.325000 -0.480000
v -0.347400 -0.325000 -0.732000
v -0.302600 -0.325000 -0.732000
v -0.309161 -0.309161 -0.732000
v -0.309161 -0.340839 -0.732000
v -0.325000 -0.347400 -0.732000
v -0.340839 -0.340839 -0.732000
v -0.448744 -0.448744 -0.340000
v -0.408436 -0.408436 -0.445000
v -0.500000 -0.325000 -0.340000
v -0.442996 -0.325000 -0.445000
v -0.185000 -0.325000 -0.480000
v -0.185000 -0.325000 -0.445000
v -0.226005 -0.226005 -0.480000
v -0.226005 -0.226005 -0.445000
v -0.207004 -0.325000 -0.445000
v -0.150000 -0.325000 -0.340000
v -0.241564 -0.241564 -0.445000
v -0.201256 -0.201256 -0.340000
v -0.325000 -0.150000 -0.340000
v -0.448744 -0.201256 -0.340000
v -0.325000 -0.207004 -0.445000
v -0.408436 -0.241564 -0.445000
v -0.465000 -0.325000 -0.445000
v -0.423995 -0.226005 -0.445000
v -0.423995 -0.423995 -0.445000
v -0.325000 -0.465000 -0.445000
v -0.423995 -0.423995 -0.480000
v -0.325000 -0.465000 -0.480000
v -0.150000 -0.325000 -0.305000
v -0.201256 -0.448744 -0.305000
v -0.201256 -0.201256 -0.305000
v -0.325000 -0.150000 -0.305000
v -0.287813 -0.287813 -0.305000
v -0.287813 -0.362188 -0.305000
v -0.362188 -0.287813 -0.305000
v -0.448744 -0.201256 -0.305000
v -0.325000 -0.500000 -0.305000
v -0.362188 -0.362188 -0.305000
v -0.448744 -0.448744 -0.305000
v -0.500000 -0.325000 -0.305000
v -0.201256 -0.448744 -0.340000
v -0.325000 -0.500000 -0.340000
v -0.241564 -0.408436 -0.445000
v -0.325000 -0.185000 -0.445000
v -0.226005 -0.423995 -0.445000
v -0.325000 -0.442996 -0.445000
v -0.226005 -0.423995 -0.480000
v -0.368750 -0.368750 -0.200000
v -0.281250 -0.368750 -0.200000
v -0.281250 -0.281250 -0.200000
v -0.368750 -0.281250 -0.200000
v 0.250000 -0.050000 -0.600000
v 0.108579 -0.108579 -0.600000
v 0.250000 -0.218000 -0.960000
v 0.227373 -0.227373 -0.960000
v 0.050000 -0.250000 -0.600000
v 0.218000 -0.250000 -0.960000
v 0.282000 -0.250000 -0.960000
v 0.272627 -0.227373 -0.960000
v 0.272627 -0.272627 -0.960000
v 0.250000 -0.282000 -0.960000
v 0.227373 -0.272627 -0.960000
v 0.073223 -0.426777 -0.400000
v 0.130806 -0.369194 -0.550000
v 0.000000 -0.250000 -0.400000
v 0.081434 -0.250000 -0.550000
v 0.450000 -0.250000 -0.600000
v 0.450000 -0.250000 -0.550000
v 0.391421 -0.108579 -0.600000
v 0.391421 -0.108579 -0.550000
v 0.418566 -0.250000 -0.550000
v 0.500000 -0.250000 -0.400000
v 0.369194 -0.130806 -0.550000
v 0.426777 -0.073223 -0.400000
v 0.250000 0.000000 -0.400000
v 0.073223 -0.073223 -0.400000
v 0.250000 -0.081434 -0.550000
v 0.130806 -0.130806 -0.550000
v 0.050000 -0.250000 -0.550000
v 0.108579 -0.108579 -0.550000
v 0.108579 -0.391421 -0.550000
v 0.250000 -0.450000 -0.550000
v 0.108579 -0.391421 -0.600000
v 0.250000 -0.450000 -0.600000
v 0.500000 -0.250000 -0.350000
v 0.426777 -0.426777 -0.350000
v 0.426777 -0.073223 -0.350000
v 0.250000 0.000000 -0.350000
v 0.303125 -0.196875 -0.350000
v 0.303125 -0.303125 -0.350000
v 0.196875 -0.196875 -0.350000
v 0.073223 -0.073223 -0.350000
v 0.250000 -0.500000 -0.350000
v 0.196875 -0.303125 -0.350000
v 0.073223 -0.426777 -0.350000
v 0.000000 -0.250000 -0.350000
v 0.426777 -0.426777 -0.400000
v 0.250000 -0.500000 -0.400000
v 0.369194 -0.369194 -0.550000
v 0.250000 -0.050000 -0.550000
v 0.391421 -0.391421 -0.550000
v 0.250000 -0.418566 -0.550000
v 0.391421 -0.391421 -0.600000
v 0.187500 -0.312500 -0.200000
v 0.312500 -0.312500 -0.200000
v 0.312500 -0.187500 -0.200000
v 0.187500 -0.187500 -0.200000
v -0.250000 0.450000 -0.600000
v -0.391421 0.391421 -0.600000
v -0.250000 0.282000 -0.960000
v -0.272627 0.272627 -0.960000
v -0.450000 0.250000 -0.600000
v -0.282000 0.250000 -0.960000
v -0.218000 0.250000 -0.960000
v -0.227373 0.272627 -0.960000
v -0.227373 0.227373 -0.960000
v -0.250000 0.218000 -0.960000
v -0.272627 0.227373 -0.960000
v -0.426777 0.073223 -0.400000
v -0.369194 0.130806 -0.550000
v -0.500000 0.250000 -0.400000
v -0.418566 0.250000 -0.550000
v -0.050000 0.250000 -0.600000
v -0.050000 0.250000 -0.550000
v -0.108579 0.391421 -0.600000
v -0.108579 0.391421 -0.550000
v -0.081434 0.250000 -0.550000
v 0.000000 0.250000 -0.400000
v -0.130806 0.369194 -0.550000
v -0.073223 0.426777 -0.400000
v -0.250000 0.500000 -0.400000
v -0.426777 0.426777 -0.400000
v -0.250000 0.418566 -0.550000
v -0.369194 0.369194 -0.550000
v -0.450000 0.250000 -0.550000
v -0.391421 0.391421 -0.550000
v -0.391421 0.108579 -0.550000
v -0.250000 0.050000 -0.550000
v -0.391421 0.108579 -0.600000
v -0.250000 0.050000 -0.600000
v 0.000000 0.250000 -0.350000
v -0.073223 0.073223 -0.350000
v -0.073223 0.426777 -0.350000
v -0.250000 0.500000 -0.350000
v -0.196875 0.303125 -0.350000
v -0.196875 0.196875 -0.350000
v -0.303125 0.303125 -0.350000
v -0.426777 0.426777 -0.350000
v -0.250000 0.000000 -0.350000
v -0.303125 0.196875 -0.350000
v -0.426777 0.073223 -0.350000
v -0.500000 0.250000 -0.350000
v -0.073223 0.073223 -0.400000
v -0.250000 0.000000 -0.400000
v -0.130806 0.130806 -0.550000
v -0.250000 0.450000 -0.550000
v -0.108579 0.108579 -0.550000
v -0.250000 0.081434 -0.550000
v -0.108579 0.108579 -0.600000
v -0.312500 0.187500 -0.200000
v -0.187500 0.187500 -0.200000
v -0.187500 0.312500 -0.200000
v -0.312500 0.312500 -0.200000
vn -0.0000 -0.0000 1.0000
vn 1.0000 -0.0000 -0.0000
vn -0.0000 1.0000 -0.0000
vn -1.0000 -0.0000 -0.0000
vn -0.0000 -1.0000 -0.0000
vn -0.0000 -0.0000 -1.0000
vn -0.3514 0.8484 -0.3959
vn -0.8484 0.3514 -0.3959
vn -0.8258 -0.3421 -0.4483
vn 0.9239 0.3827 -0.0000
vn 0.8258 0.3421 -0.4483
vn 0.8484 0.3514 -0.3959
vn -0.3421 0.8258 -0.4483
vn -0.9239 0.3827 -0.0000
vn 0.3514 0.8484 -0.3959
vn -0.3827 -0.9239 -0.0000
vn -0.8258 0.3421 -0.4483
vn -0.3514 -0.8484 -0.3959
vn 0.9239 -0.3827 -0.0000
vn 0.3827 -0.9239 -0.0000
vn -0.9239 -0.3827 -0.0000
vn 0.8258 -0.3421 -0.4483
vn -0.3827 0.9239 -0.0000
vn 0.3827 0.9239 -0.0000
vn -0.3421 -0.8258 -0.4483
vn 0.3514 -0.8484 -0.3959
vn 0.3421 0.8258 -0.4483
vn 0.8484 -0.3514 -0.3959
vn 0.3421 -0.8258 -0.4483
vn -0.8484 -0.3514 -0.3959
vn -0.0000 -0.9981 -0.0624
vn 0.9981 -0.0000 -0.0624
vn -0.9981 -0.0000 -0.0624
vn -0.0000 0.9981 -0.0624
vt -19.685040 19.685040
vt 19.685040 -19.685040
vt 19.685040 19.685040
vt -19.685040 -19.685040
vt -19.685040 3.937008
vt 19.685040 0.000000
vt 19.685040 3.937008
vt -19.685040 0.000000
vt -19.685040 7.874016
vt 19.685040 7.874016
vt 0.964242 54.030998
vt -6.026511 23.162180
vt 6.026511 23.162180
vt -0.964242 54.030998
vt -1.781686 -1.781686
vt -1.781686 1.781686
vt -2.519685 0.000000
vt 0.000000 -2.519685
vt 0.000000 2.519685
vt 1.781686 -1.781686
vt 1.781686 1.781686
vt 2.519685 0.000000
vt 7.533138 5.922946
vt -5.079325 19.136360
vt -7.533138 5.922946
vt 5.079325 19.136360
vt -6.026511 31.496059
vt 6.026511 27.559059
vt 6.026511 31.496059
vt -6.026511 27.559059
vt 13.919430 13.919430
vt 13.919430 -13.919430
vt -0.000000 19.685040
vt 4.183071 4.183071
vt 4.183071 -4.183071
vt -4.183071 4.183071
vt -13.919430 13.919430
vt -0.000000 -19.685040
vt -4.183071 -4.183071
vt -13.919430 -13.919430
vt -7.533138 15.748030
vt 7.533138 11.811020
vt 7.533138 15.748030
vt -7.533138 11.811020
vt 11.135540 11.135540
vt 13.272910 -0.000000
vt 15.748030 0.000000
vt 9.385368 9.385368
vt -0.000000 15.748030
vt -0.000000 13.272910
vt -9.385368 9.385368
vt -11.135540 11.135540
vt -13.272910 0.000000
vt -15.748030 0.000000
vt 11.135540 -11.135540
vt 9.385368 -9.385368
vt -0.000000 -15.748030
vt -0.000000 -13.272910
vt -9.385368 -9.385368
vt -11.135540 -11.135540
vt 4.183071 11.527090
vt -4.921260 -0.306980
vt 4.921260 -0.306980
vt -4.183071 11.527090
vt 4.921260 4.921260
vt -4.921260 -4.921260
vt 4.921260 -4.921260
vt -4.921260 4.921260
s 0
usemtl dirt.028
f 3/1/1 2/2/1 1/3/1
f 2/2/1 3/1/1 4/4/1
f 6/5/2 2/6/2 5/7/2
f 2/6/2 6/5/2 1/8/2
f 6/7/3 3/8/3 1/6/3
f 3/8/3 6/7/3 7/5/3
f 3/6/4 8/5/4 4/8/4
f 8/5/4 3/6/4 7/7/4
f 8/7/5 2/8/5 4/6/5
f 2/8/5 8/7/5 5/5/5
usemtl foliage.027
f 11/2/6 10/1/6 9/4/6
f 10/1/6 11/2/6 12/3/6
f 10/9/2 5/7/2 9/10/2
f 5/7/2 10/9/2 6/5/2
f 11/10/5 5/5/5 8/7/5
f 5/5/5 11/10/5 9/9/5
f 7/7/4 11/9/4 8/5/4
f 11/9/4 7/7/4 12/10/4
f 10/10/3 7/5/3 6/7/3
f 7/5/3 10/10/3 12/9/3
f 15/11/7 14/12/7 13/13/7
f 14/12/7 15/11/7 16/14/7
f 14/13/8 18/14/8 17/12/8
f 18/14/8 14/13/8 16/11/8
f 21/15/6 20/16/6 19/17/6
f 20/16/6 21/15/6 22/18/6
f 20/16/6 22/18/6 15/19/6
f 15/19/6 22/18/6 23/20/6
f 15/19/6 23/20/6 16/21/6
f 16/21/6 23/20/6 18/22/6
f 26/23/9 25/24/9 24/25/9
f 25/24/9 26/23/9 27/26/9
f 30/27/10 29/28/10 28/29/10
f 29/28/10 30/27/10 31/30/10
f 34/24/11 33/23/11 32/26/11
f 33/23/11 34/24/11 35/25/11
f 20/14/12 28/13/12 19/11/12
f 28/13/12 20/14/12 30/12/12
f 38/26/13 37/25/13 36/23/13
f 37/25/13 38/26/13 39/24/13
f 41/28/14 17/27/14 40/30/14
f 17/27/14 41/28/14 14/29/14
f 20/11/15 13/12/15 30/13/15
f 13/12/15 20/11/15 15/14/15
f 44/29/16 43/30/16 42/28/16
f 43/30/16 44/29/16 45/27/16
f 48/31/1 47/32/1 46/6/1
f 47/32/1 48/31/1 49/33/1
f 47/32/1 49/33/1 50/34/1
f 47/32/1 50/34/1 51/35/1
f 50/34/1 49/33/1 52/36/1
f 52/36/1 49/33/1 53/37/1
f 51/35/1 54/38/1 47/32/1
f 54/38/1 51/35/1 55/39/1
f 54/38/1 55/39/1 56/40/1
f 56/40/1 55/39/1 52/36/1
f 56/40/1 52/36/1 53/37/1
f 56/40/1 53/37/1 57/8/1
f 37/23/17 27/24/17 26/25/17
f 27/24/17 37/23/17 39/26/17
f 23/11/18 45/12/18 44/13/18
f 45/12/18 23/11/18 22/14/18
f 33/41/19 47/42/19 58/43/19
f 47/42/19 33/41/19 46/44/19
f 59/43/20 47/44/20 54/42/20
f 47/44/20 59/43/20 58/41/20
f 35/41/10 46/42/10 33/43/10
f 46/42/10 35/41/10 48/44/10
f 40/28/21 44/27/21 42/30/21
f 44/27/21 40/28/21 17/29/21
f 60/26/22 33/25/22 58/23/22
f 33/25/22 60/26/22 32/24/22
f 36/43/23 53/44/23 49/42/23
f 53/44/23 36/43/23 37/41/23
f 31/45/1 32/46/1 29/47/1
f 32/46/1 31/45/1 34/48/1
f 34/48/1 31/45/1 61/49/1
f 34/48/1 61/49/1 38/50/1
f 38/50/1 61/49/1 39/51/1
f 39/51/1 61/49/1 41/52/1
f 39/51/1 41/52/1 27/53/1
f 27/53/1 41/52/1 40/54/1
f 32/46/1 62/55/1 29/47/1
f 62/55/1 32/46/1 60/56/1
f 62/55/1 60/56/1 43/57/1
f 43/57/1 60/56/1 63/58/1
f 43/57/1 63/58/1 25/59/1
f 43/57/1 25/59/1 42/60/1
f 42/60/1 25/59/1 27/53/1
f 42/60/1 27/53/1 40/54/1
f 45/29/20 62/30/20 43/28/20
f 62/30/20 45/29/20 64/27/20
f 28/27/19 62/28/19 64/29/19
f 62/28/19 28/27/19 29/30/19
f 30/29/24 61/30/24 31/28/24
f 61/30/24 30/29/24 13/27/24
f 13/29/23 41/30/23 61/28/23
f 41/30/23 13/29/23 14/27/23
f 53/42/14 26/41/14 57/44/14
f 26/41/14 53/42/14 37/43/14
f 25/26/25 59/25/25 24/23/25
f 59/25/25 25/26/25 63/24/25
f 22/11/26 64/12/26 45/13/26
f 64/12/26 22/11/26 21/14/26
f 34/26/27 36/25/27 35/23/27
f 36/25/27 34/26/27 38/24/27
f 21/11/28 28/12/28 64/13/28
f 28/12/28 21/11/28 19/14/28
f 63/26/29 58/25/29 59/23/29
f 58/25/29 63/26/29 60/24/29
f 24/43/16 54/44/16 56/42/16
f 54/44/16 24/43/16 59/41/16
f 17/13/30 23/14/30 44/12/30
f 23/14/30 17/13/30 18/11/30
f 57/42/21 24/41/21 56/44/21
f 24/41/21 57/42/21 26/43/21
f 35/43/24 49/44/24 48/42/24
f 49/44/24 35/43/24 36/41/24
f 71/11/7 70/12/7 69/13/7
f 70/12/7 71/11/7 72/14/7
f 70/13/8 74/14/8 73/12/8
f 74/14/8 70/13/8 72/11/8
f 77/15/6 76/16/6 75/17/6
f 76/16/6 77/15/6 78/18/6
f 76/16/6 78/18/6 71/19/6
f 71/19/6 78/18/6 79/20/6
f 71/19/6 79/20/6 72/21/6
f 72/21/6 79/20/6 74/22/6
f 82/23/9 81/24/9 80/25/9
f 81/24/9 82/23/9 83/26/9
f 86/27/10 85/28/10 84/29/10
f 85/28/10 86/27/10 87/30/10
f 90/24/11 89/23/11 88/26/11
f 89/23/11 90/24/11 91/25/11
f 76/14/12 84/13/12 75/11/12
f 84/13/12 76/14/12 86/12/12
f 94/26/13 93/25/13 92/23/13
f 93/25/13 94/26/13 95/24/13
f 97/28/14 73/27/14 96/30/14
f 73/27/14 97/28/14 70/29/14
f 76/11/15 69/12/15 86/13/15
f 69/12/15 76/11/15 71/14/15
f 100/29/16 99/30/16 98/28/16
f 99/30/16 100/29/16 101/27/16
f 104/31/1 103/32/1 102/6/1
f 103/32/1 104/31/1 105/33/1
f 103/32/1 105/33/1 106/34/1
f 103/32/1 106/34/1 107/35/1
f 106/34/1 105/33/1 108/36/1
f 108/36/1 105/33/1 109/37/1
f 107/35/1 110/38/1 103/32/1
f 110/38/1 107/35/1 111/39/1
f 110/38/1 111/39/1 112/40/1
f 112/40/1 111/39/1 108/36/1
f 112/40/1 108/36/1 109/37/1
f 112/40/1 109/37/1 113/8/1
f 93/23/17 83/24/17 82/25/17
f 83/24/17 93/23/17 95/26/17
f 79/11/18 101/12/18 100/13/18
f 101/12/18 79/11/18 78/14/18
f 89/41/19 103/42/19 114/43/19
f 103/42/19 89/41/19 102/44/19
f 115/43/20 103/44/20 110/42/20
f 103/44/20 115/43/20 114/41/20
f 91/41/10 102/42/10 89/43/10
f 102/42/10 91/41/10 104/44/10
f 96/28/21 100/27/21 98/30/21
f 100/27/21 96/28/21 73/29/21
f 116/26/22 89/25/22 114/23/22
f 89/25/22 116/26/22 88/24/22
f 92/43/23 109/44/23 105/42/23
f 109/44/23 92/43/23 93/41/23
f 87/45/1 88/46/1 85/47/1
f 88/46/1 87/45/1 90/48/1
f 90/48/1 87/45/1 117/49/1
f 90/48/1 117/49/1 94/50/1
f 94/50/1 117/49/1 95/51/1
f 95/51/1 117/49/1 97/52/1
f 95/51/1 97/52/1 83/53/1
f 83/53/1 97/52/1 96/54/1
f 88/46/1 118/55/1 85/47/1
f 118/55/1 88/46/1 116/56/1
f 118/55/1 116/56/1 99/57/1
f 99/57/1 116/56/1 119/58/1
f 99/57/1 119/58/1 81/59/1
f 99/57/1 81/59/1 98/60/1
f 98/60/1 81/59/1 83/53/1
f 98/60/1 83/53/1 96/54/1
f 101/29/20 118/30/20 99/28/20
f 118/30/20 101/29/20 120/27/20
f 84/27/19 118/28/19 120/29/19
f 118/28/19 84/27/19 85/30/19
f 86/29/24 117/30/24 87/28/24
f 117/30/24 86/29/24 69/27/24
f 69/29/23 97/30/23 117/28/23
f 97/30/23 69/29/23 70/27/23
f 109/42/14 82/41/14 113/44/14
f 82/41/14 109/42/14 93/43/14
f 81/26/25 115/25/25 80/23/25
f 115/25/25 81/26/25 119/24/25
f 78/11/26 120/12/26 101/13/26
f 120/12/26 78/11/26 77/14/26
f 90/26/27 92/25/27 91/23/27
f 92/25/27 90/26/27 94/24/27
f 77/11/28 84/12/28 120/13/28
f 84/12/28 77/11/28 75/14/28
f 119/26/29 114/25/29 115/23/29
f 114/25/29 119/26/29 116/24/29
f 80/43/16 110/44/16 112/42/16
f 110/44/16 80/43/16 115/41/16
f 73/13/30 79/14/30 100/12/30
f 79/14/30 73/13/30 74/11/30
f 113/42/21 80/41/21 112/44/21
f 80/41/21 113/42/21 82/43/21
f 91/43/24 105/44/24 104/42/24
f 105/44/24 91/43/24 92/41/24
f 127/11/7 126/12/7 125/13/7
f 126/12/7 127/11/7 128/14/7
f 126/13/8 130/14/8 129/12/8
f 130/14/8 126/13/8 128/11/8
f 133/15/6 132/16/6 131/17/6
f 132/16/6 133/15/6 134/18/6
f 132/16/6 134/18/6 127/19/6
f 127/19/6 134/18/6 135/20/6
f 127/19/6 135/20/6 128/21/6
f 128/21/6 135/20/6 130/22/6
f 138/23/9 137/24/9 136/25/9
f 137/24/9 138/23/9 139/26/9
f 142/27/10 141/28/10 140/29/10
f 141/28/10 142/27/10 143/30/10
f 146/24/11 145/23/11 144/26/11
f 145/23/11 146/24/11 147/25/11
f 132/14/12 140/13/12 131/11/12
f 140/13/12 132/14/12 142/12/12
f 150/26/13 149/25/13 148/23/13
f 149/25/13 150/26/13 151/24/13
f 153/28/14 129/27/14 152/30/14
f 129/27/14 153/28/14 126/29/14
f 132/11/15 125/12/15 142/13/15
f 125/12/15 132/11/15 127/14/15
f 156/29/16 155/30/16 154/28/16
f 155/30/16 156/29/16 157/27/16
f 160/31/1 159/32/1 158/6/1
f 159/32/1 160/31/1 161/33/1
f 159/32/1 161/33/1 162/34/1
f 159/32/1 162/34/1 163/35/1
f 162/34/1 161/33/1 164/36/1
f 164/36/1 161/33/1 165/37/1
f 163/35/1 166/38/1 159/32/1
f 166/38/1 163/35/1 167/39/1
f 166/38/1 167/39/1 168/40/1
f 168/40/1 167/39/1 164/36/1
f 168/40/1 164/36/1 165/37/1
f 168/40/1 165/37/1 169/8/1
f 149/23/17 139/24/17 138/25/17
f 139/24/17 149/23/17 151/26/17
f 135/11/18 157/12/18 156/13/18
f 157/12/18 135/11/18 134/14/18
f 145/41/19 159/42/19 170/43/19
f 159/42/19 145/41/19 158/44/19
f 171/43/20 159/44/20 166/42/20
f 159/44/20 171/43/20 170/41/20
f 147/41/10 158/42/10 145/43/10
f 158/42/10 147/41/10 160/44/10
f 152/28/21 156/27/21 154/30/21
f 156/27/21 152/28/21 129/29/21
f 172/26/22 145/25/22 170/23/22
f 145/25/22 172/26/22 144/24/22
f 148/43/23 165/44/23 161/42/23
f 165/44/23 148/43/23 149/41/23
f 143/45/1 144/46/1 141/47/1
f 144/46/1 143/45/1 146/48/1
f 146/48/1 143/45/1 173/49/1
f 146/48/1 173/49/1 150/50/1
f 150/50/1 173/49/1 151/51/1
f 151/51/1 173/49/1 153/52/1
f 151/51/1 153/52/1 139/53/1
f 139/53/1 153/52/1 152/54/1
f 144/46/1 174/55/1 141/47/1
f 174/55/1 144/46/1 172/56/1
f 174/55/1 172/56/1 155/57/1
f 155/57/1 172/56/1 175/58/1
f 155/57/1 175/58/1 137/59/1
f 155/57/1 137/59/1 154/60/1
f 154/60/1 137/59/1 139/53/1
f 154/60/1 139/53/1 152/54/1
f 157/29/20 174/30/20 155/28/20
f 174/30/20 157/29/20 176/27/20
f 140/27/19 174/28/19 176/29/19
f 174/28/19 140/27/19 141/30/19
f 142/29/24 173/30/24 143/28/24
f 173/30/24 142/29/24 125/27/24
f 125/29/23 153/30/23 173/28/23
f 153/30/23 125/29/23 126/27/23
f 165/42/14 138/41/14 169/44/14
f 138/41/14 165/42/14 149/43/14
f 137/26/25 171/25/25 136/23/25
f 171/25/25 137/26/25 175/24/25
f 134/11/26 176/12/26 157/13/26
f 176/12/26 134/11/26 133/14/26
f 146/26/27 148/25/27 147/23/27
f 148/25/27 146/26/27 150/24/27
f 133/11/28 140/12/28 176/13/28
f 140/12/28 133/11/28 131/14/28
f 175/26/29 170/25/29 171/23/29
f 170/25/29 175/26/29 172/24/29
f 136/43/16 166/44/16 168/42/16
f 166/44/16 136/43/16 171/41/16
f 129/13/30 135/14/30 156/12/30
f 135/14/30 129/13/30 130/11/30
f 169/42/21 136/41/21 168/44/21
f 136/41/21 169/42/21 138/43/21
f 147/43/24 161/44/24 160/42/24
f 161/44/24 147/43/24 148/41/24
f 183/11/7 182/12/7 181/13/7
f 182/12/7 183/11/7 184/14/7
f 182/13/8 186/14/8 185/12/8
f 186/14/8 182/13/8 184/11/8
f 189/15/6 188/16/6 187/17/6
f 188/16/6 189/15/6 190/18/6
f 188/16/6 190/18/6 183/19/6
f 183/19/6 190/18/6 191/20/6
f 183/19/6 191/20/6 184/21/6
f 184/21/6 191/20/6 186/22/6
f 194/23/9 193/24/9 192/25/9
f 193/24/9 194/23/9 195/26/9
f 198/27/10 197/28/10 196/29/10
f 197/28/10 198/27/10 199/30/10
f 202/24/11 201/23/11 200/26/11
f 201/23/11 202/24/11 203/25/11
f 188/14/12 196/13/12 187/11/12
f 196/13/12 188/14/12 198/12/12
f 206/26/13 205/25/13 204/23/13
f 205/25/13 206/26/13 207/24/13
f 209/28/14 185/27/14 208/30/14
f 185/27/14 209/28/14 182/29/14
f 188/11/15 181/12/15 198/13/15
f 181/12/15 188/11/15 183/14/15
f 212/29/16 211/30/16 210/28/16
f 211/30/16 212/29/16 213/27/16
f 216/31/1 215/32/1 214/6/1
f 215/32/1 216/31/1 217/33/1
f 215/32/1 217/33/1 218/34/1
f 215/32/1 218/34/1 219/35/1
f 218/34/1 217/33/1 220/36/1
f 220/36/1 217/33/1 221/37/1
f 219/35/1 222/38/1 215/32/1
f 222/38/1 219/35/1 223/39/1
f 222/38/1 223/39/1 224/40/1
f 224/40/1 223/39/1 220/36/1
f 224/40/1 220/36/1 221/37/1
f 224/40/1 221/37/1 225/8/1
f 205/23/17 195/24/17 194/25/17
f 195/24/17 205/23/17 207/26/17
f 191/11/18 213/12/18 212/13/18
f 213/12/18 191/11/18 190/14/18
f 201/41/19 215/42/19 226/43/19
f 215/42/19 201/41/19 214/44/19
f 227/43/20 215/44/20 222/42/20
f 215/44/20 227/43/20 226/41/20
f 203/41/10 214/42/10 201/43/10
f 214/42/10 203/41/10 216/44/10
f 208/28/21 212/27/21 210/30/21
f 212/27/21 208/28/21 185/29/21
f 228/26/22 201/25/22 226/23/22
f 201/25/22 228/26/22 200/24/22
f 204/43/23 221/44/23 217/42/23
f 221/44/23 204/43/23 205/41/23
f 199/45/1 200/46/1 197/47/1
f 200/46/1 199/45/1 202/48/1
f 202/48/1 199/45/1 229/49/1
f 202/48/1 229/49/1 206/50/1
f 206/50/1 229/49/1 207/51/1
f 207/51/1 229/49/1 209/52/1
f 207/51/1 209/52/1 195/53/1
f 195/53/1 209/52/1 208/54/1
f 200/46/1 230/55/1 197/47/1
f 230/55/1 200/46/1 228/56/1
f 230/55/1 228/56/1 211/57/1
f 211/57/1 228/56/1 231/58/1
f 211/57/1 231/58/1 193/59/1
f 211/57/1 193/59/1 210/60/1
f 210/60/1 193/59/1 195/53/1
f 210/60/1 195/53/1 208/54/1
f 213/29/20 230/30/20 211/28/20
f 230/30/20 213/29/20 232/27/20
f 196/27/19 230/28/19 232/29/19
f 230/28/19 196/27/19 197/30/19
f 198/29/24 229/30/24 199/28/24
f 229/30/24 198/29/24 181/27/24
f 181/29/23 209/30/23 229/28/23
f 209/30/23 181/29/23 182/27/23
f 221/42/14 194/41/14 225/44/14
f 194/41/14 221/42/14 205/43/14
f 193/26/25 227/25/25 192/23/25
f 227/25/25 193/26/25 231/24/25
f 190/11/26 232/12/26 213/13/26
f 232/12/26 190/11/26 189/14/26
f 202/26/27 204/25/27 203/23/27
f 204/25/27 202/26/27 206/24/27
f 189/11/28 196/12/28 232/13/28
f 196/12/28 189/11/28 187/14/28
f 231/26/29 226/25/29 227/23/29
f 226/25/29 231/26/29 228/24/29
f 192/43/16 222/44/16 224/42/16
f 222/44/16 192/43/16 227/41/16
f 185/13/30 191/14/30 212/12/30
f 191/14/30 185/13/30 186/11/30
f 225/42/21 192/41/21 224/44/21
f 192/41/21 225/42/21 194/43/21
f 203/43/24 217/44/24 216/42/24
f 217/44/24 203/43/24 204/41/24
usemtl wood.003
f 55/61/31 66/62/31 65/63/31
f 66/62/31 55/61/31 51/64/31
f 51/61/32 67/62/32 66/63/32
f 67/62/32 51/61/32 50/64/32
f 68/63/33 55/64/33 65/62/33
f 55/64/33 68/63/33 52/61/33
f 50/61/34 68/62/34 67/63/34
f 68/62/34 50/61/34 52/64/34
f 67/65/1 65/66/1 66/67/1
f 65/66/1 67/65/1 68/68/1
f 111/61/31 122/62/31 121/63/31
f 122/62/31 111/61/31 107/64/31
f 107/61/32 123/62/32 122/63/32
f 123/62/32 107/61/32 106/64/32
f 124/63/33 111/64/33 121/62/33
f 111/64/33 124/63/33 108/61/33
f 106/61/34 124/62/34 123/63/34
f 124/62/34 106/61/34 108/64/34
f 123/65/1 121/66/1 122/67/1
f 121/66/1 123/65/1 124/68/1
f 167/61/31 178/62/31 177/63/31
f 178/62/31 167/61/31 163/64/31
f 163/61/32 179/62/32 178/63/32
f 179/62/32 163/61/32 162/64/32
f 180/63/33 167/64/33 177/62/33
f 167/64/33 180/63/33 164/61/33
f 162/61/34 180/62/34 179/63/34
f 180/62/34 162/61/34 164/64/34
f 179/65/1 177/66/1 178/67/1
f 177/66/1 179/65/1 180/68/1
f 223/61/31 234/62/31 233/63/31
f 234/62/31 223/61/31 219/64/31
f 219/61/32 235/62/32 234/63/32
f 235/62/32 219/61/32 218/64/32
f 236/63/33 223/64/33 233/62/33
f 223/64/33 236/63/33 220/61/33
f 218/61/34 236/62/34 235/63/34
f 236/62/34 218/61/34 220/64/34
f 235/65/1 233/66/1 234/67/1
f 233/66/1 235/65/1 236/68/1
