# Blender 4.1.1
# www.blender.org
mtllib tile_slope.mtl
o tile_slope
v -0.500000 -0.500000 0.000000
v 0.500000 -0.500000 0.000000
v -0.500000 -0.500000 -0.300000
v 0.500000 -0.500000 -0.300000
v 0.500000 0.500000 0.000000
v -0.500000 0.500000 0.000000
v 0.500000 0.500000 -0.100000
v -0.500000 0.500000 -0.100000
v -0.500000 -0.500000 -0.400000
v -0.500000 0.500000 -0.200000
v 0.500000 -0.500000 -0.400000
v 0.500000 0.500000 -0.200000
vn -0.0000 -1.0000 -0.0000
vn -0.0000 1.0000 -0.0000
vn -0.0000 -0.0000 1.0000
vn -1.0000 -0.0000 -0.0000
vn 1.0000 -0.0000 -0.0000
vn -0.0000 0.1961 -0.9806
vt 19.685040 11.811020
vt -19.685040 0.000000
vt 19.685040 0.000000
vt -19.685040 11.811020
vt 19.685040 3.937008
vt -19.685040 3.937008
vt -19.685040 19.685040
vt 19.685040 -19.685040
vt 19.685040 19.685040
vt -19.685040 -19.685040
vt -19.685040 15.748030
vt 19.685040 7.874016
vt -19.685040 7.874016
vt 19.685040 15.748030
vt 19.685040 22.391211
vt -19.685040 -17.758551
vt 19.685040 -17.758551
vt -19.685040 22.391211
s 0
usemtl dirt.018
f 3/1/1 2/2/1 1/3/1
f 2/2/1 3/1/1 4/4/1
f 7/5/2 6/2/2 5/3/2
f 6/2/2 7/5/2 8/6/2
f 6/7/3 2/8/3 5/9/3
f 2/8/3 6/7/3 1/10/3
f 6/3/4 3/4/4 1/2/4
f 3/4/4 6/3/4 8/5/4
f 7/6/5 2/3/5 4/1/5
f 2/3/5 7/6/5 5/2/5
usemtl foliage.017
f 8/5/4 9/11/4 3/4/4
f 9/11/4 8/5/4 10/12/4
f 12/13/5 4/1/5 11/14/5
f 4/1/5 12/13/5 7/6/5
f 12/12/2 8/6/2 7/5/2
f 8/6/2 12/12/2 10/13/2
f 11/15/6 10/16/6 12/17/6
f 10/16/6 11/15/6 9/18/6
f 9/14/1 4/4/1 3/1/1
f 4/4/1 9/14/1 11/11/1
