# Blender 4.1.1
# www.blender.org
mtllib tile_end.mtl
o tile_end
v -0.500000 -0.500000 0.000000
v 0.500000 -0.500000 0.000000
v -0.500000 -0.500000 -0.100000
v 0.500000 -0.500000 -0.100000
v 0.500000 0.500000 -0.100000
v 0.500000 0.500000 0.000000
v -0.500000 0.500000 0.000000
v -0.500000 0.500000 -0.100000
v 0.281250 0.500000 -0.150000
v -0.281250 0.500000 -0.150000
v 0.281250 -0.281250 -0.150000
v -0.281250 -0.281250 -0.150000
v 0.375000 0.500000 -0.150000
v 0.500000 0.500000 -0.200000
v 0.375000 0.500000 -0.200000
v -0.375000 0.500000 -0.150000
v -0.500000 0.500000 -0.200000
v -0.375000 0.500000 -0.200000
v -0.500000 -0.500000 -0.200000
v 0.500000 -0.500000 -0.200000
v 0.375000 -0.375000 -0.200000
v -0.375000 -0.375000 -0.200000
v 0.375000 -0.375000 -0.150000
v -0.375000 -0.375000 -0.150000
vn -0.0000 -1.0000 -0.0000
vn 1.0000 -0.0000 -0.0000
vn -0.0000 1.0000 -0.0000
vn -1.0000 -0.0000 -0.0000
vn -0.0000 -0.0000 1.0000
vn -0.0000 -0.0000 -1.0000
vt 19.685040 3.937008
vt -19.685040 0.000000
vt 19.685040 0.000000
vt -19.685040 3.937008
vt -19.685040 19.685040
vt 19.685040 -19.685040
vt 19.685040 19.685040
vt -19.685040 -19.685040
vt -11.072830 -11.072830
vt 11.072830 19.685040
vt -11.072830 19.685040
vt 11.072830 -11.072830
vt 14.763780 5.905512
vt 19.685040 7.874016
vt 14.763780 7.874016
vt -14.763780 5.905512
vt -19.685040 7.874016
vt 11.072830 5.905512
vt -11.072830 5.905512
vt -14.763780 7.874016
vt -14.763780 19.685040
vt -14.763780 -14.763780
vt 14.763780 -14.763780
vt 14.763780 19.685040
vt 19.685040 5.905512
vt -19.685040 5.905512
s 0
usemtl dirt.008
f 3/1/1 2/2/1 1/3/1
f 2/2/1 3/1/1 4/4/1
f 5/4/2 2/3/2 4/1/2
f 2/3/2 5/4/2 6/2/2
f 5/1/3 7/2/3 6/3/3
f 7/2/3 5/1/3 8/4/3
f 7/3/4 3/4/4 1/2/4
f 3/4/4 7/3/4 8/1/4
f 7/5/5 2/6/5 6/7/5
f 2/6/5 7/5/5 1/8/5
f 11/9/6 10/10/6 9/11/6
f 10/10/6 11/9/6 12/12/6
usemtl foliage.007
f 5/1/3 13/13/3 8/4/3
f 13/13/3 5/1/3 14/14/3
f 13/13/3 14/14/3 15/15/3
f 16/16/3 8/4/3 13/13/3
f 8/4/3 16/16/3 17/17/3
f 16/16/3 13/13/3 9/18/3
f 16/16/3 9/18/3 10/19/3
f 17/17/3 16/16/3 18/20/3
f 19/14/1 4/4/1 3/1/1
f 4/4/1 19/14/1 20/17/1
f 14/17/2 4/1/2 20/14/2
f 4/1/2 14/17/2 5/4/2
f 8/1/4 19/17/4 3/4/4
f 19/17/4 8/1/4 17/14/4
f 20/8/6 15/21/6 14/5/6
f 15/21/6 20/8/6 21/22/6
f 21/22/6 20/8/6 19/6/6
f 21/22/6 19/6/6 22/23/6
f 22/23/6 19/6/6 17/7/6
f 17/7/6 18/24/6 22/23/6
usemtl dirtDark.004
f 13/25/4 21/20/4 23/16/4
f 21/20/4 13/25/4 15/14/4
f 21/15/3 24/16/3 23/13/3
f 24/16/3 21/15/3 22/20/3
f 23/22/6 9/11/6 13/21/6
f 9/11/6 23/22/6 11/9/6
f 11/9/6 23/22/6 24/23/6
f 11/9/6 24/23/6 12/12/6
f 12/12/6 24/23/6 16/24/6
f 16/24/6 10/10/6 12/12/6
f 18/17/2 24/13/2 22/15/2
f 24/13/2 18/17/2 16/26/2
