# Blender 4.1.1
# www.blender.org
mtllib tile_crystal.001.mtl
o tile_crystal.003
v 0.500000 0.500000 0.000000
v 0.500000 -0.500000 0.000000
v -0.500000 0.500000 0.000000
v -0.500000 -0.500000 0.000000
v 0.500000 -0.500000 -0.100000
v 0.500000 0.500000 -0.100000
v -0.500000 0.500000 -0.100000
v -0.500000 -0.500000 -0.100000
v 0.500000 -0.500000 -0.200000
v 0.500000 0.500000 -0.200000
v -0.500000 -0.500000 -0.200000
v -0.500000 0.500000 -0.200000
v 0.271983 -0.031641 -0.630785
v 0.271983 0.186230 -0.630785
v 0.234885 0.030452 -0.732243
v 0.234885 0.124137 -0.732243
v 0.125555 0.138495 -0.268747
v 0.125555 0.016095 -0.268747
v 0.007326 0.138495 -0.300426
v 0.007326 0.016095 -0.300426
v 0.061535 -0.031641 -0.687174
v 0.144392 0.030452 -0.756491
v 0.054495 -0.031641 -0.660901
v 0.054495 0.186230 -0.660901
v 0.264943 -0.031641 -0.604511
v 0.264943 0.186230 -0.604511
v 0.061535 0.186230 -0.687174
v 0.144392 0.124137 -0.756491
v -0.180752 -0.206586 -0.527454
v -0.180752 -0.038825 -0.527454
v -0.244552 -0.158774 -0.580828
v -0.244552 -0.086637 -0.580828
v -0.139011 -0.075581 -0.229658
v -0.139011 -0.169830 -0.229658
v -0.230048 -0.075581 -0.205265
v -0.230048 -0.169830 -0.205265
v -0.342797 -0.206586 -0.484034
v -0.314231 -0.158774 -0.562157
v -0.337376 -0.206586 -0.463803
v -0.337376 -0.038825 -0.463803
v -0.175331 -0.206586 -0.507223
v -0.175331 -0.038825 -0.507223
v -0.342797 -0.038825 -0.484034
v -0.314231 -0.086637 -0.562157
v -0.283763 0.274735 -0.463803
v -0.149431 0.375228 -0.463803
v -0.190038 0.210812 -0.205265
v -0.114571 0.267269 -0.205265
v -0.189941 0.149321 -0.527454
v -0.055609 0.249814 -0.527454
v -0.189875 0.229048 -0.580828
v -0.132112 0.272260 -0.580828
v -0.186694 0.144981 -0.507223
v -0.135505 0.137916 -0.229658
v -0.052362 0.245474 -0.507223
v -0.060038 0.194373 -0.229658
v -0.287010 0.279076 -0.484034
v -0.231614 0.284843 -0.562157
v -0.152678 0.379569 -0.484034
v -0.173851 0.328055 -0.562157
v -0.368399 0.162009 -0.299166
v -0.288572 0.313556 -0.299166
v -0.444641 0.246582 -0.249583
v 0.297336 0.268426 -0.200000
v 0.068912 0.451414 -0.200000
v 0.282057 0.264643 -0.249583
v 0.068912 0.362786 -0.474272
v 0.174288 0.278370 -0.474272
v 0.118901 -0.249960 -0.356305
v 0.201534 0.030453 -0.356305
v 0.082933 -0.188933 -0.618608
v 0.143337 0.016046 -0.618608
v -0.223830 0.028644 -0.389248
v -0.134716 -0.113673 -0.618608
v -0.134716 0.046669 -0.618608
v -0.221339 -0.088752 -0.233164
v -0.230535 -0.011478 -0.299166
v -0.289195 -0.127580 -0.200000
v -0.317275 -0.011478 -0.299166
v -0.385702 -0.127580 -0.200000
v 0.168701 0.042563 -0.417301
v 0.186182 0.042752 -0.356305
v 0.157851 0.060973 -0.474272
v 0.204894 0.106251 -0.356305
v 0.198102 0.197560 -0.474272
v 0.271742 0.181573 -0.200000
v -0.143989 -0.242295 -0.389248
v -0.112538 -0.188933 -0.618608
v -0.177940 -0.127082 -0.389248
v -0.243816 0.033591 -0.299166
v -0.014892 -0.500000 -0.200000
v 0.005202 -0.431812 -0.200000
v -0.067126 -0.411372 -0.389248
v -0.005898 -0.378307 -0.264894
v -0.017302 -0.242295 -0.389248
v 0.003981 -0.256629 -0.327640
v -0.297239 -0.500000 -0.200000
v -0.288572 -0.485294 -0.231401
v -0.169817 -0.411372 -0.389248
v 0.129175 0.060973 -0.474272
v -0.014802 0.176311 -0.474272
v -0.014802 0.142730 -0.618608
v 0.500000 -0.001282 -0.200000
v 0.377104 -0.031704 -0.356305
v 0.022910 -0.249960 -0.356305
v 0.349035 -0.390931 -0.249583
v 0.335927 -0.171439 -0.356305
v 0.242619 -0.302939 -0.356305
v -0.035601 0.367689 -0.200000
v -0.088066 0.293616 -0.299166
v -0.074995 0.247504 -0.474272
v -0.128954 0.260861 -0.299166
v -0.384490 -0.203919 -0.200000
v -0.299973 -0.224842 -0.389248
v -0.046527 0.150897 -0.474272
v -0.096709 0.151437 -0.299166
v 0.038522 -0.302939 -0.356305
v -0.200765 0.383898 -0.299166
v 0.373129 -0.431812 -0.200000
v -0.268239 -0.332527 -0.389248
v -0.200765 0.500000 -0.200000
v -0.500000 0.260286 -0.200000
vn -0.0000 -0.0000 1.0000
vn 1.0000 -0.0000 -0.0000
vn -0.0000 1.0000 -0.0000
vn -1.0000 -0.0000 -0.0000
vn -0.0000 -1.0000 -0.0000
vn -0.0000 -0.0000 -1.0000
vn 0.9392 -0.0000 -0.3434
vn -0.2588 -0.0000 0.9659
vn 0.1488 -0.8183 -0.5552
vn -0.9915 -0.0000 -0.1297
vn -0.0340 -0.9913 0.1268
vn 0.9236 -0.0000 0.3834
vn -0.0340 0.9913 0.1268
vn -0.9659 -0.0000 -0.2588
vn 0.2588 -0.0000 -0.9659
vn 0.9659 -0.0000 0.2588
vn -0.6417 -0.0000 -0.7670
vn 0.1488 0.8183 -0.5552
vn 0.6417 -0.0000 -0.7670
vn 0.2588 -0.0000 0.9659
vn -0.1488 -0.8183 -0.5552
vn -0.9236 -0.0000 0.3834
vn 0.0340 -0.9913 0.1268
vn 0.9915 -0.0000 -0.1297
vn 0.0340 0.9913 0.1268
vn -0.9659 -0.0000 0.2588
vn -0.2588 -0.0000 -0.9659
vn 0.9659 -0.0000 -0.2588
vn -0.9392 -0.0000 -0.3434
vn -0.1488 0.8183 -0.5552
vn -0.5532 0.7395 0.3834
vn 0.3844 -0.5138 -0.7670
vn 0.5940 -0.7940 -0.1297
vn 0.5786 -0.7734 -0.2588
vn -0.7444 -0.3711 -0.5552
vn 0.8007 0.5990 -0.0000
vn 0.1550 -0.2072 0.9659
vn -0.7734 -0.6210 0.1268
vn -0.7734 -0.6211 0.1268
vn 0.8142 0.5666 0.1268
vn -0.1550 0.2072 -0.9659
vn -0.8007 -0.5990 -0.0000
vn -0.5626 0.7520 -0.3434
vn 0.5661 0.6093 -0.5552
vn -0.5786 0.7734 0.2588
vn -0.3761 0.2225 -0.8995
vn 0.5659 0.7934 -0.2241
vn 0.9324 -0.3086 -0.1883
vn -0.9343 -0.0000 -0.3564
vn -0.9461 -0.2091 -0.2475
vn -0.9411 -0.2573 -0.2194
vn -0.0000 -0.6989 -0.7152
vn 0.9174 -0.3037 -0.2573
vn -0.9324 -0.3086 -0.1883
vn -0.9461 -0.2092 -0.2474
vn -0.9411 -0.2574 -0.2194
vn 0.8857 -0.2932 -0.3600
vn -0.0000 -0.9255 -0.3788
vn 0.5728 0.8032 -0.1633
vn 0.5014 0.7021 -0.5055
vn 0.5008 0.7022 -0.5060
vn 0.5008 0.7022 -0.5061
vn -0.0000 -0.9799 -0.1993
vn 0.4970 -0.3962 -0.7720
vn -0.5659 0.7934 -0.2241
vn -0.5509 0.7724 -0.3162
vn -0.9174 -0.3037 -0.2573
vn -0.7853 -0.2600 -0.5619
vn -0.0000 -0.9624 -0.2718
vn -0.0000 -0.8113 -0.5847
vn 0.7853 -0.2600 -0.5619
vn -0.4618 -0.6475 -0.6062
vn 0.8720 0.2887 -0.3952
vn 0.4461 0.6255 -0.6401
vn -0.8857 -0.2932 -0.3600
vn -0.6832 -0.2262 -0.6943
vn -0.5728 0.8032 -0.1633
vn -0.4461 0.6255 -0.6401
vt -19.685040 19.685040
vt 19.685040 -19.685040
vt 19.685040 19.685040
vt -19.685040 -19.685040
vt -19.685040 3.937008
vt 19.685040 0.000000
vt 19.685040 3.937008
vt -19.685040 0.000000
vt -19.685040 7.874016
vt 19.685040 7.874016
vt 2.712047 20.992781
vt -6.307086 14.738240
vt 6.307086 14.738240
vt -2.712047 20.992781
vt -3.543307 3.543307
vt 3.543307 -3.543307
vt 3.543307 3.543307
vt -3.543307 -3.543307
vt -3.543307 0.465258
vt 6.307086 21.513639
vt -6.307086 21.513639
vt 3.543307 0.465258
vt 6.307086 20.866140
vt -6.307086 22.440941
vt -6.307086 20.866140
vt 6.307086 22.440941
vt 2.712047 -2.712047
vt -2.712047 2.712047
vt -2.712047 -2.712047
vt 2.712047 2.712047
vt 1.447115 1.374187
vt 6.604781 12.395120
vt 0.000000 12.395120
vt 5.157666 1.374187
vt -1.882363 12.674430
vt -6.604781 9.399550
vt 0.000000 9.399550
vt -4.722418 12.674430
vt -6.604781 11.973180
vt -1.447115 0.952244
vt 0.000000 11.973180
vt -5.157666 0.952244
vt -6.604781 12.677720
vt 0.000000 11.853150
vt 0.000000 12.677720
vt -6.604781 11.853150
vt 7.123882 12.029510
vt 1.616837 10.386780
vt 7.893682 8.331460
vt 4.424839 12.913290
vt -1.429925 11.888140
vt -8.023067 10.975160
vt -7.809653 10.178690
vt -1.643338 12.684610
vt -5.157666 -3.461991
vt -1.447115 0.248560
vt -5.157666 0.248560
vt -1.447115 -3.461991
vt 7.805068 10.062560
vt -0.049580 0.769173
vt 3.532433 -0.199007
vt 1.429085 11.785920
vt -0.176708 1.606378
vt -8.031356 10.899760
vt -3.758721 0.638198
vt -1.655373 12.623120
vt 1.882363 -3.026744
vt 4.722418 -0.186688
vt 1.882363 -0.186688
vt 4.722418 -3.026744
vt 8.023067 10.975160
vt 1.429925 11.888140
vt 7.809653 10.178690
vt 1.643338 12.684610
vt 6.604781 7.552508
vt 1.882363 10.827390
vt -0.000000 7.552508
vt 4.722418 10.827390
vt -0.435462 6.778927
vt -5.942506 8.421650
vt -6.712306 4.723605
vt -3.243463 9.305439
vt 6.604781 11.853150
vt 6.604781 12.677720
vt -0.530702 -16.843050
vt 4.589383 -12.289180
vt -1.798827 -12.289180
vt 2.904380 -1.477203
vt -7.873757 -3.485173
vt 3.295923 -3.485173
vt -5.906827 7.622085
vt -0.754049 7.622085
vt 5.673161 15.191830
vt -3.413653 4.671364
vt 7.398901 4.671364
vt -2.230709 15.191830
vt 1.717700 13.492230
vt -4.183861 13.492230
vt 1.054257 3.816266
vt 11.281350 -3.466705
vt 8.993060 2.321496
vt 8.634325 -1.530983
vt 12.376750 2.321496
vt 15.046050 -3.466705
vt -3.977879 9.065750
vt -3.667189 4.254854
vt -3.457292 6.742376
vt -6.115696 4.254854
vt -9.244613 9.065750
vt -9.539366 -2.119542
vt -12.888350 -2.119542
vt -12.577780 -0.097465
vt -2.395324 5.782131
vt -5.328867 14.981340
vt -6.837872 5.782131
vt -2.426911 14.981340
vt -0.543980 -0.478105
vt 3.609381 5.782131
vt 2.277810 2.169118
vt 4.015635 2.169118
vt 15.233130 6.203302
vt 15.110090 -1.798227
vt 17.739361 -1.798227
vt 13.359410 0.945549
vt 8.713622 6.203302
vt 8.969686 3.598487
vt 11.257060 -6.031182
vt 0.580920 -7.380744
vt 11.595160 -7.380744
vt 2.618554 0.752749
vt 6.624491 0.752749
vt 4.104563 15.581030
vt 4.845210 5.099831
vt 5.595924 5.099831
vt 4.305398 7.537130
vt 2.666760 9.813596
vt -4.373564 9.813596
vt -3.628292 15.581030
vt -3.235188 -6.953857
vt 0.577434 5.253335
vt -5.591518 0.590602
vt 4.390057 -6.953857
vt 5.255198 1.717700
vt 5.255198 -4.183861
vt 12.439160 1.083348
vt 4.426965 -6.140738
vt 15.588520 -6.140738
vt 4.018283 1.083348
vt 0.674935 5.385073
vt -0.893688 4.057797
vt -0.155290 2.902865
vt -4.638262 4.057797
vt -3.235188 14.626140
vt 5.616919 5.385073
vt 4.390057 14.626140
vt 3.222696 -7.311046
vt -2.833240 -7.311046
vt 3.315994 -14.046550
vt 10.195930 8.381621
vt 7.052287 -2.725637
vt 12.162860 -2.725637
vt 3.775650 1.290303
vt 3.159030 8.381621
vt 1.776264 1.290303
vt -8.857803 0.375205
vt -16.490999 -1.007794
vt -11.831200 -1.007794
vt -14.325150 6.884284
vt -8.357882 6.884284
vt 6.445037 3.263184
vt 9.567557 10.404320
vt 5.842469 10.404320
vt 10.664360 3.263184
vt -6.157706 2.244170
vt -6.798893 10.245710
vt -7.727844 7.271411
vt -2.688220 13.352710
vt -5.039045 2.244170
vt 0.577434 6.489322
vt 2.925527 9.109629
vt 1.814990 5.553930
vt -9.062277 2.623199
vt -11.090950 3.993928
vt -13.222230 -0.377232
vt -9.048106 3.993928
vt -6.157706 10.985720
vt -6.580957 8.642659
vt -5.039045 10.985720
vt 12.376750 -0.422443
vt 9.511147 1.236359
vt 8.993060 -0.422443
vt 11.257060 11.540740
vt 14.371060 5.962908
vt 7.831721 14.129750
vt 5.030440 9.601266
vt 3.772559 5.573805
vt 3.435412 10.806850
vt 0.230079 -6.476958
vt -14.555590 -9.702742
vt -0.202929 -9.702742
vt -13.615700 -7.238060
vt -9.464443 -1.933079
vt -1.502708 -1.933079
vt 9.675178 -8.204110
vt -5.769804 -10.575110
vt 10.831220 -10.575110
vt 2.116333 -3.100778
vt -3.271737 -3.100778
vt -1.789804 -12.163440
vt 0.967811 -4.209889
vt -3.844915 -4.209889
vt -7.752898 6.077084
vt -6.017327 -3.575323
vt -4.636908 6.077084
vt 2.618554 -15.140980
vt 5.616919 -8.917931
vt 0.674935 -8.917931
vt 6.624491 -15.140980
vt 6.941347 -4.677398
vt 10.463890 -12.239020
vt 11.701790 -8.275522
vt -9.256909 -1.367136
vt -17.344410 -6.550186
vt -9.268114 -6.550186
vt -14.767740 -1.367136
vt -2.692686 -6.035913
vt -13.693540 -4.708247
vt -14.109390 -6.035913
vt -8.562946 1.965616
vt -4.410633 1.965616
vt 0.003403 -11.025930
vt 9.976110 -5.562480
vt 3.286567 -5.562480
vt 13.834030 -8.294205
vt 14.959280 -11.025930
vt -13.104330 -6.309974
vt -7.992808 3.910681
vt -14.710640 -1.166914
vt -9.464443 -11.149980
vt -7.861739 1.120851
vt -4.638262 -9.200027
vt -1.502708 -11.149980
vt -0.893688 -9.200027
vt -7.262851 1.573514
vt 2.706985 15.461980
vt 1.900967 9.694544
vt 3.452258 9.694544
vt -3.156647 15.461980
vt -6.329931 6.297111
vt -6.842104 2.697585
vt 0.351283 2.697585
vt -2.021620 -7.579168
vt 4.848766 -12.762220
vt 2.272088 -7.579168
vt -9.783514 -12.762220
vt -8.364882 -10.170690
s 0
usemtl dirt.006
f 3/1/1 2/2/1 1/3/1
f 2/2/1 3/1/1 4/4/1
f 6/5/2 2/6/2 5/7/2
f 2/6/2 6/5/2 1/8/2
f 6/7/3 3/8/3 1/6/3
f 3/8/3 6/7/3 7/5/3
f 3/6/4 8/5/4 4/8/4
f 8/5/4 3/6/4 7/7/4
f 8/7/5 2/8/5 4/6/5
f 2/8/5 8/7/5 5/5/5
usemtl foliage.006
f 11/2/6 10/1/6 9/4/6
f 10/1/6 11/2/6 12/3/6
f 10/9/2 5/7/2 9/10/2
f 5/7/2 10/9/2 6/5/2
f 11/10/5 5/5/5 8/7/5
f 5/5/5 11/10/5 9/9/5
f 7/7/4 11/9/4 8/5/4
f 11/9/4 7/7/4 12/10/4
f 10/10/3 7/5/3 6/7/3
f 7/5/3 10/10/3 12/9/3
f 63/85/46 62/86/46 61/87/46
f 66/88/47 65/89/47 64/90/47
f 65/89/47 66/88/47 67/91/47
f 67/91/47 66/88/47 68/92/47
f 71/93/48 70/94/48 69/95/48
f 70/94/48 71/93/48 72/96/48
f 75/97/49 74/98/50 73/99/51
f 78/100/52 77/101/52 76/102/52
f 77/101/52 78/100/52 79/103/52
f 79/103/52 78/100/52 80/104/52
f 83/105/53 82/106/53 81/107/53
f 82/106/53 83/105/53 84/108/53
f 84/108/53 83/105/53 85/109/53
f 84/108/53 85/109/53 86/110/53
f 86/110/53 85/109/53 64/111/53
f 64/111/53 85/109/53 66/112/53
f 89/113/54 88/114/54 87/115/54
f 88/114/54 89/113/54 74/116/55
f 74/116/55 89/113/54 76/117/54
f 74/116/55 76/117/54 73/118/56
f 73/118/56 76/117/54 77/119/54
f 73/118/56 77/119/54 90/120/54
f 93/121/57 92/122/57 91/123/57
f 92/122/57 93/121/57 94/124/57
f 94/124/57 93/121/57 95/125/57
f 94/124/57 95/125/57 96/126/57
f 98/127/58 91/128/58 97/129/58
f 91/128/58 98/127/58 93/130/58
f 93/130/58 98/127/58 99/131/58
f 72/132/59 82/133/59 70/134/59
f 82/133/59 72/132/59 81/135/59
f 81/135/59 72/132/59 100/136/59
f 100/136/59 72/132/59 101/137/59
f 101/137/59 72/132/59 102/138/59
f 71/139/6 102/140/6 72/141/6
f 102/140/6 71/139/6 88/142/6
f 102/140/6 88/142/6 75/143/6
f 75/143/6 88/142/6 74/144/6
f 104/145/60 86/146/61 103/147/61
f 86/146/61 104/145/61 84/148/62
f 95/149/63 105/150/63 96/151/63
f 105/150/63 95/149/63 69/152/63
f 69/152/63 95/149/63 71/153/63
f 71/153/63 95/149/63 87/154/63
f 71/153/63 87/154/63 88/155/63
f 108/156/64 107/157/64 106/158/64
f 67/159/65 109/160/65 65/161/65
f 109/160/65 67/159/65 110/162/65
f 111/163/65 110/162/65 67/159/65
f 110/162/65 111/163/65 112/164/65
f 76/165/66 113/166/66 78/167/66
f 113/166/66 76/165/66 114/168/66
f 114/168/66 76/165/66 89/169/66
f 116/170/67 111/171/67 115/172/67
f 111/171/67 116/170/67 112/173/67
f 83/174/6 68/175/6 85/176/6
f 68/175/6 83/174/6 67/177/6
f 67/177/6 83/174/6 100/178/6
f 67/177/6 100/178/6 101/179/6
f 67/177/6 101/179/6 111/180/6
f 111/180/6 101/179/6 115/181/6
f 96/182/68 117/183/68 94/184/68
f 117/183/68 96/182/68 105/185/68
f 83/186/69 81/187/69 100/188/69
f 79/189/6 90/190/6 77/191/6
f 90/190/6 79/189/6 62/192/6
f 62/192/6 79/189/6 61/193/6
f 118/194/6 90/190/6 62/192/6
f 112/195/6 90/190/6 118/194/6
f 90/190/6 112/195/6 116/196/6
f 118/194/6 110/197/6 112/195/6
f 94/198/70 119/199/70 92/200/70
f 119/199/70 94/198/70 106/201/70
f 106/201/70 94/198/70 108/202/70
f 108/202/70 94/198/70 117/203/70
f 106/204/71 103/205/71 119/206/71
f 103/205/71 106/204/71 107/207/71
f 103/205/71 107/207/71 104/208/71
f 98/209/72 120/210/72 99/211/72
f 68/212/73 66/213/73 85/214/73
f 93/215/6 87/216/6 95/217/6
f 87/216/6 93/215/6 99/218/6
f 87/216/6 99/218/6 89/219/6
f 89/219/6 99/218/6 120/220/6
f 89/219/6 120/220/6 114/221/6
f 110/222/74 121/223/74 109/224/74
f 121/223/74 110/222/74 118/225/74
f 113/226/75 98/227/75 97/228/75
f 98/227/75 113/226/75 120/229/75
f 120/229/75 113/226/75 114/230/75
f 80/231/76 61/232/76 79/233/76
f 61/232/76 80/231/76 63/234/76
f 63/234/76 80/231/76 122/235/76
f 107/236/6 84/237/6 104/238/6
f 84/237/6 107/236/6 108/239/6
f 84/237/6 108/239/6 70/240/6
f 70/240/6 108/239/6 69/241/6
f 69/241/6 108/239/6 117/242/6
f 69/241/6 117/242/6 105/243/6
f 82/244/6 84/237/6 70/240/6
f 102/245/77 115/246/77 101/247/77
f 75/248/77 115/246/77 102/245/77
f 73/249/77 115/246/77 75/248/77
f 90/250/77 115/246/77 73/249/77
f 115/246/77 90/250/77 116/251/77
f 62/252/78 121/253/78 118/254/78
f 121/253/78 62/252/78 122/255/78
f 122/255/78 62/252/78 63/256/78
usemtl crystal.001
f 15/11/7 14/12/7 13/13/7
f 14/12/7 15/11/7 16/14/7
f 19/15/8 18/16/8 17/17/8
f 18/16/8 19/15/8 20/18/8
f 22/11/9 13/12/9 21/13/9
f 13/12/9 22/11/9 15/14/9
f 20/19/10 24/20/10 23/21/10
f 24/20/10 20/19/10 19/22/10
f 23/20/11 18/19/11 20/22/11
f 18/19/11 23/20/11 25/21/11
f 26/21/12 18/22/12 25/20/12
f 18/22/12 26/21/12 17/19/12
f 26/20/13 19/19/13 17/22/13
f 19/19/13 26/20/13 24/21/13
f 24/23/14 21/24/14 23/25/14
f 21/24/14 24/23/14 27/26/14
f 22/27/15 16/28/15 15/29/15
f 16/28/15 22/27/15 28/30/15
f 14/26/3 24/25/3 26/23/3
f 24/25/3 14/26/3 27/24/3
f 14/24/16 25/23/16 13/26/16
f 25/23/16 14/24/16 26/25/16
f 21/26/5 25/25/5 23/23/5
f 25/25/5 21/26/5 13/24/5
f 27/13/17 22/14/17 21/12/17
f 22/14/17 27/13/17 28/11/17
f 16/11/18 27/12/18 14/13/18
f 27/12/18 16/11/18 28/14/18
f 31/11/19 30/12/19 29/13/19
f 30/12/19 31/11/19 32/14/19
f 35/15/20 34/16/20 33/17/20
f 34/16/20 35/15/20 36/18/20
f 38/11/21 29/12/21 37/13/21
f 29/12/21 38/11/21 31/14/21
f 36/19/22 40/20/22 39/21/22
f 40/20/22 36/19/22 35/22/22
f 39/20/23 34/19/23 36/22/23
f 34/19/23 39/20/23 41/21/23
f 42/21/24 34/22/24 41/20/24
f 34/22/24 42/21/24 33/19/24
f 42/20/25 35/19/25 33/22/25
f 35/19/25 42/20/25 40/21/25
f 40/23/26 37/24/26 39/25/26
f 37/24/26 40/23/26 43/26/26
f 38/27/27 32/28/27 31/29/27
f 32/28/27 38/27/27 44/30/27
f 30/26/3 40/25/3 42/23/3
f 40/25/3 30/26/3 43/24/3
f 30/24/28 41/23/28 29/26/28
f 41/23/28 30/24/28 42/25/28
f 37/26/5 41/25/5 39/23/5
f 41/25/5 37/26/5 29/24/5
f 43/13/29 38/14/29 37/12/29
f 38/14/29 43/13/29 44/11/29
f 32/11/30 43/12/30 30/13/30
f 43/12/30 32/11/30 44/14/30
f 47/31/31 46/32/31 45/33/31
f 46/32/31 47/31/31 48/34/31
f 51/35/32 50/36/32 49/37/32
f 50/36/32 51/35/32 52/38/32
f 55/39/33 54/40/33 53/41/33
f 54/40/33 55/39/33 56/42/33
f 50/43/34 53/44/34 49/45/34
f 53/44/34 50/43/34 55/46/34
f 58/47/35 49/48/35 57/49/35
f 49/48/35 58/47/35 51/50/35
f 55/51/36 59/52/36 46/53/36
f 59/52/36 55/51/36 50/54/36
f 48/55/37 54/56/37 56/57/37
f 54/56/37 48/55/37 47/58/37
f 45/59/38 54/60/38 47/61/38
f 54/60/39 45/59/39 53/62/39
f 56/63/40 46/64/40 48/65/40
f 46/64/40 56/63/40 55/66/40
f 58/67/41 52/68/41 51/69/41
f 52/68/41 58/67/41 60/70/41
f 57/71/42 53/72/42 45/73/42
f 53/72/42 57/71/42 49/74/42
f 59/75/43 58/76/43 57/77/43
f 58/76/43 59/75/43 60/78/43
f 50/79/44 60/80/44 59/81/44
f 60/80/44 50/79/44 52/82/44
f 46/83/45 57/45/45 45/44/45
f 57/45/45 46/83/45 59/84/45
