# Blender 4.1.1
# www.blender.org
mtllib tile_cornerOuter.mtl
o tile_cornerOuter
v -0.500000 -0.500000 0.000000
v 0.500000 -0.500000 0.000000
v -0.500000 -0.500000 -0.100000
v 0.500000 -0.500000 -0.300000
v 0.500000 0.500000 0.000000
v -0.500000 0.500000 0.000000
v 0.500000 0.500000 -0.100000
v -0.500000 0.500000 -0.100000
v 0.500000 -0.500000 -0.400000
v 0.500000 0.500000 -0.200000
v -0.500000 0.500000 -0.200000
v -0.500000 -0.500000 -0.200000
vn -0.0000 -1.0000 -0.0000
vn -0.0000 1.0000 -0.0000
vn -1.0000 -0.0000 -0.0000
vn 1.0000 -0.0000 -0.0000
vn -0.0000 -0.0000 1.0000
vn -0.1961 -0.0000 -0.9806
vn -0.0000 0.1961 -0.9806
vt 19.685040 3.937008
vt -19.685040 -0.000000
vt 19.685040 -0.000000
vt -19.685040 11.811020
vt -19.685040 0.000000
vt 19.685040 0.000000
vt -19.685040 3.937008
vt 19.685040 11.811020
vt -19.685040 19.685040
vt 19.685040 -19.685040
vt 19.685040 19.685040
vt -19.685040 -19.685040
vt -19.685040 7.874016
vt 19.685040 15.748030
vt -19.685040 -17.758551
vt 19.685040 -17.758551
vt -19.685040 22.391211
vt 19.685040 7.874016
vt -19.685040 15.748030
vt 19.685040 22.391211
s 0
usemtl dirt.036
f 3/1/1 2/2/1 1/3/1
f 2/2/1 3/1/1 4/4/1
f 7/1/2 6/5/2 5/6/2
f 6/5/2 7/1/2 8/7/2
f 6/6/3 3/7/3 1/5/3
f 3/7/3 6/6/3 8/1/3
f 7/7/4 2/6/4 4/8/4
f 2/6/4 7/7/4 5/5/4
f 6/9/5 2/10/5 5/11/5
f 2/10/5 6/9/5 1/12/5
usemtl foliage.035
f 10/13/4 4/8/4 9/14/4
f 4/8/4 10/13/4 7/7/4
f 12/15/6 11/16/6 9/17/6
f 8/1/3 12/13/3 3/7/3
f 12/13/3 8/1/3 11/18/3
f 12/18/1 4/4/1 3/1/1
f 4/4/1 12/18/1 9/19/1
f 11/15/7 10/16/7 9/20/7
f 10/18/2 8/7/2 7/1/2
f 8/7/2 10/18/2 11/13/2
