# Blender 4.1.1
# www.blender.org
mtllib tile_cornerRound.mtl
o tile_cornerRound
v -0.257772 0.062500 -0.200000
v -0.257772 0.062500 -0.150000
v -0.308395 0.165152 -0.200000
v -0.308395 0.165152 -0.150000
v -0.032666 -0.194184 -0.150000
v -0.118718 -0.118718 -0.150000
v -0.032666 -0.194184 -0.200000
v -0.118718 -0.118718 -0.200000
v 0.165152 -0.308395 -0.150000
v 0.062500 -0.257772 -0.150000
v 0.165152 -0.308395 -0.200000
v 0.062500 -0.257772 -0.200000
v 0.385790 -0.367514 -0.150000
v 0.273533 -0.345185 -0.150000
v 0.385790 -0.367514 -0.200000
v 0.273533 -0.345185 -0.200000
v 0.500000 -0.281250 -0.150000
v 0.398026 -0.274566 -0.150000
v 0.500000 -0.375000 -0.150000
v 0.297798 -0.254629 -0.150000
v 0.201029 -0.221781 -0.150000
v 0.109375 -0.176582 -0.150000
v 0.024405 -0.119807 -0.150000
v -0.052427 -0.052427 -0.150000
v -0.119807 0.024405 -0.150000
v -0.194184 -0.032666 -0.150000
v -0.176582 0.109375 -0.150000
v -0.221781 0.201029 -0.150000
v -0.254629 0.297798 -0.150000
v -0.274566 0.398026 -0.150000
v -0.281250 0.500000 -0.150000
v -0.375000 0.500000 -0.150000
v -0.345185 0.273533 -0.150000
v -0.367514 0.385790 -0.150000
v -0.194184 -0.032666 -0.200000
v 0.500000 -0.375000 -0.200000
v 0.411612 0.411612 -0.150000
v 0.411612 0.411612 -0.200000
v 0.400831 0.423905 -0.150000
v 0.400831 0.423905 -0.200000
v 0.391747 0.437500 -0.150000
v 0.391747 0.437500 -0.200000
v -0.345185 0.273533 -0.200000
v -0.367514 0.385790 -0.200000
v 0.483684 0.376069 -0.150000
v 0.500000 0.375000 -0.150000
v 0.483684 0.376069 -0.200000
v 0.500000 0.375000 -0.200000
v 0.437500 0.391747 -0.150000
v 0.452165 0.384515 -0.150000
v 0.437500 0.391747 -0.200000
v 0.452165 0.384515 -0.200000
v 0.376069 0.483684 -0.150000
v 0.376069 0.483684 -0.200000
v 0.375000 0.500000 -0.150000
v 0.375000 0.500000 -0.200000
v 0.467648 0.379259 -0.150000
v 0.467648 0.379259 -0.200000
v 0.379259 0.467648 -0.150000
v 0.379259 0.467648 -0.200000
v 0.384515 0.452165 -0.150000
v 0.384515 0.452165 -0.200000
v 0.423905 0.400831 -0.150000
v 0.423905 0.400831 -0.200000
v -0.375000 0.500000 -0.200000
v 0.500000 0.281250 -0.150000
v 0.471447 0.283121 -0.150000
v 0.443383 0.288704 -0.150000
v 0.416288 0.297901 -0.150000
v 0.390625 0.310557 -0.150000
v 0.366833 0.326454 -0.150000
v 0.281250 0.500000 -0.150000
v 0.345320 0.345320 -0.150000
v 0.326454 0.366833 -0.150000
v 0.310557 0.390625 -0.150000
v 0.297901 0.416288 -0.150000
v 0.288704 0.443383 -0.150000
v 0.283121 0.471447 -0.150000
v 0.500000 -0.500000 -0.100000
v 0.500000 -0.500000 0.000000
v 0.500000 0.500000 -0.100000
v 0.500000 0.500000 0.000000
v -0.500000 -0.500000 0.000000
v -0.500000 -0.500000 -0.100000
v -0.500000 0.500000 0.000000
v -0.500000 0.500000 -0.100000
v 0.500000 -0.500000 -0.200000
v -0.500000 -0.500000 -0.200000
v -0.500000 0.500000 -0.200000
v 0.500000 0.500000 -0.200000
vn 0.9239 0.3827 -0.0000
vn 0.8660 0.5000 -0.0000
vn 0.6088 0.7933 -0.0000
vn 0.7071 0.7071 -0.0000
vn 0.3827 0.9239 -0.0000
vn 0.5000 0.8660 -0.0000
vn 0.6088 0.7934 -0.0000
vn 0.6087 0.7934 -0.0000
vn 0.1305 0.9914 -0.0000
vn 0.2588 0.9659 -0.0000
vn -0.0000 -0.0000 -1.0000
vn 0.7933 0.6088 -0.0000
vn 0.7934 0.6087 -0.0000
vn 0.7934 0.6088 -0.0000
vn 0.0654 0.9979 -0.0000
vn -0.7933 -0.6088 -0.0000
vn -0.7071 -0.7071 -0.0000
vn -0.8660 -0.5000 -0.0000
vn -0.7934 -0.6087 -0.0000
vn -0.7934 -0.6088 -0.0000
vn 0.9914 0.1305 -0.0000
vn 0.9659 0.2588 -0.0000
vn -0.1305 -0.9914 -0.0000
vn -0.0654 -0.9979 -0.0000
vn -0.5000 -0.8660 -0.0000
vn -0.3827 -0.9239 -0.0000
vn -0.9979 -0.0654 -0.0000
vn -0.9914 -0.1305 -0.0000
vn -0.2588 -0.9659 -0.0000
vn -0.9659 -0.2588 -0.0000
vn -0.9239 -0.3827 -0.0000
vn -0.6087 -0.7934 -0.0000
vn -0.6088 -0.7934 -0.0000
vn 0.9979 0.0654 -0.0000
vn -0.6088 -0.7933 -0.0000
vn 1.0000 -0.0000 -0.0000
vn -0.0000 -1.0000 -0.0000
vn -0.0000 -0.0000 1.0000
vn -0.0000 1.0000 -0.0000
vn -1.0000 -0.0000 -0.0000
vt -11.201570 7.874016
vt -6.695445 5.905512
vt -6.695445 7.874016
vt -11.201570 5.905512
vt 4.073809 7.874016
vt -0.432313 5.905512
vt 4.073809 5.905512
vt -0.432313 7.874016
vt 11.201570 7.874016
vt 6.695445 5.905512
vt 11.201570 5.905512
vt 6.695445 7.874016
vt 7.684151 7.874016
vt 3.178030 5.905512
vt 7.684151 5.905512
vt 3.178030 7.874016
vt 17.719500 7.874016
vt 13.213380 5.905512
vt 17.719500 5.905512
vt 13.213380 7.874016
vt -19.685040 -14.763780
vt -15.670330 -10.809700
vt -19.685040 -11.072830
vt -15.188570 -14.469060
vt -11.724320 -10.024790
vt -10.769030 -13.589960
vt -7.914511 -8.731531
vt -6.502047 -12.141520
vt -4.306102 -6.952061
vt -2.460630 -10.148510
vt -0.960832 -4.716823
vt 1.286073 -7.645046
vt 2.064062 -2.064062
vt 4.673954 -4.673954
vt 4.716823 0.960832
vt 7.645046 -1.286073
vt 6.952061 4.306102
vt 8.731531 7.914511
vt 10.148510 2.460630
vt 10.024790 11.724320
vt 10.809700 15.670330
vt 12.141520 6.502047
vt 11.072830 19.685040
vt 14.763780 19.685040
vt 13.589960 10.769030
vt 14.469060 15.188570
vt -4.073809 7.874016
vt 0.432313 5.905512
vt 0.432313 7.874016
vt -4.073809 5.905512
vt -7.684151 7.874016
vt -3.178030 5.905512
vt -3.178030 7.874016
vt -7.684151 5.905512
vt 14.565870 7.874016
vt 10.059750 5.905512
vt 14.565870 5.905512
vt 10.059750 7.874016
vt 20.608490 7.874016
vt 16.102369 5.905512
vt 20.608490 5.905512
vt 16.102369 7.874016
vt 2.142614 5.905512
vt 1.498882 7.874016
vt 1.498882 5.905512
vt 2.142614 7.874016
vt 5.752956 5.905512
vt 5.109224 7.874016
vt 5.109224 5.905512
vt 5.752956 7.874016
vt -17.719500 7.874016
vt -13.213380 5.905512
vt -13.213380 7.874016
vt -17.719500 5.905512
vt -18.033560 7.874016
vt -18.677299 5.905512
vt -18.033560 5.905512
vt -18.677299 7.874016
vt -8.626639 7.874016
vt -9.270370 5.905512
vt -8.626639 5.905512
vt -9.270370 7.874016
vt 18.677299 5.905512
vt 18.033560 7.874016
vt 18.033560 5.905512
vt 18.677299 7.874016
vt -15.144570 7.874016
vt -15.788300 5.905512
vt -15.144570 5.905512
vt -15.788300 7.874016
vt -14.565870 7.874016
vt -10.059750 5.905512
vt -10.059750 7.874016
vt -14.565870 5.905512
vt 15.788300 5.905512
vt 15.144570 7.874016
vt 15.144570 5.905512
vt 15.788300 7.874016
vt 9.270370 5.905512
vt 8.626639 7.874016
vt 8.626639 5.905512
vt 9.270370 7.874016
vt 12.634670 5.905512
vt 11.990940 7.874016
vt 11.990940 5.905512
vt 12.634670 7.874016
vt -5.109224 7.874016
vt -5.752956 5.905512
vt -5.109224 5.905512
vt -5.752956 7.874016
vt -20.608490 7.874016
vt -16.102369 5.905512
vt -16.102369 7.874016
vt -20.608490 5.905512
vt -1.498882 7.874016
vt -2.142614 5.905512
vt -1.498882 5.905512
vt -2.142614 7.874016
vt -19.685040 11.072830
vt -19.042690 14.805880
vt -19.685040 14.763780
vt -18.560921 11.146510
vt -18.411320 14.931470
vt -17.456039 11.366290
vt -17.801750 15.138390
vt -17.224409 15.423100
vt -16.389290 11.728400
vt -16.689171 15.780740
vt -16.205179 16.205179
vt -15.378940 12.226650
vt -15.780740 16.689171
vt -15.423100 17.224409
vt -15.138390 17.801750
vt -14.442260 12.852520
vt -14.931470 18.411320
vt -14.805880 19.042690
vt -14.763780 19.685040
vt -11.072830 19.685040
vt -13.595290 13.595290
vt -12.852520 14.442260
vt -12.226650 15.378940
vt -11.728400 16.389290
vt -11.366290 17.456039
vt -11.146510 18.560921
vt -11.990940 7.874016
vt -12.634670 5.905512
vt -11.990940 5.905512
vt -12.634670 7.874016
vt -19.685040 3.937008
vt 19.685040 0.000000
vt 19.685040 3.937008
vt -19.685040 0.000000
vt -19.685040 19.685040
vt 19.685040 -19.685040
vt 19.685040 19.685040
vt -19.685040 -19.685040
vt 19.685040 7.874016
vt -19.685040 7.874016
vt -14.763780 5.905512
vt -14.763780 7.874016
vt -11.072830 5.905512
vt 11.072830 5.905512
vt 14.763780 5.905512
vt 14.763780 7.874016
s 0
usemtl dirtDark.001
f 3/1/1 2/2/2 1/3/2
f 2/2/2 3/1/1 4/4/1
f 7/5/3 6/6/4 5/7/3
f 6/6/4 7/5/3 8/8/4
f 11/9/5 10/10/6 9/11/5
f 10/10/6 11/9/5 12/12/6
f 12/13/6 5/14/7 10/15/6
f 5/14/8 12/13/6 7/16/8
f 15/17/9 14/18/10 13/19/9
f 14/18/10 15/17/9 16/20/10
f 19/21/11 18/22/11 17/23/11
f 18/22/11 19/21/11 13/24/11
f 18/22/11 13/24/11 20/25/11
f 20/25/11 13/24/11 14/26/11
f 20/25/11 14/26/11 21/27/11
f 21/27/11 14/26/11 9/28/11
f 21/27/11 9/28/11 22/29/11
f 22/29/11 9/28/11 10/30/11
f 22/29/11 10/30/11 23/31/11
f 23/31/11 10/30/11 5/32/11
f 23/31/11 5/32/11 24/33/11
f 24/33/11 5/32/11 6/34/11
f 24/33/11 6/34/11 25/35/11
f 25/35/11 6/34/11 26/36/11
f 25/35/11 26/36/11 27/37/11
f 27/37/11 26/36/11 28/38/11
f 28/38/11 26/36/11 2/39/11
f 28/38/11 2/39/11 29/40/11
f 29/40/11 2/39/11 30/41/11
f 30/41/11 2/39/11 4/42/11
f 30/41/11 4/42/11 31/43/11
f 31/43/11 4/42/11 32/44/11
f 32/44/11 4/42/11 33/45/11
f 32/44/11 33/45/11 34/46/11
f 35/47/12 6/48/4 8/49/4
f 6/48/4 35/47/12 26/50/12
f 1/51/2 26/52/13 35/53/13
f 26/52/14 1/51/2 2/54/2
f 16/55/10 9/56/5 14/57/10
f 9/56/5 16/55/10 11/58/5
f 36/59/15 13/60/9 19/61/15
f 13/60/9 36/59/15 15/62/9
f 39/63/16 38/64/17 37/65/17
f 38/64/17 39/63/16 40/66/16
f 41/67/18 40/68/19 39/69/19
f 40/68/20 41/67/18 42/70/18
f 44/71/21 33/72/22 43/73/22
f 33/72/22 44/71/21 34/74/21
f 47/75/23 46/76/24 45/77/23
f 46/76/24 47/75/23 48/78/24
f 51/79/25 50/80/26 49/81/25
f 50/80/26 51/79/25 52/82/26
f 55/83/27 54/84/28 53/85/28
f 54/84/28 55/83/27 56/86/27
f 58/87/29 45/88/23 57/89/29
f 45/88/23 58/87/29 47/90/23
f 43/91/22 4/92/1 3/93/1
f 4/92/1 43/91/22 33/94/22
f 53/95/28 60/96/30 59/97/30
f 60/96/30 53/95/28 54/98/28
f 61/99/31 42/100/18 41/101/18
f 42/100/18 61/99/31 62/102/31
f 59/103/30 62/104/31 61/105/31
f 62/104/31 59/103/30 60/106/30
f 64/107/32 49/108/25 63/109/32
f 49/108/25 64/107/33 51/110/25
f 65/111/34 34/112/21 44/113/21
f 34/112/21 65/111/34 32/114/34
f 38/115/17 63/116/35 37/117/17
f 63/116/35 38/115/17 64/118/35
f 66/119/11 45/120/11 46/121/11
f 45/120/11 66/119/11 67/122/11
f 45/120/11 67/122/11 57/123/11
f 57/123/11 67/122/11 68/124/11
f 57/123/11 68/124/11 50/125/11
f 50/125/11 68/124/11 49/126/11
f 49/126/11 68/124/11 69/127/11
f 49/126/11 69/127/11 63/128/11
f 63/128/11 69/127/11 37/129/11
f 37/129/11 69/127/11 70/130/11
f 37/129/11 70/130/11 39/131/11
f 39/131/11 70/130/11 41/132/11
f 41/132/11 70/130/11 61/133/11
f 61/133/11 70/130/11 71/134/11
f 61/133/11 71/134/11 59/135/11
f 59/135/11 71/134/11 53/136/11
f 53/136/11 71/134/11 55/137/11
f 55/137/11 71/134/11 72/138/11
f 72/138/11 71/134/11 73/139/11
f 72/138/11 73/139/11 74/140/11
f 72/138/11 74/140/11 75/141/11
f 72/138/11 75/141/11 76/142/11
f 72/138/11 76/142/11 77/143/11
f 72/138/11 77/143/11 78/144/11
f 52/145/26 57/146/29 50/147/26
f 57/146/29 52/145/26 58/148/29
usemtl dirt.003
f 81/149/36 80/150/36 79/151/36
f 80/150/36 81/149/36 82/152/36
f 84/151/37 80/152/37 83/150/37
f 80/152/37 84/151/37 79/149/37
f 85/153/38 80/154/38 82/155/38
f 80/154/38 85/153/38 83/156/38
f 81/151/39 85/152/39 82/150/39
f 85/152/39 81/151/39 86/149/39
f 85/150/40 84/149/40 83/152/40
f 84/149/40 85/150/40 86/151/40
f 17/23/11 67/122/11 66/119/11
f 67/122/11 17/23/11 18/22/11
f 67/122/11 18/22/11 68/124/11
f 68/124/11 18/22/11 69/127/11
f 69/127/11 18/22/11 70/130/11
f 70/130/11 18/22/11 20/25/11
f 70/130/11 20/25/11 71/134/11
f 71/134/11 20/25/11 73/139/11
f 73/139/11 20/25/11 74/140/11
f 74/140/11 20/25/11 75/141/11
f 75/141/11 20/25/11 76/142/11
f 76/142/11 20/25/11 77/143/11
f 77/143/11 20/25/11 21/27/11
f 77/143/11 21/27/11 78/144/11
f 78/144/11 21/27/11 72/138/11
f 72/138/11 21/27/11 31/43/11
f 31/43/11 21/27/11 22/29/11
f 31/43/11 22/29/11 23/31/11
f 31/43/11 23/31/11 24/33/11
f 31/43/11 24/33/11 25/35/11
f 31/43/11 25/35/11 27/37/11
f 31/43/11 27/37/11 28/38/11
f 31/43/11 28/38/11 29/40/11
f 31/43/11 29/40/11 30/41/11
usemtl foliage.003
f 87/156/11 15/24/11 36/21/11
f 15/24/11 87/156/11 88/154/11
f 15/24/11 88/154/11 16/26/11
f 16/26/11 88/154/11 11/28/11
f 11/28/11 88/154/11 12/30/11
f 12/30/11 88/154/11 7/32/11
f 7/32/11 88/154/11 8/34/11
f 8/34/11 88/154/11 35/36/11
f 35/36/11 88/154/11 1/39/11
f 1/39/11 88/154/11 3/42/11
f 3/42/11 88/154/11 43/45/11
f 43/45/11 88/154/11 44/46/11
f 44/46/11 88/154/11 65/44/11
f 65/44/11 88/154/11 89/155/11
f 88/157/37 79/149/37 84/151/37
f 79/149/37 88/157/37 87/158/37
f 90/158/36 46/159/36 48/160/36
f 81/149/36 46/159/36 90/158/36
f 81/149/36 66/161/36 46/159/36
f 81/149/36 17/162/36 66/161/36
f 81/149/36 19/163/36 17/162/36
f 79/151/36 19/163/36 81/149/36
f 79/151/36 36/164/36 19/163/36
f 36/164/36 79/151/36 87/157/36
f 81/151/39 55/163/39 86/149/39
f 55/163/39 81/151/39 90/157/39
f 55/163/39 90/157/39 56/164/39
f 32/159/39 86/149/39 55/163/39
f 86/149/39 32/159/39 89/158/39
f 32/159/39 55/163/39 72/162/39
f 32/159/39 72/162/39 31/161/39
f 89/158/39 32/159/39 65/160/39
f 48/121/11 56/137/11 90/153/11
f 56/137/11 48/121/11 47/120/11
f 56/137/11 47/120/11 58/123/11
f 56/137/11 58/123/11 52/125/11
f 56/137/11 52/125/11 51/126/11
f 56/137/11 51/126/11 64/128/11
f 56/137/11 64/128/11 38/129/11
f 56/137/11 38/129/11 40/131/11
f 56/137/11 40/131/11 42/132/11
f 56/137/11 42/132/11 62/133/11
f 56/137/11 62/133/11 60/135/11
f 56/137/11 60/135/11 54/136/11
f 86/151/40 88/158/40 84/149/40
f 88/158/40 86/151/40 89/157/40
