# Blender 4.1.1
# www.blender.org
mtllib tile_cornerLarge.002.mtl
o tile_cornerLarge.008
v 0.569481 -0.039364 -0.150000
v 0.708829 -0.086667 -0.150000
v 0.569481 -0.039364 -0.200000
v 0.708829 -0.086667 -0.200000
v 0.437500 0.025721 -0.150000
v 0.437500 0.025721 -0.200000
v 0.282469 -0.732274 -0.150000
v 0.282469 -0.732274 -0.200000
v 0.514714 -0.811111 -0.150000
v 0.514714 -0.811111 -0.200000
v 0.315143 0.107478 -0.150000
v 0.315143 0.107478 -0.200000
v -0.858959 0.755263 -0.200000
v -0.858959 0.755263 -0.150000
v -0.875000 1.000000 -0.200000
v -0.875000 1.000000 -0.150000
v -0.325825 -0.325825 -0.150000
v -0.325825 -0.325825 -0.200000
v -0.141428 -0.487538 -0.150000
v -0.141428 -0.487538 -0.200000
v 0.204505 0.204505 -0.150000
v 0.204505 0.204505 -0.200000
v 1.000000 -0.875000 -0.150000
v 0.755263 -0.858959 -0.150000
v 1.000000 -0.875000 -0.200000
v 0.755263 -0.858959 -0.200000
v 0.062500 -0.623798 -0.150000
v 0.062500 -0.623798 -0.200000
v 0.853158 -0.115375 -0.150000
v 1.000000 -0.125000 -0.150000
v 0.853158 -0.115375 -0.200000
v 1.000000 -0.125000 -0.200000
v -0.487538 -0.141428 -0.200000
v -0.487538 -0.141428 -0.150000
v -0.623798 0.062500 -0.200000
v -0.623798 0.062500 -0.150000
v -0.732274 0.282469 -0.200000
v -0.732274 0.282469 -0.150000
v -0.811111 0.514714 -0.200000
v -0.811111 0.514714 -0.150000
v 1.000000 -0.781250 -0.150000
v 0.767500 -0.766011 -0.150000
v 0.538979 -0.720555 -0.150000
v 0.318345 -0.645660 -0.150000
v 0.109375 -0.542608 -0.150000
v -0.084356 -0.413161 -0.150000
v -0.259534 -0.259534 -0.150000
v -0.413161 -0.084356 -0.150000
v -0.542608 0.109375 -0.150000
v -0.645660 0.318345 -0.150000
v -0.720555 0.538979 -0.150000
v -0.766011 0.767500 -0.150000
v -0.781250 1.000000 -0.150000
v 1.000000 -0.218750 -0.150000
v 0.840921 -0.208323 -0.150000
v 0.684564 -0.177222 -0.150000
v 0.533605 -0.125978 -0.150000
v 0.390625 -0.055468 -0.150000
v 0.258072 0.033101 -0.150000
v 0.138214 0.138214 -0.150000
v 0.107478 0.315143 -0.150000
v 0.033101 0.258072 -0.150000
v 0.025721 0.437500 -0.150000
v -0.055468 0.390625 -0.150000
v -0.039364 0.569481 -0.150000
v -0.086667 0.708829 -0.150000
v -0.125978 0.533605 -0.150000
v -0.115375 0.853158 -0.150000
v -0.125000 1.000000 -0.150000
v -0.218750 1.000000 -0.150000
v -0.177222 0.684564 -0.150000
v -0.208323 0.840921 -0.150000
v 0.107478 0.315143 -0.200000
v 0.025721 0.437500 -0.200000
v -0.039364 0.569481 -0.200000
v -0.086667 0.708829 -0.200000
v -0.115375 0.853158 -0.200000
v -0.125000 1.000000 -0.200000
v -1.000000 -1.000000 0.000000
v 1.000000 -1.000000 0.000000
v -1.000000 -1.000000 -0.100000
v 1.000000 -1.000000 -0.100000
v 1.000000 1.000000 0.000000
v -1.000000 1.000000 0.000000
v 1.000000 1.000000 -0.100000
v -1.000000 1.000000 -0.100000
v 1.000000 1.000000 -0.200000
v -1.000000 1.000000 -0.200000
v -1.000000 -1.000000 -0.200000
v 1.000000 -1.000000 -0.200000
vn -0.3827 -0.9239 -0.0000
vn -0.2588 -0.9659 -0.0000
vn -0.5000 -0.8660 -0.0000
vn 0.2588 0.9659 -0.0000
vn 0.3827 0.9239 -0.0000
vn -0.6088 -0.7934 -0.0000
vn 0.9979 0.0654 -0.0000
vn 0.9914 0.1305 -0.0000
vn 0.6088 0.7933 -0.0000
vn 0.7071 0.7071 -0.0000
vn -0.7071 -0.7071 -0.0000
vn -0.6088 -0.7933 -0.0000
vn 0.0654 0.9979 -0.0000
vn 0.1305 0.9914 -0.0000
vn 0.5000 0.8660 -0.0000
vn 0.6088 0.7934 -0.0000
vn -0.1305 -0.9914 -0.0000
vn -0.0654 -0.9979 -0.0000
vn 0.8660 0.5000 -0.0000
vn 0.7934 0.6088 -0.0000
vn 0.9659 0.2588 -0.0000
vn 0.9239 0.3827 -0.0000
vn 0.7933 0.6088 -0.0000
vn -0.0000 -0.0000 -1.0000
vn -0.8660 -0.5000 -0.0000
vn -0.7934 -0.6088 -0.0000
vn -0.9239 -0.3827 -0.0000
vn -0.9659 -0.2588 -0.0000
vn -0.9914 -0.1305 -0.0000
vn -0.7933 -0.6088 -0.0000
vn -0.9979 -0.0654 -0.0000
vn -0.0000 -1.0000 -0.0000
vn -0.0000 1.0000 -0.0000
vn -1.0000 -0.0000 -0.0000
vn 1.0000 -0.0000 -0.0000
vn -0.0000 -0.0000 1.0000
vt -21.728821 7.874016
vt -27.522409 5.905512
vt -21.728821 5.905512
vt -27.522409 7.874016
vt -15.000220 7.874016
vt -20.793800 5.905512
vt -15.000220 5.905512
vt -20.793800 7.874016
vt 29.453600 5.905512
vt 19.797630 7.874016
vt 19.797630 5.905512
vt 29.453600 7.874016
vt -7.965388 7.874016
vt -13.758970 5.905512
vt -7.965388 5.905512
vt -13.758970 7.874016
vt -41.538849 7.874016
vt -31.882870 5.905512
vt -31.882870 7.874016
vt -41.538849 5.905512
vt 8.469482 5.905512
vt -1.186491 7.874016
vt -1.186491 5.905512
vt 8.469482 7.874016
vt -0.744704 5.905512
vt -6.538288 7.874016
vt -6.538288 5.905512
vt -0.744704 7.874016
vt 41.538849 7.874016
vt 31.882870 5.905512
vt 41.538849 5.905512
vt 31.882870 7.874016
vt 15.690170 5.905512
vt 6.034194 7.874016
vt 6.034194 5.905512
vt 15.690170 7.874016
vt -33.814060 7.874016
vt -39.607651 5.905512
vt -33.814060 5.905512
vt -39.607651 7.874016
vt -15.690170 7.874016
vt -6.034194 5.905512
vt -6.034194 7.874016
vt -15.690170 5.905512
vt -29.453600 7.874016
vt -19.797630 5.905512
vt -19.797630 7.874016
vt -29.453600 5.905512
vt -35.760860 7.874016
vt -26.104891 5.905512
vt -26.104891 7.874016
vt -35.760860 5.905512
vt -8.469482 7.874016
vt 1.186491 5.905512
vt 1.186491 7.874016
vt -8.469482 5.905512
vt 22.725000 7.874016
vt 13.069020 5.905512
vt 22.725000 5.905512
vt 13.069020 7.874016
vt 35.760860 7.874016
vt 26.104891 5.905512
vt 35.760860 5.905512
vt 26.104891 7.874016
vt -22.725000 7.874016
vt -13.069020 5.905512
vt -13.069020 7.874016
vt -22.725000 5.905512
vt -39.370079 -34.448818
vt -30.216539 -30.157921
vt -39.370079 -30.757870
vt -29.734779 -33.817291
vt -21.219629 -28.368320
vt -20.264339 -31.933500
vt -12.533270 -25.419701
vt -11.120810 -28.829691
vt -4.306102 -21.362511
vt -2.460630 -24.558960
vt 3.321114 -16.266171
vt 5.568019 -19.194389
vt 10.217870 -10.217870
vt 12.827760 -12.827760
vt 16.266171 -3.321114
vt 19.194389 -5.568019
vt 21.362511 4.306102
vt 24.558960 2.460630
vt 25.419701 12.533270
vt 28.829691 11.120810
vt 28.368320 21.219629
vt 30.157921 30.216539
vt 31.933500 20.264339
vt 30.757870 39.370079
vt 34.448818 39.370079
vt 33.817291 29.734779
vt -39.370079 -8.612205
vt -33.588902 -4.542341
vt -39.370079 -4.921260
vt -33.107140 -8.201710
vt -27.906639 -3.412069
vt -26.951349 -6.977248
vt -22.420521 -1.549782
vt -21.008051 -4.959771
vt -17.224409 1.012654
vt -15.378940 -2.183798
vt -12.407220 4.231397
vt -10.160320 1.303174
vt -8.051373 8.051373
vt -5.441481 5.441481
vt -4.231397 12.407220
vt -1.303174 10.160320
vt -1.012654 17.224409
vt 2.183798 15.378940
vt 1.549782 22.420521
vt 3.412069 27.906639
vt 4.959771 21.008051
vt 4.542341 33.588902
vt 4.921260 39.370079
vt 8.612205 39.370079
vt 6.977248 26.951349
vt 8.201710 33.107140
vt -28.036079 7.874016
vt -33.829670 5.905512
vt -28.036079 5.905512
vt -33.829670 7.874016
vt 13.758970 5.905512
vt 7.965388 7.874016
vt 7.965388 5.905512
vt 13.758970 7.874016
vt 20.793800 5.905512
vt 15.000220 7.874016
vt 15.000220 5.905512
vt 20.793800 7.874016
vt 27.522409 5.905512
vt 21.728821 7.874016
vt 21.728821 5.905512
vt 27.522409 7.874016
vt 33.829670 5.905512
vt 28.036079 7.874016
vt 28.036079 5.905512
vt 33.829670 7.874016
vt 6.538288 5.905512
vt 0.744704 7.874016
vt 0.744704 5.905512
vt 6.538288 7.874016
vt 39.607651 5.905512
vt 33.814060 7.874016
vt 33.814060 5.905512
vt 39.607651 7.874016
vt 39.370079 3.937008
vt -39.370079 0.000000
vt 39.370079 0.000000
vt -39.370079 3.937008
vt 39.370079 39.370079
vt -39.370079 -39.370079
vt 39.370079 -39.370079
vt -39.370079 39.370079
vt 39.370079 7.874016
vt -4.921260 5.905512
vt -8.612205 5.905512
vt -4.921260 7.874016
vt -34.448818 5.905512
vt -30.757870 5.905512
vt -39.370079 7.874016
vt -34.448818 7.874016
vt 4.921260 5.905512
vt 4.921260 7.874016
vt 8.612205 5.905512
vt 30.757870 5.905512
vt 34.448818 5.905512
vt 34.448818 7.874016
s 0
usemtl dirtDark
f 3/1/1 2/2/2 1/3/1
f 2/2/2 3/1/1 4/4/2
f 6/5/3 1/6/1 5/7/3
f 1/6/1 6/5/3 3/8/1
f 9/9/4 8/10/5 7/11/5
f 8/10/5 9/9/4 10/12/4
f 12/13/6 5/14/3 11/15/6
f 5/14/3 12/13/6 6/16/3
f 15/17/7 14/18/8 13/19/8
f 14/18/8 15/17/7 16/20/7
f 19/21/9 18/22/10 17/23/10
f 18/22/10 19/21/9 20/24/9
f 21/25/11 12/26/12 11/27/12
f 12/26/12 21/25/11 22/28/11
f 25/29/13 24/30/14 23/31/13
f 24/30/14 25/29/13 26/32/14
f 27/33/15 20/34/16 19/35/16
f 20/34/16 27/33/15 28/36/15
f 31/37/17 30/38/18 29/39/17
f 30/38/18 31/37/17 32/40/18
f 35/41/19 34/42/20 33/43/20
f 34/42/20 35/41/19 36/44/19
f 39/45/21 38/46/22 37/47/22
f 38/46/22 39/45/21 40/48/21
f 13/49/8 40/50/21 39/51/21
f 40/50/21 13/49/8 14/52/8
f 33/53/23 17/54/10 18/55/10
f 17/54/10 33/53/23 34/56/23
f 8/57/5 27/58/15 7/59/5
f 27/58/15 8/57/5 28/60/15
f 26/61/14 9/62/4 24/63/14
f 9/62/4 26/61/14 10/64/4
f 37/65/22 36/66/19 35/67/19
f 36/66/19 37/65/22 38/68/22
f 23/69/24 42/70/24 41/71/24
f 42/70/24 23/69/24 24/72/24
f 42/70/24 24/72/24 43/73/24
f 43/73/24 24/72/24 9/74/24
f 43/73/24 9/74/24 44/75/24
f 44/75/24 9/74/24 7/76/24
f 44/75/24 7/76/24 45/77/24
f 45/77/24 7/76/24 27/78/24
f 45/77/24 27/78/24 46/79/24
f 46/79/24 27/78/24 19/80/24
f 46/79/24 19/80/24 47/81/24
f 47/81/24 19/80/24 17/82/24
f 47/81/24 17/82/24 48/83/24
f 48/83/24 17/82/24 34/84/24
f 48/83/24 34/84/24 49/85/24
f 49/85/24 34/84/24 36/86/24
f 49/85/24 36/86/24 50/87/24
f 50/87/24 36/86/24 38/88/24
f 50/87/24 38/88/24 51/89/24
f 51/89/24 38/88/24 52/90/24
f 52/90/24 38/88/24 40/91/24
f 52/90/24 40/91/24 53/92/24
f 53/92/24 40/91/24 16/93/24
f 16/93/24 40/91/24 14/94/24
f 54/95/24 29/96/24 30/97/24
f 29/96/24 54/95/24 55/98/24
f 29/96/24 55/98/24 2/99/24
f 2/99/24 55/98/24 56/100/24
f 2/99/24 56/100/24 1/101/24
f 1/101/24 56/100/24 57/102/24
f 1/101/24 57/102/24 5/103/24
f 5/103/24 57/102/24 58/104/24
f 5/103/24 58/104/24 11/105/24
f 11/105/24 58/104/24 59/106/24
f 11/105/24 59/106/24 21/107/24
f 21/107/24 59/106/24 60/108/24
f 21/107/24 60/108/24 61/109/24
f 61/109/24 60/108/24 62/110/24
f 61/109/24 62/110/24 63/111/24
f 63/111/24 62/110/24 64/112/24
f 63/111/24 64/112/24 65/113/24
f 65/113/24 64/112/24 66/114/24
f 66/114/24 64/112/24 67/115/24
f 66/114/24 67/115/24 68/116/24
f 68/116/24 67/115/24 69/117/24
f 69/117/24 67/115/24 70/118/24
f 70/118/24 67/115/24 71/119/24
f 70/118/24 71/119/24 72/120/24
f 4/121/2 29/122/17 2/123/2
f 29/122/17 4/121/2 31/124/17
f 63/125/25 73/126/26 61/127/26
f 73/126/26 63/125/25 74/128/25
f 65/129/27 74/130/25 63/131/25
f 74/130/25 65/129/27 75/132/27
f 66/133/28 75/134/27 65/135/27
f 75/134/27 66/133/28 76/136/28
f 68/137/29 76/138/28 66/139/28
f 76/138/28 68/137/29 77/140/29
f 61/141/30 22/142/11 21/143/11
f 22/142/11 61/141/30 73/144/30
f 69/145/31 77/146/29 68/147/29
f 77/146/29 69/145/31 78/148/31
usemtl dirt.002
f 81/149/32 80/150/32 79/151/32
f 80/150/32 81/149/32 82/152/32
f 85/149/33 84/150/33 83/151/33
f 84/150/33 85/149/33 86/152/33
f 84/151/34 81/152/34 79/150/34
f 81/152/34 84/151/34 86/149/34
f 85/152/35 80/151/35 82/149/35
f 80/151/35 85/152/35 83/150/35
f 41/71/24 55/98/24 54/95/24
f 55/98/24 41/71/24 42/70/24
f 55/98/24 42/70/24 56/100/24
f 56/100/24 42/70/24 43/73/24
f 56/100/24 43/73/24 57/102/24
f 57/102/24 43/73/24 44/75/24
f 57/102/24 44/75/24 58/104/24
f 58/104/24 44/75/24 59/106/24
f 59/106/24 44/75/24 45/77/24
f 59/106/24 45/77/24 60/108/24
f 60/108/24 45/77/24 62/110/24
f 62/110/24 45/77/24 46/79/24
f 62/110/24 46/79/24 64/112/24
f 64/112/24 46/79/24 67/115/24
f 67/115/24 46/79/24 47/81/24
f 67/115/24 47/81/24 71/119/24
f 71/119/24 47/81/24 72/120/24
f 72/120/24 47/81/24 70/118/24
f 70/118/24 47/81/24 53/92/24
f 53/92/24 47/81/24 48/83/24
f 53/92/24 48/83/24 49/85/24
f 53/92/24 49/85/24 50/87/24
f 53/92/24 50/87/24 51/89/24
f 53/92/24 51/89/24 52/90/24
f 83/153/36 79/154/36 80/155/36
f 79/154/36 83/153/36 84/156/36
usemtl _defaultMat
f 85/26/36 81/25/36 82/28/36
f 81/26/36 85/25/36 86/28/36
usemtl foliage.002
f 87/157/33 86/152/33 85/149/33
f 86/152/33 87/157/33 69/158/33
f 86/152/33 69/158/33 70/159/33
f 69/158/33 87/157/33 78/160/33
f 16/161/33 86/152/33 70/159/33
f 53/162/33 16/161/33 70/159/33
f 86/152/33 16/161/33 88/163/33
f 88/163/33 16/161/33 15/164/33
f 86/149/34 89/163/34 81/152/34
f 89/163/34 86/149/34 88/157/34
f 90/154/24 26/72/24 25/69/24
f 26/72/24 90/154/24 89/155/24
f 26/72/24 89/155/24 10/74/24
f 10/74/24 89/155/24 8/76/24
f 8/76/24 89/155/24 28/78/24
f 28/78/24 89/155/24 20/80/24
f 20/80/24 89/155/24 18/82/24
f 18/82/24 89/155/24 33/84/24
f 33/84/24 89/155/24 35/86/24
f 35/86/24 89/155/24 37/88/24
f 37/88/24 89/155/24 39/91/24
f 39/91/24 89/155/24 13/94/24
f 13/94/24 89/155/24 15/93/24
f 15/93/24 89/155/24 88/153/24
f 89/157/32 82/152/32 81/149/32
f 82/152/32 89/157/32 90/163/32
f 31/96/24 87/156/24 32/97/24
f 87/156/24 31/96/24 78/117/24
f 78/117/24 31/96/24 4/99/24
f 78/117/24 4/99/24 3/101/24
f 78/117/24 3/101/24 6/103/24
f 78/117/24 6/103/24 12/105/24
f 78/117/24 12/105/24 22/107/24
f 78/117/24 22/107/24 73/109/24
f 78/117/24 73/109/24 74/111/24
f 78/117/24 74/111/24 75/113/24
f 78/117/24 75/113/24 76/114/24
f 78/117/24 76/114/24 77/116/24
f 87/163/35 30/165/35 32/166/35
f 85/152/35 30/165/35 87/163/35
f 85/152/35 54/167/35 30/165/35
f 85/152/35 41/168/35 54/167/35
f 85/152/35 23/169/35 41/168/35
f 82/149/35 23/169/35 85/152/35
f 82/149/35 25/170/35 23/169/35
f 25/170/35 82/149/35 90/157/35
