# Blender 4.1.1
# www.blender.org
mtllib tile_straightHill.mtl
o tile_straightHill
v -0.500000 -0.500000 -0.300000
v -0.500000 -0.500000 -0.400000
v -0.500000 0.500000 -0.100000
v -0.500000 0.500000 -0.200000
v 0.500000 -0.500000 -0.300000
v -0.375000 -0.500000 -0.350000
v -0.375000 -0.500000 -0.400000
v 0.375000 -0.500000 -0.350000
v 0.500000 -0.500000 -0.400000
v -0.281250 -0.500000 -0.350000
v 0.281250 -0.500000 -0.350000
v 0.375000 -0.500000 -0.400000
v 0.500000 0.500000 -0.100000
v 0.500000 0.500000 -0.200000
v 0.375000 0.500000 -0.200000
v 0.375000 0.500000 -0.150000
v -0.375000 0.500000 -0.150000
v 0.281250 0.500000 -0.150000
v -0.281250 0.500000 -0.150000
v -0.375000 0.500000 -0.200000
v 0.500000 -0.500000 0.000000
v 0.500000 0.500000 0.000000
v -0.500000 -0.500000 0.000000
v -0.500000 0.500000 0.000000
vn -1.0000 -0.0000 -0.0000
vn -0.0000 -1.0000 -0.0000
vn 1.0000 -0.0000 -0.0000
vn -0.0000 0.1961 -0.9806
vn -0.0000 1.0000 -0.0000
vn -0.0000 -0.0000 1.0000
vt 19.685040 3.937008
vt -19.685040 15.748030
vt -19.685040 11.811020
vt 19.685040 7.874016
vt 19.685040 11.811020
vt 14.763780 13.779530
vt 19.685040 15.748030
vt 14.763780 15.748030
vt -14.763780 13.779530
vt 11.072830 13.779530
vt -11.072830 13.779530
vt -14.763780 15.748030
vt -19.685040 3.937008
vt -19.685040 7.874016
vt 14.763780 22.391211
vt 19.685040 -17.758551
vt 19.685040 22.391211
vt 14.763780 -17.758551
vt 14.763780 5.905512
vt 14.763780 7.874016
vt -14.763780 5.905512
vt 11.072830 5.905512
vt -11.072830 5.905512
vt -14.763780 7.874016
vt -19.685040 22.391211
vt -14.763780 -17.758551
vt -14.763780 22.391211
vt -19.685040 -17.758551
vt -14.763780 22.005159
vt -11.072830 -18.144600
vt -11.072830 22.005159
vt -14.763780 -18.144600
vt 19.685040 13.779530
vt -19.685040 5.905512
vt 11.072830 22.005159
vt 14.763780 -18.144600
vt 14.763780 22.005159
vt 11.072830 -18.144600
vt 19.685040 5.905512
vt -19.685040 13.779530
vt 19.685040 0.000000
vt -19.685040 0.000000
vt 19.685040 19.685040
vt -19.685040 -19.685040
vt 19.685040 -19.685040
vt -19.685040 19.685040
vt -19.685040 0.000000
vt 19.685040 0.000000
s 0
usemtl foliage.022
f 3/1/1 2/2/1 1/3/1
f 2/2/1 3/1/1 4/4/1
f 1/5/2 6/6/2 5/3/2
f 6/6/2 1/5/2 2/7/2
f 6/6/2 2/7/2 7/8/2
f 8/9/2 5/3/2 6/6/2
f 5/3/2 8/9/2 9/2/2
f 8/9/2 6/6/2 10/10/2
f 8/9/2 10/10/2 11/11/2
f 9/2/2 8/9/2 12/12/2
f 9/7/3 13/13/3 5/5/3
f 13/13/3 9/7/3 14/14/3
f 12/15/4 14/16/4 9/17/4
f 14/16/4 12/15/4 15/18/4
f 13/1/5 16/19/5 3/13/5
f 16/19/5 13/1/5 14/4/5
f 16/19/5 14/4/5 15/20/5
f 17/21/5 3/13/5 16/19/5
f 3/13/5 17/21/5 4/14/5
f 17/21/5 16/19/5 18/22/5
f 17/21/5 18/22/5 19/23/5
f 4/14/5 17/21/5 20/24/5
f 2/25/4 20/26/4 7/27/4
f 20/26/4 2/25/4 4/28/4
usemtl dirtDark.009
f 6/29/4 19/30/4 10/31/4
f 19/30/4 6/29/4 17/32/4
f 20/14/3 6/33/3 7/7/3
f 6/33/3 20/14/3 17/34/3
f 11/35/4 16/36/4 8/37/4
f 16/36/4 11/35/4 18/38/4
f 16/39/1 12/2/1 8/40/1
f 12/2/1 16/39/1 15/4/1
usemtl dirt.023
f 13/13/3 21/41/3 5/5/3
f 21/41/3 13/13/3 22/42/3
f 23/42/1 3/1/1 1/3/1
f 3/1/1 23/42/1 24/41/1
f 10/31/4 18/38/4 11/35/4
f 18/38/4 10/31/4 19/30/4
f 22/43/6 23/44/6 21/45/6
f 23/44/6 22/43/6 24/46/6
f 13/1/5 24/42/5 22/41/5
f 24/42/5 13/1/5 3/13/5
f 1/5/2 21/47/2 23/48/2
f 21/47/2 1/5/2 5/3/2
