# Blender 4.1.1
# www.blender.org
mtllib tile_straight.009.mtl
o tile_straight.007
v 0.500000 0.500000 0.000000
v 0.500000 -0.500000 0.000000
v -0.500000 0.500000 0.000000
v -0.500000 -0.500000 0.000000
v 0.500000 0.500000 -0.100000
v -0.500000 0.500000 -0.100000
v -0.500000 -0.500000 -0.100000
v 0.500000 -0.500000 -0.100000
v 0.281250 -0.500000 -0.150000
v 0.281250 0.500000 -0.150000
v -0.281250 -0.500000 -0.150000
v -0.281250 0.500000 -0.150000
v 0.375000 0.500000 -0.150000
v 0.500000 0.500000 -0.200000
v 0.375000 0.500000 -0.200000
v -0.375000 0.500000 -0.150000
v -0.500000 0.500000 -0.200000
v -0.375000 0.500000 -0.200000
v -0.375000 -0.500000 -0.150000
v -0.500000 -0.500000 -0.200000
v -0.375000 -0.500000 -0.200000
v 0.375000 -0.500000 -0.150000
v 0.500000 -0.500000 -0.200000
v 0.375000 -0.500000 -0.200000
v 0.500000 -0.500000 0.000000
v 0.500000 -1.500000 0.000000
v -0.500000 -0.500000 0.000000
v -0.500000 -1.500000 0.000000
v 0.500000 -0.500000 -0.100000
v -0.500000 -0.500000 -0.100000
v -0.500000 -1.500000 -0.100000
v 0.500000 -1.500000 -0.100000
v 0.281250 -1.500000 -0.150000
v 0.281250 -0.500000 -0.150000
v -0.281250 -1.500000 -0.150000
v -0.281250 -0.500000 -0.150000
v 0.375000 -0.500000 -0.150000
v 0.500000 -0.500000 -0.200000
v 0.375000 -0.500000 -0.200000
v -0.375000 -0.500000 -0.150000
v -0.500000 -0.500000 -0.200000
v -0.375000 -0.500000 -0.200000
v -0.375000 -1.500000 -0.150000
v -0.500000 -1.500000 -0.200000
v -0.375000 -1.500000 -0.200000
v 0.375000 -1.500000 -0.150000
v 0.500000 -1.500000 -0.200000
v 0.375000 -1.500000 -0.200000
vn -0.0000 -0.0000 1.0000
vn -0.0000 1.0000 -0.0000
vn -1.0000 -0.0000 -0.0000
vn -0.0000 -1.0000 -0.0000
vn 1.0000 -0.0000 -0.0000
vn -0.0000 -0.0000 -1.0000
vt -19.685040 19.685040
vt 19.685040 -19.685040
vt 19.685040 19.685040
vt -19.685040 -19.685040
vt 19.685040 3.937008
vt -19.685040 0.000000
vt 19.685040 0.000000
vt -19.685040 3.937008
vt 11.072830 -19.685040
vt -11.072830 19.685040
vt -11.072830 -19.685040
vt 11.072830 19.685040
vt 14.763780 5.905512
vt 19.685040 7.874016
vt 14.763780 7.874016
vt -14.763780 5.905512
vt -19.685040 7.874016
vt 11.072830 5.905512
vt -11.072830 5.905512
vt -14.763780 7.874016
vt 14.763780 -19.685040
vt 14.763780 19.685040
vt -14.763780 19.685040
vt -14.763780 -19.685040
vt 19.685040 5.905512
vt -19.685040 5.905512
s 0
usemtl dirt.022
f 3/1/1 2/2/1 1/3/1
f 2/2/1 3/1/1 4/4/1
f 5/5/2 3/6/2 1/7/2
f 3/6/2 5/5/2 6/8/2
f 3/7/3 7/8/3 4/6/3
f 7/8/3 3/7/3 6/5/3
f 7/5/4 2/6/4 4/7/4
f 2/6/4 7/5/4 8/8/4
f 5/8/5 2/7/5 8/5/5
f 2/7/5 5/8/5 1/6/5
f 11/9/6 10/10/6 9/11/6
f 10/10/6 11/9/6 12/12/6
f 27/1/1 26/2/1 25/3/1
f 26/2/1 27/1/1 28/4/1
f 29/5/2 27/6/2 25/7/2
f 27/6/2 29/5/2 30/8/2
f 27/7/3 31/8/3 28/6/3
f 31/8/3 27/7/3 30/5/3
f 31/5/4 26/6/4 28/7/4
f 26/6/4 31/5/4 32/8/4
f 29/8/5 26/7/5 32/5/5
f 26/7/5 29/8/5 25/6/5
f 35/9/6 34/10/6 33/11/6
f 34/10/6 35/9/6 36/12/6
usemtl foliage.021
f 5/5/2 13/13/2 6/8/2
f 13/13/2 5/5/2 14/14/2
f 13/13/2 14/14/2 15/15/2
f 16/16/2 6/8/2 13/13/2
f 6/8/2 16/16/2 17/17/2
f 16/16/2 13/13/2 10/18/2
f 16/16/2 10/18/2 12/19/2
f 17/17/2 16/16/2 18/20/2
f 7/5/4 19/13/4 8/8/4
f 19/13/4 7/5/4 20/14/4
f 19/13/4 20/14/4 21/15/4
f 22/16/4 8/8/4 19/13/4
f 8/8/4 22/16/4 23/17/4
f 22/16/4 19/13/4 11/18/4
f 22/16/4 11/18/4 9/19/4
f 23/17/4 22/16/4 24/20/4
f 14/17/5 8/5/5 23/14/5
f 8/5/5 14/17/5 5/8/5
f 6/5/3 20/17/3 7/8/3
f 20/17/3 6/5/3 17/14/3
f 21/21/6 17/3/6 18/22/6
f 17/3/6 21/21/6 20/2/6
f 23/4/6 15/23/6 14/1/6
f 15/23/6 23/4/6 24/24/6
f 29/5/2 37/13/2 30/8/2
f 37/13/2 29/5/2 38/14/2
f 37/13/2 38/14/2 39/15/2
f 40/16/2 30/8/2 37/13/2
f 30/8/2 40/16/2 41/17/2
f 40/16/4 37/13/4 34/18/4
f 40/16/2 34/18/2 36/19/2
f 41/17/2 40/16/2 42/20/2
f 31/5/4 43/13/4 32/8/4
f 43/13/4 31/5/4 44/14/4
f 43/13/4 44/14/4 45/15/4
f 46/16/4 32/8/4 43/13/4
f 32/8/4 46/16/4 47/17/4
f 46/16/2 43/13/2 35/18/2
f 46/16/4 35/18/4 33/19/4
f 47/17/4 46/16/4 48/20/4
f 38/17/5 32/5/5 47/14/5
f 32/5/5 38/17/5 29/8/5
f 30/5/3 44/17/3 31/8/3
f 44/17/3 30/5/3 41/14/3
f 45/21/6 41/3/6 42/22/6
f 41/3/6 45/21/6 44/2/6
f 47/4/6 39/23/6 38/1/6
f 39/23/6 47/4/6 48/24/6
usemtl dirtDark.008
f 18/17/5 19/25/5 21/14/5
f 19/25/5 18/17/5 16/26/5
f 13/25/3 24/17/3 22/26/3
f 24/17/3 13/25/3 15/14/3
f 11/9/6 16/22/6 12/12/6
f 16/22/6 11/9/6 19/21/6
f 22/24/6 10/10/6 13/23/6
f 10/10/6 22/24/6 9/11/6
f 42/17/5 43/25/5 45/14/5
f 43/25/5 42/17/5 40/26/5
f 37/25/3 48/17/3 46/26/3
f 48/17/3 37/25/3 39/14/3
f 35/9/6 40/22/6 36/12/6
f 40/22/6 35/9/6 43/21/6
f 46/24/6 34/10/6 37/23/6
f 34/10/6 46/24/6 33/11/6
