# Blender 4.1.1
# www.blender.org
mtllib tile_tree.mtl
o tile_tree.002
v 0.500000 0.500000 0.000000
v 0.500000 -0.500000 0.000000
v -0.500000 0.500000 0.000000
v -0.500000 -0.500000 0.000000
v 0.500000 -0.500000 -0.100000
v 0.500000 0.500000 -0.100000
v -0.500000 0.500000 -0.100000
v -0.500000 -0.500000 -0.100000
v 0.500000 -0.500000 -0.200000
v 0.500000 0.500000 -0.200000
v -0.500000 -0.500000 -0.200000
v -0.500000 0.500000 -0.200000
v -0.000000 0.200000 -0.600000
v -0.141421 0.141421 -0.600000
v -0.000000 0.032000 -0.960000
v -0.022627 0.022627 -0.960000
v -0.200000 0.000000 -0.600000
v -0.032000 0.000000 -0.960000
v 0.032000 0.000000 -0.960000
v 0.022627 0.022627 -0.960000
v 0.022627 -0.022627 -0.960000
v -0.000000 -0.032000 -0.960000
v -0.022627 -0.022627 -0.960000
v -0.176777 -0.176777 -0.400000
v -0.119194 -0.119194 -0.550000
v -0.250000 0.000000 -0.400000
v -0.168566 0.000000 -0.550000
v 0.200000 0.000000 -0.600000
v 0.200000 0.000000 -0.550000
v 0.141421 0.141421 -0.600000
v 0.141421 0.141421 -0.550000
v 0.168566 -0.000000 -0.550000
v 0.250000 0.000000 -0.400000
v 0.119194 0.119194 -0.550000
v 0.176777 0.176777 -0.400000
v -0.000000 0.250000 -0.400000
v -0.176777 0.176777 -0.400000
v -0.000000 0.168566 -0.550000
v -0.119194 0.119194 -0.550000
v -0.200000 0.000000 -0.550000
v -0.141421 0.141421 -0.550000
v -0.141421 -0.141421 -0.550000
v -0.000000 -0.200000 -0.550000
v -0.141421 -0.141421 -0.600000
v -0.000000 -0.200000 -0.600000
v 0.250000 0.000000 -0.350000
v 0.176777 -0.176777 -0.350000
v 0.176777 0.176777 -0.350000
v -0.000000 0.250000 -0.350000
v 0.053125 0.053125 -0.350000
v 0.053125 -0.053125 -0.350000
v -0.053125 0.053125 -0.350000
v -0.176777 0.176777 -0.350000
v -0.000000 -0.250000 -0.350000
v -0.053125 -0.053125 -0.350000
v -0.176777 -0.176777 -0.350000
v -0.250000 0.000000 -0.350000
v 0.176777 -0.176777 -0.400000
v -0.000000 -0.250000 -0.400000
v 0.119194 -0.119194 -0.550000
v -0.000000 0.200000 -0.550000
v 0.141421 -0.141421 -0.550000
v -0.000000 -0.168566 -0.550000
v 0.141421 -0.141421 -0.600000
v -0.062500 -0.062500 -0.200000
v 0.062500 -0.062500 -0.200000
v 0.062500 0.062500 -0.200000
v -0.062500 0.062500 -0.200000
vn -0.0000 -0.0000 1.0000
vn 1.0000 -0.0000 -0.0000
vn -0.0000 1.0000 -0.0000
vn -1.0000 -0.0000 -0.0000
vn -0.0000 -1.0000 -0.0000
vn -0.0000 -0.0000 -1.0000
vn -0.3514 0.8484 -0.3959
vn -0.8484 0.3514 -0.3959
vn -0.8258 -0.3421 -0.4483
vn 0.9239 0.3827 -0.0000
vn 0.8258 0.3421 -0.4483
vn 0.8484 0.3514 -0.3959
vn -0.3421 0.8258 -0.4483
vn -0.9239 0.3827 -0.0000
vn 0.3514 0.8484 -0.3959
vn -0.3827 -0.9239 -0.0000
vn -0.8258 0.3421 -0.4483
vn -0.3514 -0.8484 -0.3959
vn 0.9239 -0.3827 -0.0000
vn 0.3827 -0.9239 -0.0000
vn -0.9239 -0.3827 -0.0000
vn 0.8258 -0.3421 -0.4483
vn -0.3827 0.9239 -0.0000
vn 0.3827 0.9239 -0.0000
vn -0.3421 -0.8258 -0.4483
vn 0.3514 -0.8484 -0.3959
vn 0.3421 0.8258 -0.4483
vn 0.8484 -0.3514 -0.3959
vn 0.3421 -0.8258 -0.4483
vn -0.8484 -0.3514 -0.3959
vn -0.0000 -0.9981 -0.0624
vn 0.9981 -0.0000 -0.0624
vn -0.9981 -0.0000 -0.0624
vn -0.0000 0.9981 -0.0624
vt -19.685040 19.685040
vt 19.685040 -19.685040
vt 19.685040 19.685040
vt -19.685040 -19.685040
vt -19.685040 3.937008
vt 19.685040 0.000000
vt 19.685040 3.937008
vt -19.685040 0.000000
vt -19.685040 7.874016
vt 19.685040 7.874016
vt 0.964242 54.030998
vt -6.026511 23.162180
vt 6.026511 23.162180
vt -0.964242 54.030998
vt -1.781686 -1.781686
vt -1.781686 1.781686
vt -2.519685 0.000000
vt 0.000000 -2.519685
vt 0.000000 2.519685
vt 1.781686 -1.781686
vt 1.781686 1.781686
vt 2.519685 0.000000
vt 7.533138 5.922946
vt -5.079325 19.136360
vt -7.533138 5.922946
vt 5.079325 19.136360
vt -6.026511 31.496059
vt 6.026511 27.559059
vt 6.026511 31.496059
vt -6.026511 27.559059
vt 13.919430 13.919430
vt 13.919430 -13.919430
vt -0.000000 19.685040
vt 4.183071 4.183071
vt 4.183071 -4.183071
vt -4.183071 4.183071
vt -13.919430 13.919430
vt -0.000000 -19.685040
vt -4.183071 -4.183071
vt -13.919430 -13.919430
vt -7.533138 15.748030
vt 7.533138 11.811020
vt 7.533138 15.748030
vt -7.533138 11.811020
vt 11.135540 11.135540
vt 13.272910 -0.000000
vt 15.748030 0.000000
vt 9.385368 9.385368
vt -0.000000 15.748030
vt -0.000000 13.272910
vt -9.385368 9.385368
vt -11.135540 11.135540
vt -13.272910 0.000000
vt -15.748030 0.000000
vt 11.135540 -11.135540
vt 9.385368 -9.385368
vt -0.000000 -15.748030
vt -0.000000 -13.272910
vt -9.385368 -9.385368
vt -11.135540 -11.135540
vt 4.183071 11.527090
vt -4.921260 -0.306980
vt 4.921260 -0.306980
vt -4.183071 11.527090
vt 4.921260 4.921260
vt -4.921260 -4.921260
vt 4.921260 -4.921260
vt -4.921260 4.921260
s 0
usemtl dirt.026
f 3/1/1 2/2/1 1/3/1
f 2/2/1 3/1/1 4/4/1
f 6/5/2 2/6/2 5/7/2
f 2/6/2 6/5/2 1/8/2
f 6/7/3 3/8/3 1/6/3
f 3/8/3 6/7/3 7/5/3
f 3/6/4 8/5/4 4/8/4
f 8/5/4 3/6/4 7/7/4
f 8/7/5 2/8/5 4/6/5
f 2/8/5 8/7/5 5/5/5
usemtl foliage.025
f 11/2/6 10/1/6 9/4/6
f 10/1/6 11/2/6 12/3/6
f 10/9/2 5/7/2 9/10/2
f 5/7/2 10/9/2 6/5/2
f 11/10/5 5/5/5 8/7/5
f 5/5/5 11/10/5 9/9/5
f 7/7/4 11/9/4 8/5/4
f 11/9/4 7/7/4 12/10/4
f 10/10/3 7/5/3 6/7/3
f 7/5/3 10/10/3 12/9/3
f 15/11/7 14/12/7 13/13/7
f 14/12/7 15/11/7 16/14/7
f 14/13/8 18/14/8 17/12/8
f 18/14/8 14/13/8 16/11/8
f 21/15/6 20/16/6 19/17/6
f 20/16/6 21/15/6 22/18/6
f 20/16/6 22/18/6 15/19/6
f 15/19/6 22/18/6 23/20/6
f 15/19/6 23/20/6 16/21/6
f 16/21/6 23/20/6 18/22/6
f 26/23/9 25/24/9 24/25/9
f 25/24/9 26/23/9 27/26/9
f 30/27/10 29/28/10 28/29/10
f 29/28/10 30/27/10 31/30/10
f 34/24/11 33/23/11 32/26/11
f 33/23/11 34/24/11 35/25/11
f 20/14/12 28/13/12 19/11/12
f 28/13/12 20/14/12 30/12/12
f 38/26/13 37/25/13 36/23/13
f 37/25/13 38/26/13 39/24/13
f 41/28/14 17/27/14 40/30/14
f 17/27/14 41/28/14 14/29/14
f 20/11/15 13/12/15 30/13/15
f 13/12/15 20/11/15 15/14/15
f 44/29/16 43/30/16 42/28/16
f 43/30/16 44/29/16 45/27/16
f 48/31/1 47/32/1 46/6/1
f 47/32/1 48/31/1 49/33/1
f 47/32/1 49/33/1 50/34/1
f 47/32/1 50/34/1 51/35/1
f 50/34/1 49/33/1 52/36/1
f 52/36/1 49/33/1 53/37/1
f 51/35/1 54/38/1 47/32/1
f 54/38/1 51/35/1 55/39/1
f 54/38/1 55/39/1 56/40/1
f 56/40/1 55/39/1 52/36/1
f 56/40/1 52/36/1 53/37/1
f 56/40/1 53/37/1 57/8/1
f 37/23/17 27/24/17 26/25/17
f 27/24/17 37/23/17 39/26/17
f 23/11/18 45/12/18 44/13/18
f 45/12/18 23/11/18 22/14/18
f 33/41/19 47/42/19 58/43/19
f 47/42/19 33/41/19 46/44/19
f 59/43/20 47/44/20 54/42/20
f 47/44/20 59/43/20 58/41/20
f 35/41/10 46/42/10 33/43/10
f 46/42/10 35/41/10 48/44/10
f 40/28/21 44/27/21 42/30/21
f 44/27/21 40/28/21 17/29/21
f 60/26/22 33/25/22 58/23/22
f 33/25/22 60/26/22 32/24/22
f 36/43/23 53/44/23 49/42/23
f 53/44/23 36/43/23 37/41/23
f 31/45/1 32/46/1 29/47/1
f 32/46/1 31/45/1 34/48/1
f 34/48/1 31/45/1 61/49/1
f 34/48/1 61/49/1 38/50/1
f 38/50/1 61/49/1 39/51/1
f 39/51/1 61/49/1 41/52/1
f 39/51/1 41/52/1 27/53/1
f 27/53/1 41/52/1 40/54/1
f 32/46/1 62/55/1 29/47/1
f 62/55/1 32/46/1 60/56/1
f 62/55/1 60/56/1 43/57/1
f 43/57/1 60/56/1 63/58/1
f 43/57/1 63/58/1 25/59/1
f 43/57/1 25/59/1 42/60/1
f 42/60/1 25/59/1 27/53/1
f 42/60/1 27/53/1 40/54/1
f 45/29/20 62/30/20 43/28/20
f 62/30/20 45/29/20 64/27/20
f 28/27/19 62/28/19 64/29/19
f 62/28/19 28/27/19 29/30/19
f 30/29/24 61/30/24 31/28/24
f 61/30/24 30/29/24 13/27/24
f 13/29/23 41/30/23 61/28/23
f 41/30/23 13/29/23 14/27/23
f 53/42/14 26/41/14 57/44/14
f 26/41/14 53/42/14 37/43/14
f 25/26/25 59/25/25 24/23/25
f 59/25/25 25/26/25 63/24/25
f 22/11/26 64/12/26 45/13/26
f 64/12/26 22/11/26 21/14/26
f 34/26/27 36/25/27 35/23/27
f 36/25/27 34/26/27 38/24/27
f 21/11/28 28/12/28 64/13/28
f 28/12/28 21/11/28 19/14/28
f 63/26/29 58/25/29 59/23/29
f 58/25/29 63/26/29 60/24/29
f 24/43/16 54/44/16 56/42/16
f 54/44/16 24/43/16 59/41/16
f 17/13/30 23/14/30 44/12/30
f 23/14/30 17/13/30 18/11/30
f 57/42/21 24/41/21 56/44/21
f 24/41/21 57/42/21 26/43/21
f 35/43/24 49/44/24 48/42/24
f 49/44/24 35/43/24 36/41/24
usemtl wood.001
f 55/61/31 66/62/31 65/63/31
f 66/62/31 55/61/31 51/64/31
f 51/61/32 67/62/32 66/63/32
f 67/62/32 51/61/32 50/64/32
f 68/63/33 55/64/33 65/62/33
f 55/64/33 68/63/33 52/61/33
f 50/61/34 68/62/34 67/63/34
f 68/62/34 50/61/34 52/64/34
f 67/65/1 65/66/1 66/67/1
f 65/66/1 67/65/1 68/68/1
