# Blender 4.1.1
# www.blender.org
mtllib tile_wideSplit.mtl
o tile_wideSplit
v 1.000000 0.500000 0.000000
v 1.000000 -0.500000 0.000000
v -1.000000 0.500000 0.000000
v -1.000000 -0.500000 0.000000
v 1.000000 0.500000 -0.100000
v -1.000000 0.500000 -0.100000
v -1.000000 -0.500000 -0.100000
v 1.000000 -0.500000 -0.100000
v 0.781250 -0.500000 -0.150000
v 0.781250 0.500000 -0.150000
v 0.218750 -0.500000 -0.150000
v 0.211296 -0.443383 -0.150000
v 0.189443 -0.390625 -0.150000
v 0.154680 -0.345320 -0.150000
v -0.781250 0.500000 -0.150000
v 0.109375 -0.310557 -0.150000
v 0.056617 -0.288704 -0.150000
v -0.000000 -0.281250 -0.150000
v -0.056617 -0.288704 -0.150000
v -0.109375 -0.310557 -0.150000
v -0.154680 -0.345320 -0.150000
v -0.189443 -0.390625 -0.150000
v -0.211296 -0.443383 -0.150000
v -0.218750 -0.500000 -0.150000
v -0.781250 -0.500000 -0.150000
v 0.875000 0.500000 -0.150000
v 1.000000 0.500000 -0.200000
v 0.875000 0.500000 -0.200000
v -0.875000 0.500000 -0.150000
v -1.000000 0.500000 -0.200000
v -0.875000 0.500000 -0.200000
v -0.875000 -0.500000 -0.150000
v -1.000000 -0.500000 -0.200000
v -0.875000 -0.500000 -0.200000
v 0.875000 -0.500000 -0.150000
v 1.000000 -0.500000 -0.200000
v -0.125000 -0.500000 -0.150000
v 0.125000 -0.500000 -0.150000
v -0.125000 -0.500000 -0.200000
v 0.125000 -0.500000 -0.200000
v 0.875000 -0.500000 -0.200000
v 0.120741 -0.467648 -0.200000
v 0.108253 -0.437500 -0.200000
v 0.088388 -0.411612 -0.200000
v 0.062500 -0.391747 -0.200000
v 0.032352 -0.379259 -0.200000
v -0.000000 -0.375000 -0.200000
v -0.032352 -0.379259 -0.200000
v -0.062500 -0.391747 -0.200000
v -0.088388 -0.411612 -0.200000
v -0.108253 -0.437500 -0.200000
v -0.120741 -0.467648 -0.200000
v 0.120741 -0.467648 -0.150000
v 0.108253 -0.437500 -0.150000
v 0.088388 -0.411612 -0.150000
v 0.062500 -0.391747 -0.150000
v 0.032352 -0.379259 -0.150000
v -0.000000 -0.375000 -0.150000
v -0.032352 -0.379259 -0.150000
v -0.062500 -0.391747 -0.150000
v -0.088388 -0.411612 -0.150000
v -0.108253 -0.437500 -0.150000
v -0.120741 -0.467648 -0.150000
vn -0.0000 -0.0000 1.0000
vn -0.0000 1.0000 -0.0000
vn -1.0000 -0.0000 -0.0000
vn -0.0000 -1.0000 -0.0000
vn 1.0000 -0.0000 -0.0000
vn -0.0000 -0.0000 -1.0000
vn -0.9659 0.2588 -0.0000
vn -0.9914 0.1305 -0.0000
vn -0.8660 0.5000 -0.0000
vn -0.7071 0.7071 -0.0000
vn -0.8660 0.5000 -0.0001
vn -0.5000 0.8660 -0.0000
vn -0.2588 0.9659 -0.0000
vn 0.2588 0.9659 -0.0000
vn 0.5000 0.8660 -0.0000
vn 0.7071 0.7071 -0.0000
vn 0.8660 0.5000 -0.0000
vn 0.9659 0.2588 -0.0000
vn 0.9914 0.1305 -0.0000
vt -39.370079 19.685040
vt 39.370079 -19.685040
vt 39.370079 19.685040
vt -39.370079 -19.685040
vt 39.370079 3.937008
vt -39.370079 0.000000
vt 39.370079 0.000000
vt -39.370079 3.937008
vt 19.685040 0.000000
vt -19.685040 3.937008
vt -19.685040 0.000000
vt 19.685040 3.937008
vt -8.612205 -19.685040
vt -30.757870 19.685040
vt -30.757870 -19.685040
vt -8.318751 -17.456039
vt -7.458388 -15.378940
vt -6.089748 -13.595290
vt 30.757870 19.685040
vt -4.306102 -12.226650
vt -2.229003 -11.366290
vt 0.000000 -11.072830
vt 2.229003 -11.366290
vt 4.306102 -12.226650
vt 6.089748 -13.595290
vt 7.458388 -15.378940
vt 8.318751 -17.456039
vt 8.612205 -19.685040
vt 30.757870 -19.685040
vt 34.448818 5.905512
vt 39.370079 7.874016
vt 34.448818 7.874016
vt -34.448818 5.905512
vt -39.370079 7.874016
vt 30.757870 5.905512
vt -30.757870 5.905512
vt -34.448818 7.874016
vt 8.612205 5.905512
vt 4.921260 5.905512
vt -4.921260 5.905512
vt 4.921260 7.874016
vt -4.921260 7.874016
vt -8.612205 5.905512
vt -19.685040 7.874016
vt 19.685040 7.874016
vt 34.448818 -19.685040
vt 34.448818 19.685040
vt -34.448818 19.685040
vt -34.448818 -19.685040
vt 4.921260 -19.685040
vt -4.753572 -18.411320
vt -4.921260 -19.685040
vt -4.261936 -17.224409
vt -3.479856 -16.205179
vt -2.460630 -15.423100
vt -1.273716 -14.931470
vt 0.000000 -14.763780
vt 1.273716 -14.931470
vt 2.460630 -15.423100
vt 3.479856 -16.205179
vt 4.261936 -17.224409
vt 4.753572 -18.411320
vt 19.685040 5.905512
vt -19.685040 5.905512
vt -18.874281 5.905512
vt -20.158991 7.874016
vt -20.158991 5.905512
vt -18.874281 7.874016
vt -17.544250 5.905512
vt -18.828960 7.874016
vt -18.828960 5.905512
vt -17.544250 7.874016
vt -14.974840 5.905512
vt -16.259541 7.874016
vt -16.259541 5.905512
vt -14.974840 7.874016
vt -11.341140 7.874016
vt -12.625850 5.905512
vt -11.341140 5.905512
vt -12.625850 7.874016
vt -6.890785 7.874016
vt -8.175491 5.905512
vt -6.890785 5.905512
vt -8.175491 7.874016
vt -1.927060 7.874016
vt -3.211766 5.905512
vt -1.927060 5.905512
vt -3.211766 7.874016
vt 3.211766 7.874016
vt 1.927060 5.905512
vt 3.211766 5.905512
vt 1.927060 7.874016
vt 8.175491 7.874016
vt 6.890785 5.905512
vt 8.175491 5.905512
vt 6.890785 7.874016
vt 12.625850 7.874016
vt 11.341140 5.905512
vt 12.625850 5.905512
vt 11.341140 7.874016
vt 14.974840 7.874016
vt 16.259541 5.905512
vt 16.259541 7.874016
vt 14.974840 5.905512
vt 17.544250 7.874016
vt 18.828960 5.905512
vt 18.828960 7.874016
vt 17.544250 5.905512
vt 18.874281 7.874016
vt 20.158991 5.905512
vt 20.158991 7.874016
vt 18.874281 5.905512
s 0
usemtl dirt.030
f 3/1/1 2/2/1 1/3/1
f 2/2/1 3/1/1 4/4/1
f 5/5/2 3/6/2 1/7/2
f 3/6/2 5/5/2 6/8/2
f 3/9/3 7/10/3 4/11/3
f 7/10/3 3/9/3 6/12/3
f 7/5/4 2/6/4 4/7/4
f 2/6/4 7/5/4 8/8/4
f 5/10/5 2/9/5 8/12/5
f 2/9/5 5/10/5 1/11/5
f 11/13/6 10/14/6 9/15/6
f 10/14/6 11/13/6 12/16/6
f 10/14/6 12/16/6 13/17/6
f 10/14/6 13/17/6 14/18/6
f 10/14/6 14/18/6 15/19/6
f 15/19/6 14/18/6 16/20/6
f 15/19/6 16/20/6 17/21/6
f 15/19/6 17/21/6 18/22/6
f 15/19/6 18/22/6 19/23/6
f 15/19/6 19/23/6 20/24/6
f 15/19/6 20/24/6 21/25/6
f 15/19/6 21/25/6 22/26/6
f 15/19/6 22/26/6 23/27/6
f 15/19/6 23/27/6 24/28/6
f 15/19/6 24/28/6 25/29/6
usemtl foliage.029
f 5/5/2 26/30/2 6/8/2
f 26/30/2 5/5/2 27/31/2
f 26/30/2 27/31/2 28/32/2
f 29/33/2 6/8/2 26/30/2
f 6/8/2 29/33/2 30/34/2
f 29/33/2 26/30/2 10/35/2
f 29/33/2 10/35/2 15/36/2
f 30/34/2 29/33/2 31/37/2
f 7/5/4 32/30/4 8/8/4
f 32/30/4 7/5/4 33/31/4
f 32/30/4 33/31/4 34/32/4
f 35/33/4 8/8/4 32/30/4
f 8/8/4 35/33/4 36/34/4
f 35/33/4 32/30/4 25/35/4
f 35/33/4 25/35/4 24/38/4
f 35/33/4 24/38/4 37/39/4
f 35/33/4 37/39/4 38/40/4
f 39/41/4 38/40/4 37/39/4
f 38/40/4 39/41/4 40/42/4
f 35/33/4 38/40/4 11/43/4
f 35/33/4 11/43/4 9/36/4
f 36/34/4 35/33/4 41/37/4
f 27/44/5 8/12/5 36/45/5
f 8/12/5 27/44/5 5/10/5
f 6/12/3 33/44/3 7/10/3
f 33/44/3 6/12/3 30/45/3
f 34/46/6 30/3/6 31/47/6
f 30/3/6 34/46/6 33/2/6
f 36/4/6 28/48/6 27/1/6
f 28/48/6 36/4/6 41/49/6
f 39/50/6 42/51/6 40/52/6
f 42/51/6 39/50/6 43/53/6
f 43/53/6 39/50/6 44/54/6
f 44/54/6 39/50/6 45/55/6
f 45/55/6 39/50/6 46/56/6
f 46/56/6 39/50/6 47/57/6
f 47/57/6 39/50/6 48/58/6
f 48/58/6 39/50/6 49/59/6
f 49/59/6 39/50/6 50/60/6
f 50/60/6 39/50/6 51/61/6
f 51/61/6 39/50/6 52/62/6
usemtl dirtDark.013
f 31/44/5 32/63/5 34/45/5
f 32/63/5 31/44/5 29/64/5
f 26/63/3 41/44/3 35/64/3
f 41/44/3 26/63/3 28/45/3
f 25/29/6 29/47/6 15/19/6
f 29/47/6 25/29/6 32/46/6
f 35/49/6 10/14/6 26/48/6
f 10/14/6 35/49/6 9/15/6
f 38/52/6 12/16/6 11/13/6
f 12/16/6 38/52/6 13/17/6
f 13/17/6 38/52/6 14/18/6
f 14/18/6 38/52/6 16/20/6
f 16/20/6 38/52/6 53/51/6
f 16/20/6 53/51/6 54/53/6
f 16/20/6 54/53/6 17/21/6
f 17/21/6 54/53/6 55/54/6
f 17/21/6 55/54/6 56/55/6
f 17/21/6 56/55/6 57/56/6
f 17/21/6 57/56/6 18/22/6
f 18/22/6 57/56/6 58/57/6
f 18/22/6 58/57/6 19/23/6
f 19/23/6 58/57/6 59/58/6
f 19/23/6 59/58/6 60/59/6
f 19/23/6 60/59/6 20/24/6
f 20/24/6 60/59/6 61/60/6
f 20/24/6 61/60/6 62/61/6
f 20/24/6 62/61/6 63/62/6
f 20/24/6 63/62/6 21/25/6
f 21/25/6 63/62/6 37/50/6
f 21/25/6 37/50/6 24/28/6
f 21/25/6 24/28/6 22/26/6
f 22/26/6 24/28/6 23/27/6
f 63/65/7 39/66/8 37/67/8
f 39/66/8 63/65/7 52/68/7
f 62/69/9 52/70/7 63/71/7
f 52/70/7 62/69/9 51/72/9
f 61/73/10 51/74/9 62/75/11
f 51/74/9 61/73/10 50/76/10
f 49/77/12 61/78/10 60/79/12
f 61/78/10 49/77/12 50/80/10
f 48/81/13 60/82/12 59/83/13
f 60/82/12 48/81/13 49/84/12
f 47/85/2 59/86/13 58/87/2
f 59/86/13 47/85/2 48/88/13
f 46/89/14 58/90/2 57/91/14
f 58/90/2 46/89/14 47/92/2
f 45/93/15 57/94/14 56/95/15
f 57/94/14 45/93/15 46/96/14
f 44/97/16 56/98/15 55/99/16
f 56/98/15 44/97/16 45/100/15
f 44/101/16 54/102/17 43/103/17
f 54/102/17 44/101/16 55/104/16
f 43/105/17 53/106/18 42/107/18
f 53/106/18 43/105/17 54/108/17
f 42/109/18 38/110/19 40/111/19
f 38/110/19 42/109/18 53/112/18
