# Blender 4.1.1
# www.blender.org
mtllib tile_wideStraight.mtl
o tile_wideStraight
v 1.000000 0.500000 0.000000
v 1.000000 -0.500000 0.000000
v -1.000000 0.500000 0.000000
v -1.000000 -0.500000 0.000000
v 1.000000 0.500000 -0.100000
v -1.000000 0.500000 -0.100000
v -1.000000 -0.500000 -0.100000
v 1.000000 -0.500000 -0.100000
v 0.781250 -0.500000 -0.150000
v 0.781250 0.500000 -0.150000
v -0.781250 -0.500000 -0.150000
v -0.781250 0.500000 -0.150000
v 0.875000 0.500000 -0.150000
v 1.000000 0.500000 -0.200000
v 0.875000 0.500000 -0.200000
v -0.875000 0.500000 -0.150000
v -1.000000 0.500000 -0.200000
v -0.875000 0.500000 -0.200000
v -0.875000 -0.500000 -0.150000
v -1.000000 -0.500000 -0.200000
v -0.875000 -0.500000 -0.200000
v 0.875000 -0.500000 -0.150000
v 1.000000 -0.500000 -0.200000
v 0.875000 -0.500000 -0.200000
vn -0.0000 -0.0000 1.0000
vn -0.0000 1.0000 -0.0000
vn -1.0000 -0.0000 -0.0000
vn -0.0000 -1.0000 -0.0000
vn 1.0000 -0.0000 -0.0000
vn -0.0000 -0.0000 -1.0000
vt -39.370079 19.685040
vt 39.370079 -19.685040
vt 39.370079 19.685040
vt -39.370079 -19.685040
vt 39.370079 3.937008
vt -39.370079 0.000000
vt 39.370079 0.000000
vt -39.370079 3.937008
vt 19.685040 0.000000
vt -19.685040 3.937008
vt -19.685040 0.000000
vt 19.685040 3.937008
vt 30.757870 -19.685040
vt -30.757870 19.685040
vt -30.757870 -19.685040
vt 30.757870 19.685040
vt 34.448818 5.905512
vt 39.370079 7.874016
vt 34.448818 7.874016
vt -34.448818 5.905512
vt -39.370079 7.874016
vt 30.757870 5.905512
vt -30.757870 5.905512
vt -34.448818 7.874016
vt -19.685040 7.874016
vt 19.685040 7.874016
vt 34.448818 -19.685040
vt 34.448818 19.685040
vt -34.448818 19.685040
vt -34.448818 -19.685040
vt 19.685040 5.905512
vt -19.685040 5.905512
s 0
usemtl dirt.031
f 3/1/1 2/2/1 1/3/1
f 2/2/1 3/1/1 4/4/1
f 5/5/2 3/6/2 1/7/2
f 3/6/2 5/5/2 6/8/2
f 3/9/3 7/10/3 4/11/3
f 7/10/3 3/9/3 6/12/3
f 7/5/4 2/6/4 4/7/4
f 2/6/4 7/5/4 8/8/4
f 5/10/5 2/9/5 8/12/5
f 2/9/5 5/10/5 1/11/5
f 11/13/6 10/14/6 9/15/6
f 10/14/6 11/13/6 12/16/6
usemtl foliage.030
f 5/5/2 13/17/2 6/8/2
f 13/17/2 5/5/2 14/18/2
f 13/17/2 14/18/2 15/19/2
f 16/20/2 6/8/2 13/17/2
f 6/8/2 16/20/2 17/21/2
f 16/20/2 13/17/2 10/22/2
f 16/20/2 10/22/2 12/23/2
f 17/21/2 16/20/2 18/24/2
f 7/5/4 19/17/4 8/8/4
f 19/17/4 7/5/4 20/18/4
f 19/17/4 20/18/4 21/19/4
f 22/20/4 8/8/4 19/17/4
f 8/8/4 22/20/4 23/21/4
f 22/20/4 19/17/4 11/22/4
f 22/20/4 11/22/4 9/23/4
f 23/21/4 22/20/4 24/24/4
f 14/25/5 8/12/5 23/26/5
f 8/12/5 14/25/5 5/10/5
f 6/12/3 20/25/3 7/10/3
f 20/25/3 6/12/3 17/26/3
f 21/27/6 17/3/6 18/28/6
f 17/3/6 21/27/6 20/2/6
f 23/4/6 15/29/6 14/1/6
f 15/29/6 23/4/6 24/30/6
usemtl dirtDark.014
f 18/25/5 19/31/5 21/26/5
f 19/31/5 18/25/5 16/32/5
f 13/31/3 24/25/3 22/32/3
f 24/25/3 13/31/3 15/26/3
f 11/13/6 16/28/6 12/16/6
f 16/28/6 11/13/6 19/27/6
f 22/30/6 10/14/6 13/29/6
f 10/14/6 22/30/6 9/15/6
